Poppins_0.ufo
<glyph name="numbersign" format="1">
  <advance width="827"/>
  <unicode hex="0023"/>
  <outline>
    <contour>
      <point x="154" y="0" type="line"/>
      <point x="154" y="0"/>
      <point x="223" y="0"/>
      <point x="223" y="0" type="curve"/>
      <point x="381" y="740" type="line"/>
      <point x="381" y="740"/>
      <point x="312" y="740"/>
      <point x="312" y="740" type="curve"/>
    </contour>
    <contour>
      <point x="443" y="0" type="line"/>
      <point x="443" y="0"/>
      <point x="512" y="0"/>
      <point x="512" y="0" type="curve"/>
      <point x="670" y="740" type="line"/>
      <point x="670" y="740"/>
      <point x="601" y="740"/>
      <point x="601" y="740" type="curve"/>
    </contour>
    <contour>
      <point x="43" y="218" type="line"/>
      <point x="714" y="218" type="line"/>
      <point x="714" y="276" type="line"/>
      <point x="43" y="276" type="line"/>
    </contour>
    <contour>
      <point x="98" y="465" type="line"/>
      <point x="769" y="465" type="line"/>
      <point x="769" y="523" type="line"/>
      <point x="98" y="523" type="line"/>
    </contour>
  </outline>
</glyph>
<glyph name="dollar" format="1">
  <advance width="655"/>
  <unicode hex="0024"/>
  <outline>
    <contour>
      <point x="255" y="-87" type="line"/>
      <point x="310" y="-87" type="line"/>
      <point x="310" y="777" type="line"/>
      <point x="310" y="777"/>
      <point x="255" y="777"/>
      <point x="255" y="777" type="curve"/>
    </contour>
    <contour>
      <point x="125" y="508" type="curve" smooth="yes"/>
      <point x="125" y="595"/>
      <point x="189" y="637"/>
      <point x="274" y="637" type="curve" smooth="yes"/>
      <point x="367" y="637"/>
      <point x="414" y="582"/>
      <point x="419" y="532" type="curve"/>
      <point x="498" y="532" type="line"/>
      <point x="483" y="629"/>
      <point x="406" y="697"/>
      <point x="284" y="697" type="curve" smooth="yes"/>
      <point x="142" y="697"/>
      <point x="60" y="619"/>
      <point x="60" y="507" type="curve" smooth="yes"/>
      <point x="60" y="238"/>
      <point x="446" y="386"/>
      <point x="446" y="186" type="curve" smooth="yes"/>
      <point x="446" y="112"/>
      <point x="387" y="52"/>
      <point x="284" y="52" type="curve" smooth="yes"/>
      <point x="181" y="52"/>
      <point x="139" y="105"/>
      <point x="134" y="163" type="curve"/>
      <point x="60" y="163" type="line"/>
      <point x="60" y="56"/>
      <point x="160" y="-7"/>
      <point x="284" y="-7" type="curve" smooth="yes"/>
      <point x="439" y="-7"/>
      <point x="511" y="94"/>
      <point x="511" y="190" type="curve" smooth="yes"/>
      <point x="511" y="452"/>
      <point x="125" y="306"/>
    </contour>
  </outline>
</glyph>
<glyph name="quotesingle" format="1">
  <advance width="133"/>
  <unicode hex="0027"/>
  <outline>
    <contour>
      <point x="42" y="602" type="line"/>
      <point x="91" y="602" type="line"/>
      <point x="103" y="795" type="line"/>
      <point x="30" y="795" type="line"/>
    </contour>
  </outline>
</glyph>
<glyph name="parenleft" format="1">
  <advance width="583"/>
  <unicode hex="0028"/>
  <outline>
    <contour>
      <point x="436" y="-183" type="curve"/>
      <point x="514" y="-183" type="line"/>
      <point x="514" y="-176" type="line"/>
      <point x="323" y="-28"/>
      <point x="242" y="194"/>
      <point x="242" y="403" type="curve"/>
      <point x="242" y="611"/>
      <point x="323" y="833"/>
      <point x="514" y="981" type="curve"/>
      <point x="514" y="988" type="line"/>
      <point x="436" y="988" type="line"/>
      <point x="279" y="874"/>
      <point x="174" y="651"/>
      <point x="174" y="403" type="curve" smooth="yes"/>
      <point x="174" y="154"/>
      <point x="279" y="-69"/>
    </contour>
  </outline>
</glyph>
<glyph name="asterisk" format="1">
  <advance width="481"/>
  <unicode hex="002A"/>
  <outline>
    <contour>
      <point x="275" y="732" type="line"/>
      <point x="202" y="732" type="line"/>
      <point x="218" y="575" type="line"/>
      <point x="91" y="669" type="line"/>
      <point x="54" y="603" type="line"/>
      <point x="201" y="546" type="line"/>
      <point x="54" y="489" type="line"/>
      <point x="91" y="423" type="line"/>
      <point x="218" y="517" type="line"/>
      <point x="202" y="360" type="line"/>
      <point x="275" y="360" type="line"/>
      <point x="256" y="517" type="line"/>
      <point x="381" y="425" type="line"/>
      <point x="416" y="489" type="line"/>
      <point x="268" y="546" type="line"/>
      <point x="416" y="603" type="line"/>
      <point x="381" y="667" type="line"/>
      <point x="256" y="575" type="line"/>
    </contour>
  </outline>
</glyph>
<glyph name="plus" format="1">
  <advance width="765"/>
  <unicode hex="002B"/>
  <outline>
    <contour>
      <point x="350" y="625" type="line"/>
      <point x="350" y="115" type="line"/>
      <point x="415" y="115" type="line"/>
      <point x="415" y="625" type="line"/>
    </contour>
    <contour>
      <point x="128" y="340" type="line"/>
      <point x="637" y="340" type="line"/>
      <point x="637" y="400" type="line"/>
      <point x="128" y="400" type="line"/>
    </contour>
  </outline>
</glyph>
<glyph name="slash" format="1">
  <advance width="562"/>
  <unicode hex="002F"/>
  <outline>
    <contour>
      <point x="101" y="-166" type="line"/>
      <point x="101" y="-166"/>
      <point x="171" y="-166"/>
      <point x="171" y="-166" type="curve"/>
      <point x="446" y="940" type="line"/>
      <point x="446" y="940"/>
      <point x="375" y="940"/>
      <point x="375" y="940" type="curve"/>
    </contour>
  </outline>
</glyph>
<glyph name="zero" format="1">
  <advance width="632"/>
  <unicode hex="0030"/>
  <outline>
    <contour>
      <point x="315" y="733" type="curve" smooth="yes"/>
      <point x="516" y="733"/>
      <point x="558" y="569"/>
      <point x="558" y="367" type="curve"/>
      <point x="558" y="165"/>
      <point x="516" y="1"/>
      <point x="315" y="1" type="curve" smooth="yes"/>
      <point x="114" y="1"/>
      <point x="72" y="165"/>
      <point x="72" y="367" type="curve"/>
      <point x="72" y="569"/>
      <point x="114" y="733"/>
    </contour>
    <contour>
      <point x="315" y="673" type="curve" smooth="yes"/>
      <point x="157" y="673"/>
      <point x="139" y="525"/>
      <point x="139" y="367" type="curve" smooth="yes"/>
      <point x="139" y="209"/>
      <point x="157" y="61"/>
      <point x="315" y="61" type="curve" smooth="yes"/>
      <point x="473" y="61"/>
      <point x="491" y="209"/>
      <point x="491" y="367" type="curve"/>
      <point x="491" y="525"/>
      <point x="473" y="673"/>
    </contour>
  </outline>
</glyph>
<glyph name="two" format="1">
  <advance width="581"/>
  <unicode hex="0032"/>
  <outline>
    <contour>
      <point x="61" y="10" type="line"/>
      <point x="533" y="10" type="line"/>
      <point x="533" y="70" type="line"/>
      <point x="172" y="70" type="line"/>
      <point x="293" y="180"/>
      <point x="509" y="339"/>
      <point x="509" y="524" type="curve" smooth="yes"/>
      <point x="509" y="663"/>
      <point x="416" y="736"/>
      <point x="289" y="736" type="curve" smooth="yes"/>
      <point x="159" y="736"/>
      <point x="68" y="655"/>
      <point x="61" y="506" type="curve"/>
      <point x="127" y="506" type="line"/>
      <point x="132" y="602"/>
      <point x="184" y="676"/>
      <point x="290" y="676" type="curve" smooth="yes"/>
      <point x="404" y="676"/>
      <point x="442" y="605"/>
      <point x="442" y="522" type="curve" smooth="yes"/>
      <point x="442" y="366"/>
      <point x="245" y="219"/>
      <point x="61" y="58" type="curve"/>
    </contour>
  </outline>
</glyph>
<glyph name="colon" format="1">
  <advance width="297"/>
  <unicode hex="003A"/>
  <outline>
    <contour>
      <point x="139" y="0" type="curve" smooth="yes"/>
      <point x="166" y="0"/>
      <point x="188" y="22"/>
      <point x="188" y="49" type="curve" smooth="yes"/>
      <point x="188" y="76"/>
      <point x="166" y="98"/>
      <point x="139" y="98" type="curve" smooth="yes"/>
      <point x="112" y="98"/>
      <point x="90" y="76"/>
      <point x="90" y="49" type="curve" smooth="yes"/>
      <point x="90" y="22"/>
      <point x="112" y="0"/>
    </contour>
    <contour>
      <point x="139" y="434" type="curve" smooth="yes"/>
      <point x="166" y="434"/>
      <point x="188" y="456"/>
      <point x="188" y="483" type="curve" smooth="yes"/>
      <point x="188" y="510"/>
      <point x="166" y="532"/>
      <point x="139" y="532" type="curve" smooth="yes"/>
      <point x="112" y="532"/>
      <point x="90" y="510"/>
      <point x="90" y="483" type="curve" smooth="yes"/>
      <point x="90" y="456"/>
      <point x="112" y="434"/>
    </contour>
  </outline>
</glyph>
<glyph name="less" format="1">
  <advance width="658"/>
  <unicode hex="003C"/>
  <outline>
    <contour>
      <point x="212" y="370" type="line"/>
      <point x="464" y="602" type="line"/>
      <point x="376" y="602" type="line"/>
      <point x="124" y="370" type="line"/>
      <point x="376" y="138" type="line"/>
      <point x="464" y="138" type="line"/>
    </contour>
  </outline>
</glyph>
<glyph name="equal" format="1">
  <advance width="769"/>
  <unicode hex="003D"/>
  <outline>
    <contour>
      <point x="130" y="237" type="line"/>
      <point x="639" y="237" type="line"/>
      <point x="639" y="297" type="line"/>
      <point x="130" y="297" type="line"/>
    </contour>
    <contour>
      <point x="130" y="443" type="line"/>
      <point x="639" y="443" type="line"/>
      <point x="639" y="503" type="line"/>
      <point x="130" y="503" type="line"/>
    </contour>
  </outline>
</glyph>
<glyph name="question" format="1">
  <advance width="619"/>
  <unicode hex="003F"/>
  <outline>
    <contour>
      <point x="101" y="539" type="curve"/>
      <point x="166" y="539" type="line"/>
      <point x="166" y="629"/>
      <point x="225" y="677"/>
      <point x="314" y="677" type="curve" smooth="yes"/>
      <point x="408" y="677"/>
      <point x="462" y="624"/>
      <point x="462" y="534" type="curve" smooth="yes"/>
      <point x="462" y="401"/>
      <point x="379" y="378"/>
      <point x="251" y="379" type="curve" smooth="yes"/>
      <point x="218" y="379" type="line"/>
      <point x="218" y="185" type="line"/>
      <point x="218" y="185"/>
      <point x="284" y="185"/>
      <point x="284" y="185" type="curve"/>
      <point x="284" y="327" type="line"/>
      <point x="442" y="328"/>
      <point x="527" y="381"/>
      <point x="527" y="535" type="curve" smooth="yes"/>
      <point x="527" y="659"/>
      <point x="444" y="737"/>
      <point x="314" y="737" type="curve" smooth="yes"/>
      <point x="191" y="737"/>
      <point x="101" y="662"/>
    </contour>
    <contour>
      <point x="204" y="39" type="curve" smooth="yes"/>
      <point x="204" y="12"/>
      <point x="226" y="-10"/>
      <point x="253" y="-10" type="curve" smooth="yes"/>
      <point x="280" y="-10"/>
      <point x="302" y="12"/>
      <point x="302" y="39" type="curve" smooth="yes"/>
      <point x="302" y="66"/>
      <point x="280" y="88"/>
      <point x="253" y="88" type="curve" smooth="yes"/>
      <point x="226" y="88"/>
      <point x="204" y="66"/>
    </contour>
  </outline>
</glyph>
<glyph name="at" format="1">
  <advance width="1125"/>
  <unicode hex="0040"/>
  <outline>
    <contour>
      <point x="735" y="273" type="curve" smooth="yes"/>
      <point x="716" y="149"/>
      <point x="618" y="49"/>
      <point x="515" y="49" type="curve" smooth="yes"/>
      <point x="413" y="49"/>
      <point x="345" y="149"/>
      <point x="364" y="273" type="curve" smooth="yes"/>
      <point x="383" y="396"/>
      <point x="481" y="496"/>
      <point x="583" y="496" type="curve" smooth="yes"/>
      <point x="686" y="496"/>
      <point x="754" y="396"/>
    </contour>
    <contour>
      <point x="291" y="279" type="curve" smooth="yes"/>
      <point x="266" y="109"/>
      <point x="366" y="-10"/>
      <point x="505" y="-10" type="curve" smooth="yes"/>
      <point x="609" y="-10"/>
      <point x="679" y="50"/>
      <point x="722" y="121" type="curve"/>
      <point x="718" y="118" type="line"/>
      <point x="708" y="62"/>
      <point x="730" y="-10"/>
      <point x="814" y="-10" type="curve" smooth="yes"/>
      <point x="934" y="-10"/>
      <point x="1065" y="146"/>
      <point x="1065" y="360" type="curve" smooth="yes"/>
      <point x="1065" y="606"/>
      <point x="890" y="777"/>
      <point x="626" y="777" type="curve" smooth="yes"/>
      <point x="290" y="777"/>
      <point x="60" y="515"/>
      <point x="60" y="199" type="curve" smooth="yes"/>
      <point x="60" y="-90"/>
      <point x="266" y="-239"/>
      <point x="529" y="-248" type="curve"/>
      <point x="544" y="-188" type="line"/>
      <point x="310" y="-179"/>
      <point x="133" y="-57"/>
      <point x="133" y="199" type="curve" smooth="yes"/>
      <point x="133" y="488"/>
      <point x="332" y="717"/>
      <point x="616" y="717" type="curve" smooth="yes"/>
      <point x="857" y="717"/>
      <point x="992" y="572"/>
      <point x="992" y="360" type="curve" smooth="yes"/>
      <point x="992" y="177"/>
      <point x="898" y="49"/>
      <point x="821" y="49" type="curve" smooth="yes"/>
      <point x="791" y="49"/>
      <point x="775" y="67"/>
      <point x="781" y="107" type="curve" smooth="yes"/>
      <point x="808" y="278" type="line" smooth="yes"/>
      <point x="833" y="428"/>
      <point x="745" y="556"/>
      <point x="593" y="556" type="curve" smooth="yes"/>
      <point x="453" y="556"/>
      <point x="317" y="448"/>
    </contour>
  </outline>
</glyph>
<glyph name="A" format="1">
  <advance width="685"/>
  <unicode hex="0041"/>
  <outline>
    <contour>
      <point x="632" y="0" type="move" name="ogonek"/>
    </contour>
    <contour>
      <point x="343" y="690" type="move" name="top"/>
    </contour>
    <contour>
      <point x="307" y="690" type="line"/>
      <point x="53" y="0" type="line"/>
      <point x="123" y="0" type="line"/>
      <point x="360" y="650" type="line"/>
      <point x="326" y="650" type="line"/>
      <point x="562" y="0" type="line"/>
      <point x="632" y="0" type="line"/>
      <point x="379" y="690" type="line"/>
    </contour>
    <contour>
      <point x="157" y="161" type="line"/>
      <point x="530" y="161" type="line"/>
      <point x="511" y="217" type="line"/>
      <point x="175" y="217" type="line"/>
    </contour>
  </outline>
</glyph>
<glyph name="B" format="1">
  <advance width="595"/>
  <unicode hex="0042"/>
  <outline>
    <contour>
      <point x="456" y="508" type="curve" smooth="yes"/>
      <point x="456" y="434"/>
      <point x="403" y="384"/>
      <point x="308" y="384" type="curve" smooth="yes"/>
      <point x="145" y="384" type="line"/>
      <point x="145" y="633" type="line"/>
      <point x="308" y="633" type="line" smooth="yes"/>
      <point x="403" y="633"/>
      <point x="456" y="582"/>
    </contour>
    <contour>
      <point x="543" y="183" type="curve" smooth="yes"/>
      <point x="543" y="275"/>
      <point x="470" y="357"/>
      <point x="365" y="359" type="curve"/>
      <point x="348" y="347" type="line"/>
      <point x="457" y="361"/>
      <point x="527" y="412"/>
      <point x="527" y="506" type="curve" smooth="yes"/>
      <point x="527" y="609"/>
      <point x="455" y="690"/>
      <point x="308" y="690" type="curve" smooth="yes"/>
      <point x="75" y="690" type="line"/>
      <point x="75" y="0" type="line"/>
      <point x="319" y="0" type="line" smooth="yes"/>
      <point x="456" y="0"/>
      <point x="543" y="84"/>
    </contour>
    <contour>
      <point x="475" y="192" type="curve" smooth="yes"/>
      <point x="475" y="108"/>
      <point x="419" y="56"/>
      <point x="318" y="56" type="curve" smooth="yes"/>
      <point x="145" y="56" type="line"/>
      <point x="145" y="327" type="line"/>
      <point x="309" y="327" type="line" smooth="yes"/>
      <point x="409" y="327"/>
      <point x="475" y="275"/>
    </contour>
  </outline>
</glyph>
<glyph name="C" format="1">
  <advance width="780"/>
  <unicode hex="0043"/>
  <outline>
    <contour>
      <point x="390" y="690" type="move" name="top"/>
    </contour>
    <contour>
      <point x="390" y="0" type="move" name="bottom"/>
    </contour>
    <contour>
      <point x="40" y="345" type="curve" smooth="yes"/>
      <point x="40" y="139"/>
      <point x="196" y="-6"/>
      <point x="391" y="-6" type="curve" smooth="yes"/>
      <point x="529" y="-6"/>
      <point x="647" y="57"/>
      <point x="704" y="182" type="curve"/>
      <point x="619" y="182" type="line"/>
      <point x="576" y="101"/>
      <point x="492" y="54"/>
      <point x="391" y="54" type="curve" smooth="yes"/>
      <point x="233" y="54"/>
      <point x="112" y="168"/>
      <point x="112" y="345" type="curve" smooth="yes"/>
      <point x="112" y="523"/>
      <point x="233" y="636"/>
      <point x="391" y="636" type="curve" smooth="yes"/>
      <point x="492" y="636"/>
      <point x="576" y="590"/>
      <point x="619" y="509" type="curve"/>
      <point x="704" y="509" type="line"/>
      <point x="647" y="634"/>
      <point x="529" y="697"/>
      <point x="391" y="697" type="curve" smooth="yes"/>
      <point x="196" y="697"/>
      <point x="40" y="552"/>
    </contour>
  </outline>
</glyph>
<glyph name="E" format="1">
  <advance width="487"/>
  <unicode hex="0045"/>
  <outline>
    <contour>
      <point x="426" y="0" type="move" name="ogonek"/>
    </contour>
    <contour>
      <point x="244" y="0" type="move" name="bottom"/>
    </contour>
    <contour>
      <point x="244" y="690" type="move" name="top"/>
    </contour>
    <contour>
      <point x="426" y="690" type="line"/>
      <point x="75" y="690" type="line"/>
      <point x="75" y="0" type="line"/>
      <point x="426" y="0" type="line"/>
      <point x="426" y="56" type="line"/>
      <point x="145" y="56" type="line"/>
      <point x="145" y="319" type="line"/>
      <point x="396" y="319" type="line"/>
      <point x="396" y="375" type="line"/>
      <point x="145" y="375" type="line"/>
      <point x="145" y="633" type="line"/>
      <point x="426" y="633" type="line"/>
    </contour>
  </outline>
</glyph>
<glyph name="F" format="1">
  <advance width="468"/>
  <unicode hex="0046"/>
  <outline>
    <contour>
      <point x="75" y="0" type="line"/>
      <point x="145" y="0" type="line"/>
      <point x="145" y="319" type="line"/>
      <point x="386" y="319" type="line"/>
      <point x="386" y="375" type="line"/>
      <point x="145" y="375" type="line"/>
      <point x="145" y="633" type="line"/>
      <point x="447" y="633" type="line"/>
      <point x="447" y="690" type="line"/>
      <point x="75" y="690" type="line"/>
    </contour>
  </outline>
</glyph>
<glyph name="H" format="1">
  <advance width="660"/>
  <unicode hex="0048"/>
  <outline>
    <contour>
      <point x="75" y="0" type="line"/>
      <point x="145" y="0" type="line"/>
      <point x="145" y="690" type="line"/>
      <point x="75" y="690" type="line"/>
    </contour>
    <contour>
      <point x="515" y="0" type="line"/>
      <point x="585" y="0" type="line"/>
      <point x="585" y="690" type="line"/>
      <point x="515" y="690" type="line"/>
    </contour>
    <contour>
      <point x="125" y="319" type="line"/>
      <point x="544" y="319" type="line"/>
      <point x="544" y="375" type="line"/>
      <point x="125" y="375" type="line"/>
    </contour>
  </outline>
</glyph>
<glyph name="I" format="1">
  <advance width="220"/>
  <unicode hex="0049"/>
  <outline>
    <contour>
      <point x="145" y="1" type="move" name="ogonek"/>
    </contour>
    <contour>
      <point x="110" y="690" type="move" name="top"/>
    </contour>
    <contour>
      <point x="75" y="0" type="line"/>
      <point x="145" y="0" type="line"/>
      <point x="145" y="690" type="line"/>
      <point x="75" y="690" type="line"/>
    </contour>
  </outline>
</glyph>
<glyph name="J" format="1">
  <advance width="541"/>
  <unicode hex="004A"/>
  <outline>
    <contour>
      <point x="352" y="170" type="line" smooth="yes"/>
      <point x="352" y="111"/>
      <point x="323" y="53"/>
      <point x="240" y="53" type="curve" smooth="yes"/>
      <point x="157" y="53"/>
      <point x="129" y="111"/>
      <point x="128" y="170" type="curve"/>
      <point x="56" y="170" type="line"/>
      <point x="56" y="64"/>
      <point x="128" y="-7"/>
      <point x="240" y="-7" type="curve" smooth="yes"/>
      <point x="351" y="-7"/>
      <point x="422" y="64"/>
      <point x="422" y="170" type="curve" smooth="yes"/>
      <point x="422" y="690" type="line"/>
      <point x="352" y="690" type="line"/>
    </contour>
  </outline>
</glyph>
<glyph name="L" format="1">
  <advance width="416"/>
  <unicode hex="004C"/>
  <outline>
    <contour>
      <point x="230" y="10" type="move" name="commaaccent"/>
    </contour>
    <contour>
      <point x="208" y="690" type="move" name="top"/>
    </contour>
    <contour>
      <point x="396" y="690" type="move" name="topright"/>
    </contour>
    <contour>
      <point x="230" y="0" type="move" name="bottom"/>
    </contour>
    <contour>
      <point x="75" y="690" type="line"/>
      <point x="75" y="0" type="line"/>
      <point x="396" y="0" type="line"/>
      <point x="396" y="54" type="line"/>
      <point x="145" y="54" type="line"/>
      <point x="145" y="690" type="line"/>
    </contour>
  </outline>
</glyph>
<glyph name="M" format="1">
  <advance width="833"/>
  <unicode hex="004D"/>
  <outline>
    <contour>
      <point x="75" y="0" type="line"/>
      <point x="145" y="0" type="line"/>
      <point x="145" y="586" type="line"/>
      <point x="118" y="586" type="line"/>
      <point x="396" y="0" type="line"/>
      <point x="437" y="0" type="line"/>
      <point x="714" y="586" type="line"/>
      <point x="688" y="586" type="line"/>
      <point x="688" y="0" type="line"/>
      <point x="758" y="0" type="line"/>
      <point x="758" y="690" type="line"/>
      <point x="693" y="690" type="line"/>
      <point x="408" y="82" type="line"/>
      <point x="426" y="82" type="line"/>
      <point x="140" y="690" type="line"/>
      <point x="75" y="690" type="line"/>
    </contour>
  </outline>
</glyph>
<glyph name="N" format="1">
  <advance width="677"/>
  <unicode hex="004E"/>
  <outline>
    <contour>
      <point x="339" y="690" type="move" name="top"/>
    </contour>
    <contour>
      <point x="339" y="0" type="move" name="bottom"/>
    </contour>
    <contour>
      <point x="532" y="690" type="line"/>
      <point x="532" y="112" type="line"/>
      <point x="145" y="690" type="line"/>
      <point x="75" y="690" type="line"/>
      <point x="75" y="0" type="line"/>
      <point x="145" y="0" type="line"/>
      <point x="145" y="578" type="line"/>
      <point x="532" y="0" type="line"/>
      <point x="602" y="0" type="line"/>
      <point x="602" y="690" type="line"/>
    </contour>
  </outline>
</glyph>
<glyph name="P" format="1">
  <advance width="562"/>
  <unicode hex="0050"/>
  <outline>
    <contour>
      <point x="145" y="346" type="line"/>
      <point x="145" y="633" type="line"/>
      <point x="286" y="633" type="line" smooth="yes"/>
      <point x="404" y="633"/>
      <point x="451" y="578"/>
      <point x="451" y="489" type="curve" smooth="yes"/>
      <point x="451" y="403"/>
      <point x="404" y="346"/>
      <point x="286" y="346" type="curve" smooth="yes"/>
    </contour>
    <contour>
      <point x="522" y="489" type="curve" smooth="yes"/>
      <point x="522" y="604"/>
      <point x="446" y="690"/>
      <point x="286" y="690" type="curve" smooth="yes"/>
      <point x="75" y="690" type="line"/>
      <point x="75" y="0" type="line"/>
      <point x="145" y="0" type="line"/>
      <point x="145" y="289" type="line"/>
      <point x="286" y="289" type="line" smooth="yes"/>
      <point x="448" y="289"/>
      <point x="522" y="375"/>
    </contour>
  </outline>
</glyph>
<glyph name="Q" format="1">
  <advance width="782"/>
  <unicode hex="0051"/>
  <outline>
    <contour>
      <point x="478" y="30" type="line"/>
      <point x="657" y="-135" type="line"/>
      <point x="754" y="-135" type="line"/>
      <point x="535" y="68" type="line"/>
    </contour>
    <component base="O"/>
  </outline>
</glyph>
<glyph name="R" format="1">
  <advance width="603"/>
  <unicode hex="0052"/>
  <outline>
    <contour>
      <point x="302" y="690" type="move" name="top"/>
    </contour>
    <contour>
      <point x="302" y="0" type="move" name="bottom"/>
    </contour>
    <contour>
      <point x="451" y="489" type="curve" smooth="yes"/>
      <point x="451" y="403"/>
      <point x="404" y="346"/>
      <point x="286" y="346" type="curve" smooth="yes"/>
      <point x="145" y="346" type="line"/>
      <point x="145" y="633" type="line"/>
      <point x="286" y="633" type="line" smooth="yes"/>
      <point x="404" y="633"/>
      <point x="451" y="578"/>
    </contour>
    <contour>
      <point x="75" y="690" type="line"/>
      <point x="75" y="0" type="line"/>
      <point x="145" y="0" type="line"/>
      <point x="145" y="289" type="line"/>
      <point x="286" y="289" type="line" smooth="yes"/>
      <point x="448" y="289"/>
      <point x="522" y="375"/>
      <point x="522" y="489" type="curve" smooth="yes"/>
      <point x="522" y="604"/>
      <point x="446" y="690"/>
      <point x="286" y="690" type="curve" smooth="yes"/>
    </contour>
    <contour>
      <point x="236" y="315" type="line"/>
      <point x="440" y="0" type="line"/>
      <point x="531" y="0" type="line"/>
      <point x="320" y="315" type="line"/>
    </contour>
  </outline>
</glyph>
<glyph name="U" format="1">
  <advance width="658"/>
  <unicode hex="0055"/>
  <outline>
    <contour>
      <point x="452" y="0" type="move" name="ogonek"/>
    </contour>
    <contour>
      <point x="329" y="690" type="move" name="top"/>
    </contour>
    <contour>
      <point x="75" y="232" type="line" smooth="yes"/>
      <point x="75" y="67"/>
      <point x="189" y="-7"/>
      <point x="330" y="-7" type="curve" smooth="yes"/>
      <point x="470" y="-7"/>
      <point x="584" y="67"/>
      <point x="584" y="232" type="curve" smooth="yes"/>
      <point x="584" y="690" type="line"/>
      <point x="514" y="690" type="line"/>
      <point x="514" y="232" type="line" smooth="yes"/>
      <point x="514" y="104"/>
      <point x="439" y="51"/>
      <point x="330" y="51" type="curve" smooth="yes"/>
      <point x="221" y="51"/>
      <point x="145" y="104"/>
      <point x="145" y="232" type="curve" smooth="yes"/>
      <point x="145" y="690" type="line"/>
      <point x="75" y="690" type="line"/>
    </contour>
  </outline>
</glyph>
<glyph name="V" format="1">
  <advance width="668"/>
  <unicode hex="0056"/>
  <outline>
    <contour>
      <point x="300" y="0" type="line"/>
      <point x="368" y="0" type="line"/>
      <point x="639" y="690" type="line"/>
      <point x="565" y="690" type="line"/>
      <point x="333" y="79" type="line"/>
      <point x="103" y="690" type="line"/>
      <point x="29" y="690" type="line"/>
    </contour>
  </outline>
</glyph>
<glyph name="X" format="1">
  <advance width="601"/>
  <unicode hex="0058"/>
  <outline>
    <contour>
      <point x="475" y="0" type="line"/>
      <point x="551" y="0" type="line"/>
      <point x="126" y="690" type="line"/>
      <point x="50" y="690" type="line"/>
    </contour>
    <contour>
      <point x="273" y="363" type="line"/>
      <point x="50" y="0" type="line"/>
      <point x="126" y="0" type="line"/>
      <point x="306" y="310" type="line"/>
    </contour>
    <contour>
      <point x="328" y="327" type="line"/>
      <point x="551" y="690" type="line"/>
      <point x="475" y="690" type="line"/>
      <point x="295" y="380" type="line"/>
    </contour>
  </outline>
</glyph>
<glyph name="Y" format="1">
  <advance width="541"/>
  <unicode hex="0059"/>
  <outline>
    <contour>
      <point x="271" y="690" type="move" name="top"/>
    </contour>
    <contour>
      <point x="236" y="272" type="line"/>
      <point x="236" y="0" type="line"/>
      <point x="306" y="0" type="line"/>
      <point x="306" y="272" type="line"/>
      <point x="526" y="690" type="line"/>
      <point x="450" y="690" type="line"/>
      <point x="250" y="296" type="line"/>
      <point x="291" y="296" type="line"/>
      <point x="90" y="690" type="line"/>
      <point x="15" y="690" type="line"/>
    </contour>
  </outline>
</glyph>
<glyph name="backslash" format="1">
  <advance width="651"/>
  <unicode hex="005C"/>
  <outline>
    <contour>
      <point x="220" y="940" type="line"/>
      <point x="220" y="940"/>
      <point x="149" y="940"/>
      <point x="149" y="940" type="curve"/>
      <point x="474" y="-166" type="line"/>
      <point x="474" y="-166"/>
      <point x="544" y="-166"/>
      <point x="544" y="-166" type="curve"/>
    </contour>
  </outline>
</glyph>
<glyph name="bracketright" format="1">
  <advance width="465"/>
  <unicode hex="005D"/>
  <outline>
    <contour>
      <point x="295" y="940" type="line"/>
      <point x="159" y="940" type="line"/>
      <point x="159" y="880" type="line"/>
      <point x="230" y="880" type="line"/>
      <point x="230" y="-106" type="line"/>
      <point x="159" y="-106" type="line"/>
      <point x="159" y="-166" type="line"/>
      <point x="295" y="-166" type="line"/>
    </contour>
  </outline>
</glyph>
<glyph name="asciicircum" format="1">
  <advance width="611"/>
  <unicode hex="005E"/>
  <outline>
    <contour>
      <point x="495" y="171" type="line"/>
      <point x="571" y="171" type="line"/>
      <point x="337" y="690" type="line"/>
      <point x="274" y="690" type="line"/>
      <point x="40" y="171" type="line"/>
      <point x="116" y="171" type="line"/>
      <point x="306" y="599" type="line"/>
    </contour>
  </outline>
</glyph>
<glyph name="underscore" format="1">
  <advance width="813"/>
  <unicode hex="005F"/>
  <outline>
    <contour>
      <point x="158" y="-100" type="line"/>
      <point x="667" y="-100" type="line"/>
      <point x="667" y="-40" type="line"/>
      <point x="158" y="-40" type="line"/>
    </contour>
  </outline>
</glyph>
<glyph name="grave" format="1">
  <advance width="225"/>
  <unicode hex="0060"/>
  <outline>
    <contour>
      <point x="123" y="546" type="move" name="_top"/>
    </contour>
    <contour>
      <point x="10" y="700" type="line"/>
      <point x="215" y="585" type="line"/>
      <point x="215" y="642" type="line"/>
      <point x="10" y="770" type="line"/>
    </contour>
  </outline>
</glyph>
<glyph name="d" format="1">
  <advance width="662"/>
  <unicode hex="0064"/>
  <outline>
    <contour>
      <point x="587" y="740" type="move" name="topright"/>
    </contour>
    <contour>
      <point x="40" y="278" type="curve" smooth="yes"/>
      <point x="40" y="108"/>
      <point x="154" y="-10"/>
      <point x="304" y="-10" type="curve" smooth="yes"/>
      <point x="408" y="-10"/>
      <point x="483" y="49"/>
      <point x="517" y="120" type="curve"/>
      <point x="517" y="0" type="line"/>
      <point x="587" y="0" type="line"/>
      <point x="587" y="740" type="line"/>
      <point x="517" y="740" type="line"/>
      <point x="517" y="427" type="line"/>
      <point x="483" y="498"/>
      <point x="408" y="556"/>
      <point x="304" y="556" type="curve" smooth="yes"/>
      <point x="154" y="556"/>
      <point x="40" y="448"/>
    </contour>
    <contour>
      <point x="517" y="273" type="curve" smooth="yes"/>
      <point x="517" y="135"/>
      <point x="422" y="50"/>
      <point x="314" y="50" type="curve" smooth="yes"/>
      <point x="207" y="50"/>
      <point x="112" y="140"/>
      <point x="112" y="278" type="curve" smooth="yes"/>
      <point x="112" y="416"/>
      <point x="207" y="496"/>
      <point x="314" y="496" type="curve" smooth="yes"/>
      <point x="422" y="496"/>
      <point x="517" y="411"/>
    </contour>
  </outline>
</glyph>
<glyph name="g" format="1">
  <advance width="662"/>
  <unicode hex="0067"/>
  <outline>
    <contour>
      <point x="331" y="546" type="move" name="top"/>
    </contour>
    <contour>
      <point x="517" y="273" type="curve" smooth="yes"/>
      <point x="517" y="135"/>
      <point x="422" y="50"/>
      <point x="314" y="50" type="curve" smooth="yes"/>
      <point x="207" y="50"/>
      <point x="112" y="140"/>
      <point x="112" y="278" type="curve" smooth="yes"/>
      <point x="112" y="416"/>
      <point x="207" y="496"/>
      <point x="314" y="496" type="curve" smooth="yes"/>
      <point x="422" y="496"/>
      <point x="517" y="411"/>
    </contour>
    <contour>
      <point x="40" y="278" type="curve" smooth="yes"/>
      <point x="40" y="108"/>
      <point x="154" y="-10"/>
      <point x="304" y="-10" type="curve" smooth="yes"/>
      <point x="408" y="-10"/>
      <point x="483" y="49"/>
      <point x="517" y="120" type="curve"/>
      <point x="517" y="-19" type="line" smooth="yes"/>
      <point x="517" y="-138"/>
      <point x="440" y="-208"/>
      <point x="327" y="-208" type="curve" smooth="yes"/>
      <point x="234" y="-208"/>
      <point x="157" y="-153"/>
      <point x="140" y="-87" type="curve"/>
      <point x="71" y="-87" type="line"/>
      <point x="85" y="-189"/>
      <point x="195" y="-268"/>
      <point x="327" y="-268" type="curve" smooth="yes"/>
      <point x="475" y="-268"/>
      <point x="587" y="-169"/>
      <point x="587" y="-19" type="curve" smooth="yes"/>
      <point x="587" y="546" type="line"/>
      <point x="517" y="546" type="line"/>
      <point x="517" y="427" type="line"/>
      <point x="483" y="498"/>
      <point x="408" y="556"/>
      <point x="304" y="556" type="curve" smooth="yes"/>
      <point x="154" y="556"/>
      <point x="40" y="448"/>
    </contour>
  </outline>
</glyph>
<glyph name="i" format="1">
  <advance width="220"/>
  <unicode hex="0069"/>
  <outline>
    <contour>
      <point x="145" y="1" type="move" name="ogonek"/>
    </contour>
    <contour>
      <point x="75" y="0" type="line"/>
      <point x="145" y="0" type="line"/>
      <point x="145" y="546" type="line"/>
      <point x="75" y="546" type="line"/>
    </contour>
    <contour>
      <point x="111" y="649" type="curve" smooth="yes"/>
      <point x="140" y="649"/>
      <point x="162" y="672"/>
      <point x="162" y="701" type="curve" smooth="yes"/>
      <point x="162" y="729"/>
      <point x="140" y="752"/>
      <point x="111" y="752" type="curve" smooth="yes"/>
      <point x="83" y="752"/>
      <point x="60" y="729"/>
      <point x="60" y="701" type="curve" smooth="yes"/>
      <point x="60" y="672"/>
      <point x="83" y="649"/>
    </contour>
  </outline>
</glyph>
<glyph name="j" format="1">
  <advance width="220"/>
  <unicode hex="006A"/>
  <outline>
    <contour>
      <point x="111" y="649" type="curve" smooth="yes"/>
      <point x="140" y="649"/>
      <point x="162" y="672"/>
      <point x="162" y="701" type="curve" smooth="yes"/>
      <point x="162" y="729"/>
      <point x="140" y="752"/>
      <point x="111" y="752" type="curve" smooth="yes"/>
      <point x="83" y="752"/>
      <point x="60" y="729"/>
      <point x="60" y="701" type="curve" smooth="yes"/>
      <point x="60" y="672"/>
      <point x="83" y="649"/>
    </contour>
    <contour>
      <point x="75" y="546" type="line"/>
      <point x="75" y="-128" type="line" smooth="yes"/>
      <point x="75" y="-182"/>
      <point x="57" y="-202"/>
      <point x="2" y="-202" type="curve" smooth="yes"/>
      <point x="-36" y="-202" type="line"/>
      <point x="-36" y="-258" type="line"/>
      <point x="17" y="-258" type="line" smooth="yes"/>
      <point x="101" y="-258"/>
      <point x="145" y="-216"/>
      <point x="145" y="-128" type="curve" smooth="yes"/>
      <point x="145" y="546" type="line"/>
    </contour>
  </outline>
</glyph>
<glyph name="k" format="1">
  <advance width="476"/>
  <unicode hex="006B"/>
  <outline>
    <contour>
      <point x="238" y="0" type="move" name="bottom"/>
    </contour>
    <contour>
      <point x="75" y="0" type="line"/>
      <point x="145" y="0" type="line"/>
      <point x="145" y="740" type="line"/>
      <point x="75" y="740" type="line"/>
    </contour>
    <contour>
      <point x="119" y="273" type="line"/>
      <point x="370" y="0" type="line"/>
      <point x="466" y="0" type="line"/>
      <point x="187" y="291" type="line"/>
      <point x="180" y="255" type="line"/>
      <point x="466" y="546" type="line"/>
      <point x="365" y="546" type="line"/>
    </contour>
  </outline>
</glyph>
<glyph name="l" format="1">
  <advance width="220"/>
  <unicode hex="006C"/>
  <outline>
    <contour>
      <point x="110" y="10" type="move" name="commaaccent"/>
    </contour>
    <contour>
      <point x="110" y="740" type="move" name="top"/>
    </contour>
    <contour>
      <point x="200" y="546" type="move" name="topright"/>
    </contour>
    <contour>
      <point x="110" y="0" type="move" name="bottom"/>
    </contour>
    <contour>
      <point x="75" y="0" type="line"/>
      <point x="145" y="0" type="line"/>
      <point x="145" y="740" type="line"/>
      <point x="75" y="740" type="line"/>
    </contour>
  </outline>
</glyph>
<glyph name="m" format="1">
  <advance width="1003"/>
  <unicode hex="006D"/>
  <outline>
    <contour>
      <point x="75" y="0" type="line"/>
      <point x="145" y="0" type="line"/>
      <point x="145" y="546" type="line"/>
      <point x="75" y="546" type="line"/>
    </contour>
    <contour>
      <point x="470" y="0" type="line"/>
      <point x="539" y="0" type="line"/>
      <point x="539" y="325" type="line" smooth="yes"/>
      <point x="539" y="482"/>
      <point x="439" y="556"/>
      <point x="326" y="556" type="curve" smooth="yes"/>
      <point x="225" y="556"/>
      <point x="137" y="499"/>
      <point x="117" y="374" type="curve"/>
      <point x="145" y="312" type="line"/>
      <point x="145" y="435"/>
      <point x="210" y="496"/>
      <point x="308" y="496" type="curve" smooth="yes"/>
      <point x="406" y="496"/>
      <point x="470" y="435"/>
      <point x="470" y="312" type="curve" smooth="yes"/>
    </contour>
    <contour>
      <point x="864" y="0" type="line"/>
      <point x="933" y="0" type="line"/>
      <point x="933" y="325" type="line" smooth="yes"/>
      <point x="933" y="482"/>
      <point x="833" y="556"/>
      <point x="720" y="556" type="curve" smooth="yes"/>
      <point x="609" y="556"/>
      <point x="524" y="489"/>
      <point x="498" y="374" type="curve"/>
      <point x="539" y="312" type="line"/>
      <point x="539" y="435"/>
      <point x="604" y="496"/>
      <point x="702" y="496" type="curve" smooth="yes"/>
      <point x="800" y="496"/>
      <point x="864" y="435"/>
      <point x="864" y="312" type="curve" smooth="yes"/>
    </contour>
  </outline>
</glyph>
<glyph name="n" format="1">
  <advance width="609"/>
  <unicode hex="006E"/>
  <outline>
    <contour>
      <point x="305" y="546" type="move" name="top"/>
    </contour>
    <contour>
      <point x="305" y="0" type="move" name="bottom"/>
    </contour>
    <contour>
      <point x="75" y="0" type="line"/>
      <point x="145" y="0" type="line"/>
      <point x="145" y="546" type="line"/>
      <point x="75" y="546" type="line"/>
    </contour>
    <contour>
      <point x="470" y="0" type="line"/>
      <point x="539" y="0" type="line"/>
      <point x="539" y="325" type="line" smooth="yes"/>
      <point x="539" y="482"/>
      <point x="439" y="556"/>
      <point x="326" y="556" type="curve" smooth="yes"/>
      <point x="225" y="556"/>
      <point x="137" y="499"/>
      <point x="117" y="374" type="curve"/>
      <point x="145" y="312" type="line"/>
      <point x="145" y="435"/>
      <point x="210" y="496"/>
      <point x="308" y="496" type="curve" smooth="yes"/>
      <point x="406" y="496"/>
      <point x="470" y="435"/>
      <point x="470" y="312" type="curve" smooth="yes"/>
    </contour>
  </outline>
</glyph>
<glyph name="r" format="1">
  <advance width="353"/>
  <unicode hex="0072"/>
  <outline>
    <contour>
      <point x="217" y="546" type="move" name="top"/>
    </contour>
    <contour>
      <point x="112" y="0" type="move" name="bottom"/>
    </contour>
    <contour>
      <point x="145" y="310" type="line"/>
      <point x="145" y="443"/>
      <point x="204" y="483"/>
      <point x="294" y="483" type="curve" smooth="yes"/>
      <point x="314" y="483" type="line"/>
      <point x="314" y="556" type="line"/>
      <point x="171" y="556"/>
      <point x="119" y="454"/>
      <point x="119" y="310" type="curve"/>
    </contour>
    <contour>
      <point x="75" y="0" type="line"/>
      <point x="145" y="0" type="line"/>
      <point x="145" y="546" type="line"/>
      <point x="75" y="546" type="line"/>
    </contour>
  </outline>
</glyph>
<glyph name="t" format="1">
  <advance width="339"/>
  <unicode hex="0074"/>
  <outline>
    <contour>
      <point x="170" y="0" type="move" name="bottom"/>
    </contour>
    <contour>
      <point x="170" y="780" type="move" name="topright"/>
    </contour>
    <contour>
      <point x="97" y="129" type="line" smooth="yes"/>
      <point x="97" y="41"/>
      <point x="141" y="0"/>
      <point x="225" y="0" type="curve" smooth="yes"/>
      <point x="318" y="0" type="line"/>
      <point x="318" y="55" type="line"/>
      <point x="240" y="55" type="line" smooth="yes"/>
      <point x="185" y="55"/>
      <point x="167" y="75"/>
      <point x="167" y="129" type="curve" smooth="yes"/>
      <point x="167" y="683" type="line"/>
      <point x="97" y="683" type="line"/>
    </contour>
    <contour>
      <point x="318" y="491" type="line"/>
      <point x="318" y="546" type="line"/>
      <point x="21" y="546" type="line"/>
      <point x="21" y="491" type="line"/>
    </contour>
  </outline>
</glyph>
<glyph name="x" format="1">
  <advance width="459"/>
  <unicode hex="0078"/>
  <outline>
    <contour>
      <point x="364" y="0" type="line"/>
      <point x="444" y="0" type="line"/>
      <point x="94" y="546" type="line"/>
      <point x="14" y="546" type="line"/>
    </contour>
    <contour>
      <point x="201" y="291" type="line"/>
      <point x="14" y="0" type="line"/>
      <point x="94" y="0" type="line"/>
      <point x="232" y="234" type="line"/>
    </contour>
    <contour>
      <point x="258" y="255" type="line"/>
      <point x="445" y="546" type="line"/>
      <point x="365" y="546" type="line"/>
      <point x="227" y="312" type="line"/>
    </contour>
  </outline>
</glyph>
<glyph name="y" format="1">
  <advance width="535"/>
  <unicode hex="0079"/>
  <outline>
    <contour>
      <point x="268" y="546" type="move" name="top"/>
    </contour>
    <contour>
      <point x="231" y="8" type="line"/>
      <point x="125" y="-254" type="line"/>
      <point x="196" y="-254" type="line"/>
      <point x="520" y="546" type="line"/>
      <point x="449" y="546" type="line"/>
      <point x="269" y="82" type="line"/>
      <point x="89" y="546" type="line"/>
      <point x="14" y="546" type="line"/>
    </contour>
  </outline>
</glyph>
<glyph name="braceleft" format="1">
  <advance width="556"/>
  <unicode hex="007B"/>
  <outline>
    <contour>
      <point x="224" y="373" type="line"/>
      <point x="297" y="388"/>
      <point x="328" y="446"/>
      <point x="328" y="512" type="curve" smooth="yes"/>
      <point x="328" y="577"/>
      <point x="312" y="618"/>
      <point x="312" y="705" type="curve" smooth="yes"/>
      <point x="312" y="841"/>
      <point x="360" y="916"/>
      <point x="438" y="945" type="curve"/>
      <point x="438" y="961" type="line"/>
      <point x="369" y="961" type="line"/>
      <point x="331" y="944"/>
      <point x="247" y="907"/>
      <point x="247" y="722" type="curve" smooth="yes"/>
      <point x="247" y="650"/>
      <point x="264" y="595"/>
      <point x="264" y="526" type="curve" smooth="yes"/>
      <point x="264" y="481"/>
      <point x="254" y="411"/>
      <point x="163" y="390" type="curve"/>
      <point x="163" y="354" type="line"/>
      <point x="254" y="331"/>
      <point x="264" y="263"/>
      <point x="264" y="218" type="curve" smooth="yes"/>
      <point x="264" y="149"/>
      <point x="247" y="94"/>
      <point x="247" y="22" type="curve" smooth="yes"/>
      <point x="247" y="-163"/>
      <point x="331" y="-200"/>
      <point x="369" y="-217" type="curve"/>
      <point x="438" y="-217" type="line"/>
      <point x="438" y="-201" type="line"/>
      <point x="360" y="-172"/>
      <point x="312" y="-97"/>
      <point x="312" y="39" type="curve" smooth="yes"/>
      <point x="312" y="126"/>
      <point x="328" y="167"/>
      <point x="328" y="232" type="curve" smooth="yes"/>
      <point x="328" y="298"/>
      <point x="301" y="356"/>
      <point x="224" y="371" type="curve"/>
    </contour>
  </outline>
</glyph>
<glyph name="bar" format="1">
  <advance width="280"/>
  <unicode hex="007C"/>
  <outline>
    <contour>
      <point x="105" y="790" type="line"/>
      <point x="105" y="-100" type="line"/>
      <point x="175" y="-100" type="line"/>
      <point x="175" y="790" type="line"/>
    </contour>
  </outline>
</glyph>
<glyph name="braceright" format="1">
  <advance width="556"/>
  <unicode hex="007D"/>
  <outline>
    <contour>
      <point x="332" y="371" type="line"/>
      <point x="255" y="356"/>
      <point x="228" y="298"/>
      <point x="228" y="232" type="curve" smooth="yes"/>
      <point x="228" y="167"/>
      <point x="244" y="126"/>
      <point x="244" y="39" type="curve" smooth="yes"/>
      <point x="244" y="-97"/>
      <point x="196" y="-172"/>
      <point x="118" y="-201" type="curve"/>
      <point x="118" y="-217" type="line"/>
      <point x="187" y="-217" type="line"/>
      <point x="225" y="-200"/>
      <point x="309" y="-163"/>
      <point x="309" y="22" type="curve" smooth="yes"/>
      <point x="309" y="94"/>
      <point x="292" y="149"/>
      <point x="292" y="218" type="curve" smooth="yes"/>
      <point x="292" y="263"/>
      <point x="302" y="331"/>
      <point x="393" y="354" type="curve"/>
      <point x="393" y="390" type="line"/>
      <point x="302" y="411"/>
      <point x="292" y="481"/>
      <point x="292" y="526" type="curve" smooth="yes"/>
      <point x="292" y="595"/>
      <point x="309" y="650"/>
      <point x="309" y="722" type="curve" smooth="yes"/>
      <point x="309" y="907"/>
      <point x="225" y="944"/>
      <point x="187" y="961" type="curve"/>
      <point x="118" y="961" type="line"/>
      <point x="118" y="945" type="line"/>
      <point x="196" y="916"/>
      <point x="244" y="841"/>
      <point x="244" y="705" type="curve" smooth="yes"/>
      <point x="244" y="618"/>
      <point x="228" y="577"/>
      <point x="228" y="512" type="curve" smooth="yes"/>
      <point x="228" y="446"/>
      <point x="259" y="388"/>
      <point x="332" y="373" type="curve"/>
    </contour>
  </outline>
</glyph>
<glyph name="asciitilde" format="1">
  <advance width="491"/>
  <unicode hex="007E"/>
  <outline>
    <contour>
      <point x="40" y="262" type="curve"/>
      <point x="93" y="262" type="line"/>
      <point x="98" y="300"/>
      <point x="134" y="322"/>
      <point x="165" y="322" type="curve"/>
      <point x="224" y="322"/>
      <point x="246" y="258"/>
      <point x="319" y="258" type="curve" smooth="yes"/>
      <point x="383" y="258"/>
      <point x="435" y="296"/>
      <point x="451" y="382" type="curve"/>
      <point x="398" y="382" type="line"/>
      <point x="393" y="344"/>
      <point x="357" y="322"/>
      <point x="326" y="322" type="curve" smooth="yes"/>
      <point x="268" y="322"/>
      <point x="245" y="386"/>
      <point x="172" y="386" type="curve" smooth="yes"/>
      <point x="108" y="386"/>
      <point x="56" y="348"/>
    </contour>
  </outline>
</glyph>
<glyph name="guillemotleft" format="1">
  <advance width="435"/>
  <unicode hex="00AB"/>
  <outline>
    <contour>
      <point x="113" y="295" type="line"/>
      <point x="215" y="470" type="line"/>
      <point x="144" y="470" type="line"/>
      <point x="45" y="295" type="line"/>
      <point x="144" y="120" type="line"/>
      <point x="215" y="120" type="line"/>
    </contour>
    <contour>
      <point x="283" y="295" type="line"/>
      <point x="385" y="470" type="line"/>
      <point x="314" y="470" type="line"/>
      <point x="215" y="295" type="line"/>
      <point x="314" y="120" type="line"/>
      <point x="385" y="120" type="line"/>
    </contour>
  </outline>
</glyph>
<glyph name="registered" format="1">
  <advance width="790"/>
  <unicode hex="00AE"/>
  <outline>
    <contour>
      <point x="740" y="344" type="curve" smooth="yes"/>
      <point x="740" y="137"/>
      <point x="600" y="-10"/>
      <point x="395" y="-10" type="curve" smooth="yes"/>
      <point x="190" y="-10"/>
      <point x="50" y="137"/>
      <point x="50" y="344" type="curve" smooth="yes"/>
      <point x="50" y="551"/>
      <point x="190" y="697"/>
      <point x="395" y="697" type="curve" smooth="yes"/>
      <point x="600" y="697"/>
      <point x="740" y="551"/>
    </contour>
    <contour>
      <point x="91" y="344" type="curve" smooth="yes"/>
      <point x="91" y="154"/>
      <point x="208" y="26"/>
      <point x="395" y="26" type="curve" smooth="yes"/>
      <point x="582" y="26"/>
      <point x="699" y="154"/>
      <point x="699" y="344" type="curve" smooth="yes"/>
      <point x="699" y="536"/>
      <point x="582" y="661"/>
      <point x="395" y="661" type="curve" smooth="yes"/>
      <point x="208" y="661"/>
      <point x="91" y="536"/>
    </contour>
    <contour>
      <point x="512" y="452" type="curve" smooth="yes"/>
      <point x="512" y="393"/>
      <point x="480" y="354"/>
      <point x="399" y="354" type="curve" smooth="yes"/>
      <point x="303" y="354" type="line"/>
      <point x="303" y="550" type="line"/>
      <point x="399" y="550" type="line" smooth="yes"/>
      <point x="480" y="550"/>
      <point x="512" y="513"/>
    </contour>
    <contour>
      <point x="255" y="589" type="line"/>
      <point x="255" y="118" type="line"/>
      <point x="303" y="118" type="line"/>
      <point x="303" y="315" type="line"/>
      <point x="399" y="315" type="line" smooth="yes"/>
      <point x="510" y="315"/>
      <point x="561" y="374"/>
      <point x="561" y="452" type="curve" smooth="yes"/>
      <point x="561" y="531"/>
      <point x="509" y="589"/>
      <point x="399" y="589" type="curve" smooth="yes"/>
    </contour>
    <contour>
      <point x="365" y="333" type="line"/>
      <point x="505" y="118" type="line"/>
      <point x="567" y="118" type="line"/>
      <point x="423" y="333" type="line"/>
    </contour>
  </outline>
</glyph>
<glyph name="macron" format="1">
  <advance width="359"/>
  <unicode hex="00AF"/>
  <outline>
    <contour>
      <point x="180" y="546" type="move" name="_top"/>
    </contour>
    <contour>
      <point x="10" y="640" type="line"/>
      <point x="349" y="640" type="line"/>
      <point x="349" y="700" type="line"/>
      <point x="10" y="700" type="line"/>
    </contour>
  </outline>
</glyph>
<glyph name="degree" format="1">
  <advance width="398"/>
  <unicode hex="00B0"/>
  <outline>
    <contour>
      <point x="30" y="522" type="curve" smooth="yes"/>
      <point x="30" y="416"/>
      <point x="97" y="347"/>
      <point x="193" y="347" type="curve" smooth="yes"/>
      <point x="289" y="347"/>
      <point x="368" y="416"/>
      <point x="368" y="522" type="curve" smooth="yes"/>
      <point x="368" y="628"/>
      <point x="294" y="697"/>
      <point x="199" y="697" type="curve" smooth="yes"/>
      <point x="104" y="697"/>
      <point x="30" y="628"/>
    </contour>
    <contour>
      <point x="310" y="522" type="curve" smooth="yes"/>
      <point x="310" y="437"/>
      <point x="253" y="393"/>
      <point x="194" y="393" type="curve" smooth="yes"/>
      <point x="134" y="393"/>
      <point x="87" y="437"/>
      <point x="87" y="522" type="curve" smooth="yes"/>
      <point x="87" y="606"/>
      <point x="137" y="652"/>
      <point x="197" y="652" type="curve" smooth="yes"/>
      <point x="257" y="652"/>
      <point x="310" y="606"/>
    </contour>
  </outline>
</glyph>
<glyph name="twosuperior" format="1">
  <advance width="306"/>
  <unicode hex="00B2"/>
  <outline>
    <contour>
      <point x="20" y="616" type="curve"/>
      <point x="78" y="616" type="line"/>
      <point x="83" y="642"/>
      <point x="101" y="660"/>
      <point x="133" y="660" type="curve" smooth="yes"/>
      <point x="165" y="660"/>
      <point x="192" y="635"/>
      <point x="192" y="594" type="curve" smooth="yes"/>
      <point x="192" y="547"/>
      <point x="162" y="511"/>
      <point x="118" y="473" type="curve"/>
      <point x="21" y="391" type="line"/>
      <point x="21" y="352" type="line"/>
      <point x="258" y="352" type="line"/>
      <point x="258" y="402" type="line"/>
      <point x="69" y="402" type="line"/>
      <point x="62" y="375" type="line"/>
      <point x="165" y="455" type="line"/>
      <point x="226" y="506"/>
      <point x="253" y="543"/>
      <point x="253" y="594" type="curve" smooth="yes"/>
      <point x="253" y="656"/>
      <point x="205" y="709"/>
      <point x="133" y="709" type="curve" smooth="yes"/>
      <point x="61" y="709"/>
      <point x="24" y="667"/>
    </contour>
  </outline>
</glyph>
<glyph name="paragraph" format="1">
  <advance width="569"/>
  <unicode hex="00B6"/>
  <outline>
    <contour>
      <point x="276" y="690" type="line" smooth="yes"/>
      <point x="116" y="690"/>
      <point x="40" y="604"/>
      <point x="40" y="489" type="curve" smooth="yes"/>
      <point x="40" y="375"/>
      <point x="114" y="289"/>
      <point x="276" y="289" type="curve" smooth="yes"/>
      <point x="284" y="289" type="line"/>
      <point x="284" y="0" type="line"/>
      <point x="354" y="0" type="line"/>
      <point x="354" y="633" type="line"/>
      <point x="424" y="633" type="line"/>
      <point x="424" y="0" type="line"/>
      <point x="494" y="0" type="line"/>
      <point x="494" y="690" type="line"/>
    </contour>
  </outline>
</glyph>
<glyph name="cedilla" format="1">
  <advance width="253"/>
  <unicode hex="00B8"/>
  <outline>
    <contour>
      <point x="85" y="0" type="move" name="_bottom"/>
    </contour>
    <contour>
      <point x="113" y="7" type="line"/>
      <point x="60" y="7" type="line"/>
      <point x="60" y="-112" type="line"/>
      <point x="115" y="-112" type="line" smooth="yes"/>
      <point x="150" y="-112"/>
      <point x="171" y="-127"/>
      <point x="171" y="-157" type="curve" smooth="yes"/>
      <point x="171" y="-187"/>
      <point x="150" y="-203"/>
      <point x="115" y="-203" type="curve" smooth="yes"/>
      <point x="10" y="-203" type="line"/>
      <point x="10" y="-258" type="line"/>
      <point x="117" y="-258" type="line" smooth="yes"/>
      <point x="193" y="-258"/>
      <point x="243" y="-217"/>
      <point x="243" y="-157" type="curve" smooth="yes"/>
      <point x="243" y="-97"/>
      <point x="193" y="-57"/>
      <point x="113" y="-57" type="curve"/>
    </contour>
  </outline>
</glyph>
<glyph name="onesuperior" format="1">
  <advance width="177"/>
  <unicode hex="00B9"/>
  <outline>
    <contour>
      <point x="69" y="352" type="line"/>
      <point x="127" y="352" type="line"/>
      <point x="127" y="704" type="line"/>
      <point x="20" y="704" type="line"/>
      <point x="20" y="661" type="line"/>
      <point x="69" y="661" type="line"/>
    </contour>
  </outline>
</glyph>
<glyph name="guillemotright" format="1">
  <advance width="435"/>
  <unicode hex="00BB"/>
  <outline>
    <contour>
      <point x="291" y="120" type="line"/>
      <point x="390" y="295" type="line"/>
      <point x="291" y="470" type="line"/>
      <point x="220" y="470" type="line"/>
      <point x="322" y="295" type="line"/>
      <point x="220" y="120" type="line"/>
    </contour>
    <contour>
      <point x="121" y="120" type="line"/>
      <point x="220" y="295" type="line"/>
      <point x="121" y="470" type="line"/>
      <point x="50" y="470" type="line"/>
      <point x="152" y="295" type="line"/>
      <point x="50" y="120" type="line"/>
    </contour>
  </outline>
</glyph>
<glyph name="onequarter" format="1">
  <advance width="600"/>
  <unicode hex="00BC"/>
  <outline>
    <contour>
      <point x="44" y="0" type="line"/>
      <point x="44" y="0"/>
      <point x="106" y="0"/>
      <point x="106" y="0" type="curve"/>
      <point x="486" y="690" type="line"/>
      <point x="486" y="690"/>
      <point x="424" y="690"/>
      <point x="424" y="690" type="curve"/>
    </contour>
    <contour>
      <point x="505" y="113" type="line"/>
      <point x="505" y="354" type="line"/>
      <point x="432" y="354" type="line"/>
      <point x="269" y="106" type="line"/>
      <point x="269" y="71" type="line"/>
      <point x="447" y="71" type="line"/>
      <point x="447" y="0" type="line"/>
      <point x="505" y="0" type="line"/>
      <point x="505" y="71" type="line"/>
      <point x="555" y="71" type="line"/>
      <point x="555" y="113" type="line"/>
    </contour>
    <contour>
      <point x="331" y="113" type="line"/>
      <point x="447" y="292" type="line"/>
      <point x="447" y="113" type="line"/>
    </contour>
    <component base="onesuperior" xOffset="10"/>
  </outline>
</glyph>
<glyph name="onehalf" format="1">
  <advance width="607"/>
  <unicode hex="00BD"/>
  <outline>
    <contour>
      <point x="44" y="0" type="line"/>
      <point x="44" y="0"/>
      <point x="106" y="0"/>
      <point x="106" y="0" type="curve"/>
      <point x="466" y="690" type="line"/>
      <point x="466" y="690"/>
      <point x="404" y="690"/>
      <point x="404" y="690" type="curve"/>
    </contour>
    <component base="onesuperior" xOffset="10"/>
    <component base="twosuperior" xOffset="319" yOffset="-353"/>
  </outline>
</glyph>
<glyph name="threequarters" format="1">
  <advance width="625"/>
  <unicode hex="00BE"/>
  <outline>
    <contour>
      <point x="88" y="0" type="line"/>
      <point x="88" y="0"/>
      <point x="150" y="0"/>
      <point x="150" y="0" type="curve"/>
      <point x="566" y="690" type="line"/>
      <point x="566" y="690"/>
      <point x="504" y="690"/>
      <point x="504" y="690" type="curve"/>
    </contour>
    <contour>
      <point x="545" y="113" type="line"/>
      <point x="545" y="354" type="line"/>
      <point x="472" y="354" type="line"/>
      <point x="309" y="106" type="line"/>
      <point x="309" y="71" type="line"/>
      <point x="487" y="71" type="line"/>
      <point x="487" y="0" type="line"/>
      <point x="545" y="0" type="line"/>
      <point x="545" y="71" type="line"/>
      <point x="595" y="71" type="line"/>
      <point x="595" y="113" type="line"/>
    </contour>
    <contour>
      <point x="371" y="113" type="line"/>
      <point x="487" y="292" type="line"/>
      <point x="487" y="113" type="line"/>
    </contour>
    <component base="threesuperior"/>
  </outline>
</glyph>
<glyph name="multiply" format="1">
  <advance width="736"/>
  <unicode hex="00D7"/>
  <outline>
    <contour>
      <point x="163" y="533" type="line"/>
      <point x="532" y="163" type="line"/>
      <point x="575" y="206" type="line"/>
      <point x="206" y="576" type="line"/>
    </contour>
    <contour>
      <point x="206" y="163" type="line"/>
      <point x="576" y="530" type="line"/>
      <point x="530" y="576" type="line"/>
      <point x="160" y="209" type="line"/>
    </contour>
  </outline>
</glyph>
<glyph name="Oslash" format="1">
  <advance width="781"/>
  <unicode hex="00D8"/>
  <outline>
    <contour>
      <point x="29" y="0" type="line"/>
      <point x="110" y="0" type="line"/>
      <point x="753" y="690" type="line"/>
      <point x="672" y="690" type="line"/>
    </contour>
    <component base="O"/>
  </outline>
</glyph>
<glyph name="ae" format="1">
  <advance width="1080"/>
  <unicode hex="00E6"/>
  <outline>
    <contour>
      <point x="567" y="248" type="line"/>
      <point x="1037" y="248" type="line"/>
      <point x="1040" y="267"/>
      <point x="1041" y="285"/>
      <point x="1041" y="302" type="curve" smooth="yes"/>
      <point x="1041" y="443"/>
      <point x="942" y="556"/>
      <point x="787" y="556" type="curve" smooth="yes"/>
      <point x="701" y="556"/>
      <point x="637" y="532"/>
      <point x="584" y="453" type="curve"/>
      <point x="584" y="546" type="line"/>
      <point x="514" y="546" type="line"/>
      <point x="514" y="453" type="line"/>
      <point x="466" y="530"/>
      <point x="397" y="556"/>
      <point x="314" y="556" type="curve" smooth="yes"/>
      <point x="154" y="556"/>
      <point x="40" y="448"/>
      <point x="40" y="278" type="curve" smooth="yes"/>
      <point x="40" y="108"/>
      <point x="154" y="-10"/>
      <point x="304" y="-10" type="curve" smooth="yes"/>
      <point x="397" y="-10"/>
      <point x="474" y="36"/>
      <point x="514" y="97" type="curve"/>
      <point x="514" y="0" type="line"/>
      <point x="584" y="0" type="line"/>
      <point x="584" y="96" type="line"/>
      <point x="625" y="32"/>
      <point x="696" y="-10"/>
      <point x="778" y="-10" type="curve" smooth="yes"/>
      <point x="913" y="-10"/>
      <point x="990" y="67"/>
      <point x="1022" y="151" type="curve"/>
      <point x="947" y="151" type="line"/>
      <point x="925" y="92"/>
      <point x="871" y="46"/>
      <point x="783" y="46" type="curve" smooth="yes"/>
      <point x="675" y="46"/>
      <point x="581" y="133"/>
      <point x="581" y="269" type="curve" smooth="yes"/>
      <point x="581" y="275" type="line" smooth="yes"/>
      <point x="581" y="412"/>
      <point x="675" y="500"/>
      <point x="783" y="500" type="curve" smooth="yes"/>
      <point x="890" y="500"/>
      <point x="969" y="426"/>
      <point x="969" y="303" type="curve"/>
      <point x="567" y="303" type="line"/>
    </contour>
    <contour>
      <point x="112" y="278" type="curve" smooth="yes"/>
      <point x="112" y="416"/>
      <point x="207" y="496"/>
      <point x="314" y="496" type="curve" smooth="yes"/>
      <point x="422" y="496"/>
      <point x="517" y="411"/>
      <point x="517" y="273" type="curve" smooth="yes"/>
      <point x="517" y="135"/>
      <point x="422" y="50"/>
      <point x="314" y="50" type="curve" smooth="yes"/>
      <point x="207" y="50"/>
      <point x="112" y="140"/>
    </contour>
  </outline>
</glyph>
<glyph name="divide" format="1">
  <advance width="735"/>
  <unicode hex="00F7"/>
  <outline>
    <contour>
      <point x="383" y="108" type="curve" smooth="yes"/>
      <point x="410" y="108"/>
      <point x="432" y="130"/>
      <point x="432" y="157" type="curve" smooth="yes"/>
      <point x="432" y="184"/>
      <point x="410" y="206"/>
      <point x="383" y="206" type="curve" smooth="yes"/>
      <point x="356" y="206"/>
      <point x="334" y="184"/>
      <point x="334" y="157" type="curve" smooth="yes"/>
      <point x="334" y="130"/>
      <point x="356" y="108"/>
    </contour>
    <contour>
      <point x="383" y="534" type="curve" smooth="yes"/>
      <point x="410" y="534"/>
      <point x="432" y="556"/>
      <point x="432" y="583" type="curve" smooth="yes"/>
      <point x="432" y="610"/>
      <point x="410" y="632"/>
      <point x="383" y="632" type="curve" smooth="yes"/>
      <point x="356" y="632"/>
      <point x="334" y="610"/>
      <point x="334" y="583" type="curve" smooth="yes"/>
      <point x="334" y="556"/>
      <point x="356" y="534"/>
    </contour>
    <contour>
      <point x="128" y="340" type="line"/>
      <point x="637" y="340" type="line"/>
      <point x="637" y="400" type="line"/>
      <point x="128" y="400" type="line"/>
    </contour>
  </outline>
</glyph>
<glyph name="oslash" format="1">
  <advance width="626"/>
  <unicode hex="00F8"/>
  <outline>
    <contour>
      <point x="30" y="0" type="line"/>
      <point x="99" y="0" type="line"/>
      <point x="596" y="546" type="line"/>
      <point x="527" y="546" type="line"/>
    </contour>
    <component base="o"/>
  </outline>
</glyph>
<glyph name="dcroat" format="1">
  <advance width="662"/>
  <unicode hex="0111"/>
  <outline>
    <contour>
      <point x="430" y="590" type="line"/>
      <point x="649" y="590" type="line"/>
      <point x="649" y="643" type="line"/>
      <point x="430" y="643" type="line"/>
    </contour>
    <component base="d"/>
  </outline>
</glyph>
<glyph name="eogonek" format="1">
  <advance width="605"/>
  <unicode hex="0119"/>
  <outline>
    <contour>
      <point x="40" y="273" type="curve" smooth="yes"/>
      <point x="40" y="109"/>
      <point x="140" y="-1"/>
      <point x="285" y="-10" type="curve"/>
      <point x="282" y="-19"/>
      <point x="280" y="-30"/>
      <point x="280" y="-42" type="curve" smooth="yes"/>
      <point x="280" y="-102"/>
      <point x="330" y="-143"/>
      <point x="406" y="-143" type="curve" smooth="yes"/>
      <point x="483" y="-143" type="line"/>
      <point x="483" y="-88" type="line"/>
      <point x="408" y="-88" type="line" smooth="yes"/>
      <point x="373" y="-88"/>
      <point x="352" y="-72"/>
      <point x="352" y="-42" type="curve" smooth="yes"/>
      <point x="352" y="-15"/>
      <point x="372" y="-5"/>
      <point x="402" y="6" type="curve" smooth="yes"/>
      <point x="478" y="35"/>
      <point x="524" y="90"/>
      <point x="547" y="151" type="curve"/>
      <point x="472" y="151" type="line"/>
      <point x="450" y="92"/>
      <point x="391" y="46"/>
      <point x="303" y="46" type="curve" smooth="yes"/>
      <point x="195" y="46"/>
      <point x="112" y="123"/>
      <point x="112" y="259" type="curve" smooth="yes"/>
      <point x="112" y="285" type="line" smooth="yes"/>
      <point x="112" y="422"/>
      <point x="195" y="500"/>
      <point x="303" y="500" type="curve" smooth="yes"/>
      <point x="410" y="500"/>
      <point x="494" y="426"/>
      <point x="494" y="303" type="curve"/>
      <point x="101" y="303" type="line"/>
      <point x="101" y="248" type="line"/>
      <point x="562" y="248" type="line"/>
      <point x="565" y="267"/>
      <point x="566" y="285"/>
      <point x="566" y="302" type="curve" smooth="yes"/>
      <point x="566" y="443"/>
      <point x="467" y="556"/>
      <point x="312" y="556" type="curve" smooth="yes"/>
      <point x="148" y="556"/>
      <point x="40" y="444"/>
    </contour>
  </outline>
</glyph>
<glyph name="Lslash" format="1">
  <advance width="416"/>
  <unicode hex="0141"/>
  <outline>
    <contour>
      <point x="0" y="281" type="line"/>
      <point x="280" y="391" type="line"/>
      <point x="280" y="451" type="line"/>
      <point x="0" y="341" type="line"/>
    </contour>
    <contour>
      <point x="95" y="690" type="line"/>
      <point x="95" y="0" type="line"/>
      <point x="416" y="0" type="line"/>
      <point x="416" y="54" type="line"/>
      <point x="165" y="54" type="line"/>
      <point x="165" y="690" type="line"/>
    </contour>
  </outline>
</glyph>
<glyph name="OE" format="1">
  <advance width="1082"/>
  <unicode hex="0152"/>
  <outline>
    <contour>
      <point x="391" y="690" type="move" name="top"/>
    </contour>
    <contour>
      <point x="111" y="345" type="curve" smooth="yes"/>
      <point x="111" y="523"/>
      <point x="233" y="636"/>
      <point x="391" y="636" type="curve" smooth="yes"/>
      <point x="549" y="636"/>
      <point x="670" y="523"/>
      <point x="670" y="345" type="curve" smooth="yes"/>
      <point x="670" y="168"/>
      <point x="549" y="53"/>
      <point x="391" y="53" type="curve" smooth="yes"/>
      <point x="233" y="53"/>
      <point x="111" y="168"/>
    </contour>
    <contour>
      <point x="1021" y="633" type="line"/>
      <point x="1021" y="690" type="line"/>
      <point x="670" y="690" type="line"/>
      <point x="670" y="542" type="line"/>
      <point x="607" y="649"/>
      <point x="507" y="697"/>
      <point x="391" y="697" type="curve" smooth="yes"/>
      <point x="199" y="697"/>
      <point x="40" y="555"/>
      <point x="40" y="345" type="curve" smooth="yes"/>
      <point x="40" y="139"/>
      <point x="196" y="-7"/>
      <point x="391" y="-7" type="curve" smooth="yes"/>
      <point x="507" y="-7"/>
      <point x="607" y="41"/>
      <point x="670" y="148" type="curve"/>
      <point x="670" y="0" type="line"/>
      <point x="1021" y="0" type="line"/>
      <point x="1021" y="56" type="line"/>
      <point x="740" y="56" type="line"/>
      <point x="740" y="319" type="line"/>
      <point x="991" y="319" type="line"/>
      <point x="991" y="375" type="line"/>
      <point x="740" y="375" type="line"/>
      <point x="740" y="633" type="line"/>
    </contour>
  </outline>
</glyph>
<glyph name="Tcedilla" format="1">
  <advance width="529"/>
  <unicode hex="0162"/>
  <outline>
    <contour>
      <point x="49" y="633" type="line"/>
      <point x="230" y="633" type="line"/>
      <point x="230" y="-55" type="line"/>
      <point x="301" y="-55" type="line" smooth="yes"/>
      <point x="336" y="-55"/>
      <point x="357" y="-70"/>
      <point x="357" y="-100" type="curve" smooth="yes"/>
      <point x="357" y="-130"/>
      <point x="336" y="-146"/>
      <point x="301" y="-146" type="curve" smooth="yes"/>
      <point x="166" y="-146" type="line"/>
      <point x="166" y="-201" type="line"/>
      <point x="303" y="-201" type="line" smooth="yes"/>
      <point x="379" y="-201"/>
      <point x="429" y="-160"/>
      <point x="429" y="-100" type="curve" smooth="yes"/>
      <point x="429" y="-34"/>
      <point x="369" y="7"/>
      <point x="276" y="-1" type="curve"/>
      <point x="299" y="-26" type="line"/>
      <point x="299" y="633" type="line"/>
      <point x="480" y="633" type="line"/>
      <point x="480" y="690" type="line"/>
      <point x="49" y="690" type="line"/>
    </contour>
  </outline>
</glyph>
<glyph name="tcedilla" format="1">
  <advance width="339"/>
  <unicode hex="0163"/>
  <outline>
    <contour>
      <point x="97" y="129" type="line" smooth="yes"/>
      <point x="97" y="41"/>
      <point x="141" y="0"/>
      <point x="225" y="0" type="curve" smooth="yes"/>
      <point x="318" y="0" type="line"/>
      <point x="318" y="55" type="line"/>
      <point x="240" y="55" type="line" smooth="yes"/>
      <point x="185" y="55"/>
      <point x="167" y="75"/>
      <point x="167" y="129" type="curve" smooth="yes"/>
      <point x="167" y="683" type="line"/>
      <point x="97" y="683" type="line"/>
    </contour>
    <contour>
      <point x="318" y="491" type="line"/>
      <point x="318" y="546" type="line"/>
      <point x="21" y="546" type="line"/>
      <point x="21" y="491" type="line"/>
    </contour>
    <contour>
      <point x="198" y="47" type="line"/>
      <point x="145" y="47" type="line"/>
      <point x="145" y="-112" type="line"/>
      <point x="200" y="-112" type="line" smooth="yes"/>
      <point x="235" y="-112"/>
      <point x="256" y="-127"/>
      <point x="256" y="-157" type="curve" smooth="yes"/>
      <point x="256" y="-187"/>
      <point x="235" y="-203"/>
      <point x="200" y="-203" type="curve" smooth="yes"/>
      <point x="95" y="-203" type="line"/>
      <point x="95" y="-258" type="line"/>
      <point x="202" y="-258" type="line" smooth="yes"/>
      <point x="278" y="-258"/>
      <point x="328" y="-217"/>
      <point x="328" y="-157" type="curve" smooth="yes"/>
      <point x="328" y="-97"/>
      <point x="278" y="-57"/>
      <point x="198" y="-57" type="curve"/>
    </contour>
  </outline>
</glyph>
<glyph name="florin" format="1">
  <advance width="328"/>
  <unicode hex="0192"/>
  <outline>
    <contour>
      <point x="32" y="491" type="line"/>
      <point x="305" y="491" type="line"/>
      <point x="310" y="546" type="line"/>
      <point x="37" y="546" type="line"/>
    </contour>
    <contour>
      <point x="119" y="599" type="curve" smooth="yes"/>
      <point x="50" y="-50" type="line" smooth="yes"/>
      <point x="45" y="-104"/>
      <point x="25" y="-124"/>
      <point x="-14" y="-124" type="curve" smooth="yes"/>
      <point x="-30" y="-124" type="line"/>
      <point x="-36" y="-179" type="line"/>
      <point x="-11" y="-179" type="line" smooth="yes"/>
      <point x="73" y="-179"/>
      <point x="111" y="-139"/>
      <point x="120" y="-50" type="curve" smooth="yes"/>
      <point x="189" y="599" type="line" smooth="yes"/>
      <point x="197" y="675"/>
      <point x="229" y="707"/>
      <point x="319" y="707" type="curve"/>
      <point x="325" y="763" type="line"/>
      <point x="194" y="763"/>
      <point x="131" y="714"/>
    </contour>
  </outline>
</glyph>
<glyph name="caron" format="1">
  <advance width="288"/>
  <unicode hex="02C7"/>
  <outline>
    <contour>
      <point x="144" y="546" type="move" name="_top"/>
    </contour>
    <contour>
      <point x="144" y="661" type="line"/>
      <point x="10" y="746" type="line"/>
      <point x="10" y="680" type="line"/>
      <point x="144" y="598" type="line"/>
      <point x="278" y="680" type="line"/>
      <point x="278" y="746" type="line"/>
    </contour>
  </outline>
</glyph>
<glyph name="dotaccent" format="1">
  <advance width="118"/>
  <unicode hex="02D9"/>
  <outline>
    <contour>
      <point x="59" y="546" type="move" name="_top"/>
    </contour>
    <contour>
      <point x="59" y="620" type="curve" smooth="yes"/>
      <point x="86" y="620"/>
      <point x="108" y="642"/>
      <point x="108" y="669" type="curve" smooth="yes"/>
      <point x="108" y="696"/>
      <point x="86" y="718"/>
      <point x="59" y="718" type="curve" smooth="yes"/>
      <point x="32" y="718"/>
      <point x="10" y="696"/>
      <point x="10" y="669" type="curve" smooth="yes"/>
      <point x="10" y="642"/>
      <point x="32" y="620"/>
    </contour>
  </outline>
</glyph>
<glyph name="ring" format="1">
  <advance width="220"/>
  <unicode hex="02DA"/>
  <outline>
    <contour>
      <point x="110" y="546" type="move" name="_top"/>
    </contour>
    <contour>
      <point x="10" y="710" type="curve" smooth="yes"/>
      <point x="10" y="648"/>
      <point x="55" y="610"/>
      <point x="110" y="610" type="curve" smooth="yes"/>
      <point x="165" y="610"/>
      <point x="210" y="648"/>
      <point x="210" y="710" type="curve" smooth="yes"/>
      <point x="210" y="772"/>
      <point x="165" y="810"/>
      <point x="110" y="810" type="curve" smooth="yes"/>
      <point x="55" y="810"/>
      <point x="10" y="772"/>
    </contour>
    <contour>
      <point x="164" y="711" type="curve" smooth="yes"/>
      <point x="164" y="679"/>
      <point x="140" y="657"/>
      <point x="110" y="657" type="curve" smooth="yes"/>
      <point x="80" y="657"/>
      <point x="57" y="679"/>
      <point x="57" y="711" type="curve" smooth="yes"/>
      <point x="57" y="743"/>
      <point x="80" y="764"/>
      <point x="110" y="764" type="curve" smooth="yes"/>
      <point x="140" y="764"/>
      <point x="164" y="743"/>
    </contour>
  </outline>
</glyph>
<glyph name="hungarumlaut" format="1">
  <advance width="304"/>
  <unicode hex="02DD"/>
  <outline>
    <contour>
      <point x="112" y="546" type="move" name="_top"/>
    </contour>
    <contour>
      <point x="224" y="740" type="line"/>
      <point x="149" y="601" type="line"/>
      <point x="199" y="601" type="line"/>
      <point x="294" y="740" type="line"/>
    </contour>
    <contour>
      <point x="75" y="740" type="line"/>
      <point x="10" y="601" type="line"/>
      <point x="60" y="601" type="line"/>
      <point x="145" y="740" type="line"/>
    </contour>
  </outline>
</glyph>
<glyph name="pi" format="1">
  <advance width="706"/>
  <unicode hex="03C0"/>
  <outline>
    <contour>
      <point x="40" y="489" type="line"/>
      <point x="121" y="489" type="line"/>
      <point x="121" y="0" type="line"/>
      <point x="190" y="0" type="line"/>
      <point x="190" y="489" type="line"/>
      <point x="506" y="489" type="line"/>
      <point x="506" y="0" type="line"/>
      <point x="575" y="0" type="line"/>
      <point x="575" y="489" type="line"/>
      <point x="656" y="489" type="line"/>
      <point x="656" y="546" type="line"/>
      <point x="40" y="546" type="line"/>
    </contour>
  </outline>
</glyph>
<glyph name="dvCandrabindu" format="1">
  <advance width="0"/>
  <unicode hex="0901"/>
  <outline>
    <contour>
      <point x="-100" y="740" type="move" name="_abvm.e"/>
    </contour>
    <contour>
      <point x="48" y="987" type="curve"/>
      <point x="-12" y="987" type="line"/>
      <point x="-12" y="931"/>
      <point x="-46" y="874"/>
      <point x="-132" y="874" type="curve" smooth="yes"/>
      <point x="-218" y="874"/>
      <point x="-252" y="931"/>
      <point x="-252" y="987" type="curve"/>
      <point x="-312" y="987" type="line"/>
      <point x="-312" y="899"/>
      <point x="-263" y="819"/>
      <point x="-132" y="819" type="curve" smooth="yes"/>
      <point x="-1" y="819"/>
      <point x="48" y="899"/>
    </contour>
    <contour>
      <point x="-132" y="968" type="curve" smooth="yes"/>
      <point x="-105" y="968"/>
      <point x="-83" y="990"/>
      <point x="-83" y="1017" type="curve" smooth="yes"/>
      <point x="-83" y="1044"/>
      <point x="-105" y="1066"/>
      <point x="-132" y="1066" type="curve" smooth="yes"/>
      <point x="-159" y="1066"/>
      <point x="-181" y="1044"/>
      <point x="-181" y="1017" type="curve" smooth="yes"/>
      <point x="-181" y="990"/>
      <point x="-159" y="968"/>
    </contour>
  </outline>
</glyph>
<glyph name="dvAnusvara" format="1">
  <advance width="0"/>
  <unicode hex="0902"/>
  <outline>
    <contour>
      <point x="-100" y="740" type="move" name="_abvm.e"/>
    </contour>
    <contour>
      <point x="-132" y="841" type="curve" smooth="yes"/>
      <point x="-105" y="841"/>
      <point x="-83" y="863"/>
      <point x="-83" y="890" type="curve" smooth="yes"/>
      <point x="-83" y="917"/>
      <point x="-105" y="939"/>
      <point x="-132" y="939" type="curve" smooth="yes"/>
      <point x="-159" y="939"/>
      <point x="-181" y="917"/>
      <point x="-181" y="890" type="curve" smooth="yes"/>
      <point x="-181" y="863"/>
      <point x="-159" y="841"/>
    </contour>
  </outline>
</glyph>
<glyph name="dvA" format="1">
  <advance width="822"/>
  <unicode hex="0905"/>
  <outline>
    <contour>
      <point x="657" y="0" type="line"/>
      <point x="722" y="0" type="line"/>
      <point x="722" y="680" type="line"/>
      <point x="862" y="680" type="line"/>
      <point x="862" y="740" type="line"/>
      <point x="657" y="740" type="line"/>
      <point x="657" y="399" type="line"/>
      <point x="398" y="399" type="line"/>
      <point x="424" y="344" type="line"/>
      <point x="657" y="344" type="line"/>
    </contour>
    <contour>
      <point x="256" y="445" type="line"/>
      <point x="256" y="385" type="line"/>
      <point x="296" y="385" type="line" smooth="yes"/>
      <point x="386" y="385"/>
      <point x="446" y="344"/>
      <point x="446" y="254" type="curve" smooth="yes"/>
      <point x="446" y="164"/>
      <point x="388" y="107"/>
      <point x="298" y="107" type="curve" smooth="yes"/>
      <point x="209" y="107"/>
      <point x="146" y="164"/>
      <point x="146" y="253" type="curve"/>
      <point x="86" y="253" type="line"/>
      <point x="86" y="130"/>
      <point x="175" y="52"/>
      <point x="298" y="52" type="curve" smooth="yes"/>
      <point x="421" y="52"/>
      <point x="506" y="131"/>
      <point x="506" y="254" type="curve" smooth="yes"/>
      <point x="506" y="330"/>
      <point x="464" y="394"/>
      <point x="385" y="415" type="curve"/>
      <point x="385" y="421" type="line"/>
      <point x="458" y="444"/>
      <point x="494" y="496"/>
      <point x="494" y="567" type="curve" smooth="yes"/>
      <point x="494" y="680"/>
      <point x="407" y="750"/>
      <point x="294" y="750" type="curve" smooth="yes"/>
      <point x="181" y="750"/>
      <point x="94" y="680"/>
      <point x="94" y="567" type="curve"/>
      <point x="154" y="567" type="line"/>
      <point x="154" y="646"/>
      <point x="215" y="695"/>
      <point x="294" y="695" type="curve" smooth="yes"/>
      <point x="377" y="695"/>
      <point x="434" y="647"/>
      <point x="434" y="567" type="curve" smooth="yes"/>
      <point x="434" y="486"/>
      <point x="368" y="445"/>
      <point x="289" y="445" type="curve" smooth="yes"/>
    </contour>
  </outline>
</glyph>
<glyph name="dvI" format="1">
  <advance width="598"/>
  <unicode hex="0907"/>
  <outline>
    <contour>
      <point x="638" y="680" type="line"/>
      <point x="638" y="740" type="line"/>
      <point x="-40" y="740" type="line"/>
      <point x="-40" y="680" type="line"/>
    </contour>
    <contour>
      <point x="426" y="512" type="line"/>
      <point x="491" y="512" type="line"/>
      <point x="491" y="718" type="line"/>
      <point x="426" y="718" type="line"/>
    </contour>
    <contour>
      <point x="113" y="-75" type="line"/>
      <point x="178" y="-75" type="line"/>
      <point x="178" y="66" type="line"/>
      <point x="214" y="16"/>
      <point x="270" y="-10"/>
      <point x="356" y="-10" type="curve" smooth="yes"/>
      <point x="483" y="-10"/>
      <point x="551" y="63"/>
      <point x="551" y="156" type="curve" smooth="yes"/>
      <point x="551" y="298"/>
      <point x="435" y="316"/>
      <point x="323" y="316" type="curve" smooth="yes"/>
      <point x="244" y="316"/>
      <point x="184" y="329"/>
      <point x="184" y="410" type="curve" smooth="yes"/>
      <point x="184" y="488"/>
      <point x="252" y="501"/>
      <point x="327" y="501" type="curve" smooth="yes"/>
      <point x="491" y="501" type="line"/>
      <point x="491" y="561" type="line"/>
      <point x="458" y="561" type="line"/>
      <point x="326" y="561" type="line" smooth="yes"/>
      <point x="222" y="561"/>
      <point x="119" y="531"/>
      <point x="119" y="410" type="curve" smooth="yes"/>
      <point x="119" y="289"/>
      <point x="212" y="258"/>
      <point x="337" y="258" type="curve" smooth="yes"/>
      <point x="410" y="258"/>
      <point x="486" y="252"/>
      <point x="486" y="162" type="curve" smooth="yes"/>
      <point x="486" y="84"/>
      <point x="429" y="50"/>
      <point x="343" y="50" type="curve" smooth="yes"/>
      <point x="233" y="50"/>
      <point x="184" y="110"/>
      <point x="178" y="202" type="curve"/>
      <point x="113" y="202" type="line"/>
    </contour>
  </outline>
</glyph>
<glyph name="dvII" format="1">
  <advance width="598"/>
  <unicode hex="0908"/>
  <outline>
    <contour>
      <point x="638" y="680" type="line"/>
      <point x="638" y="740" type="line"/>
      <point x="-40" y="740" type="line"/>
      <point x="-40" y="680" type="line"/>
    </contour>
    <contour>
      <point x="426" y="512" type="line"/>
      <point x="491" y="512" type="line"/>
      <point x="491" y="718" type="line"/>
      <point x="426" y="718" type="line"/>
    </contour>
    <contour>
      <point x="113" y="-75" type="line"/>
      <point x="178" y="-75" type="line"/>
      <point x="178" y="66" type="line"/>
      <point x="214" y="16"/>
      <point x="270" y="-10"/>
      <point x="356" y="-10" type="curve" smooth="yes"/>
      <point x="483" y="-10"/>
      <point x="551" y="63"/>
      <point x="551" y="156" type="curve" smooth="yes"/>
      <point x="551" y="298"/>
      <point x="435" y="316"/>
      <point x="323" y="316" type="curve" smooth="yes"/>
      <point x="244" y="316"/>
      <point x="184" y="329"/>
      <point x="184" y="410" type="curve" smooth="yes"/>
      <point x="184" y="488"/>
      <point x="252" y="501"/>
      <point x="327" y="501" type="curve" smooth="yes"/>
      <point x="491" y="501" type="line"/>
      <point x="491" y="561" type="line"/>
      <point x="471" y="561" type="line"/>
      <point x="326" y="561" type="line" smooth="yes"/>
      <point x="222" y="561"/>
      <point x="119" y="531"/>
      <point x="119" y="410" type="curve" smooth="yes"/>
      <point x="119" y="289"/>
      <point x="212" y="258"/>
      <point x="337" y="258" type="curve" smooth="yes"/>
      <point x="410" y="258"/>
      <point x="486" y="252"/>
      <point x="486" y="162" type="curve" smooth="yes"/>
      <point x="486" y="84"/>
      <point x="429" y="50"/>
      <point x="343" y="50" type="curve" smooth="yes"/>
      <point x="233" y="50"/>
      <point x="184" y="110"/>
      <point x="178" y="202" type="curve"/>
      <point x="113" y="202" type="line"/>
    </contour>
    <contour>
      <point x="428" y="846" type="curve" smooth="yes"/>
      <point x="428" y="812"/>
      <point x="428" y="747"/>
      <point x="429" y="714" type="curve"/>
      <point x="489" y="714" type="line"/>
      <point x="489" y="846" type="line" smooth="yes"/>
      <point x="489" y="938"/>
      <point x="515" y="987"/>
      <point x="586" y="987" type="curve" smooth="yes"/>
      <point x="655" y="987"/>
      <point x="679" y="947"/>
      <point x="681" y="881" type="curve"/>
      <point x="736" y="881" type="line"/>
      <point x="736" y="976"/>
      <point x="684" y="1041"/>
      <point x="587" y="1041" type="curve" smooth="yes"/>
      <point x="474" y="1041"/>
      <point x="428" y="971"/>
    </contour>
  </outline>
</glyph>
<glyph name="dvU" format="1">
  <advance width="585"/>
  <unicode hex="0909"/>
  <outline>
    <contour>
      <point x="480" y="712" type="line"/>
      <point x="420" y="700" type="line"/>
      <point x="420" y="641" type="line"/>
      <point x="420" y="528"/>
      <point x="390" y="439"/>
      <point x="275" y="439" type="curve" smooth="yes"/>
      <point x="242" y="439" type="line"/>
      <point x="242" y="378" type="line"/>
      <point x="275" y="378" type="line" smooth="yes"/>
      <point x="367" y="378"/>
      <point x="452" y="327"/>
      <point x="452" y="218" type="curve" smooth="yes"/>
      <point x="452" y="127"/>
      <point x="393" y="63"/>
      <point x="300" y="63" type="curve" smooth="yes"/>
      <point x="206" y="63"/>
      <point x="132" y="135"/>
      <point x="132" y="229" type="curve"/>
      <point x="72" y="229" type="line"/>
      <point x="72" y="98"/>
      <point x="161" y="8"/>
      <point x="300" y="8" type="curve" smooth="yes"/>
      <point x="433" y="8"/>
      <point x="512" y="86"/>
      <point x="512" y="220" type="curve" smooth="yes"/>
      <point x="512" y="315"/>
      <point x="458" y="380"/>
      <point x="381" y="406" type="curve"/>
      <point x="381" y="412" type="line"/>
      <point x="470" y="457"/>
      <point x="480" y="539"/>
      <point x="480" y="644" type="curve"/>
    </contour>
    <contour>
      <point x="625" y="680" type="line"/>
      <point x="625" y="740" type="line"/>
      <point x="-40" y="740" type="line"/>
      <point x="-40" y="680" type="line"/>
    </contour>
  </outline>
</glyph>
<glyph name="dvUU" format="1">
  <advance width="857"/>
  <unicode hex="090A"/>
  <outline>
    <contour>
      <point x="479" y="712" type="line"/>
      <point x="419" y="700" type="line"/>
      <point x="419" y="641" type="line" smooth="yes"/>
      <point x="419" y="528"/>
      <point x="389" y="439"/>
      <point x="274" y="439" type="curve" smooth="yes"/>
      <point x="241" y="439" type="line"/>
      <point x="241" y="378" type="line"/>
      <point x="274" y="378" type="line" smooth="yes"/>
      <point x="366" y="378"/>
      <point x="451" y="327"/>
      <point x="451" y="218" type="curve" smooth="yes"/>
      <point x="451" y="125"/>
      <point x="392" y="63"/>
      <point x="299" y="63" type="curve" smooth="yes"/>
      <point x="204" y="63"/>
      <point x="131" y="135"/>
      <point x="131" y="229" type="curve"/>
      <point x="71" y="229" type="line"/>
      <point x="71" y="99"/>
      <point x="161" y="8"/>
      <point x="299" y="8" type="curve" smooth="yes"/>
      <point x="432" y="8"/>
      <point x="511" y="87"/>
      <point x="511" y="220" type="curve" smooth="yes"/>
      <point x="511" y="315"/>
      <point x="457" y="380"/>
      <point x="380" y="406" type="curve"/>
      <point x="380" y="412" type="line"/>
      <point x="469" y="457"/>
      <point x="479" y="539"/>
      <point x="479" y="644" type="curve" smooth="yes"/>
    </contour>
    <contour>
      <point x="897" y="680" type="line"/>
      <point x="897" y="740" type="line"/>
      <point x="-40" y="740" type="line"/>
      <point x="-40" y="680" type="line"/>
    </contour>
    <contour>
      <point x="363" y="406" type="line"/>
      <point x="407" y="348" type="line"/>
      <point x="558" y="348" type="line"/>
      <point x="577" y="348" type="line"/>
      <point x="679" y="348"/>
      <point x="742" y="323"/>
      <point x="742" y="216" type="curve" smooth="yes"/>
      <point x="742" y="92"/>
      <point x="665" y="75"/>
      <point x="550" y="84" type="curve"/>
      <point x="550" y="30" type="line"/>
      <point x="690" y="15"/>
      <point x="806" y="50"/>
      <point x="806" y="216" type="curve"/>
      <point x="806" y="357"/>
      <point x="715" y="406"/>
      <point x="577" y="406" type="curve"/>
      <point x="557" y="406" type="line"/>
    </contour>
  </outline>
</glyph>
<glyph name="dvvR" format="1">
  <advance width="964"/>
  <unicode hex="090B"/>
  <outline>
    <contour>
      <point x="490" y="0" type="line"/>
      <point x="555" y="0" type="line"/>
      <point x="555" y="340"/>
      <point x="555" y="680"/>
      <point x="555" y="680" type="curve"/>
      <point x="1004" y="680" type="line"/>
      <point x="1004" y="740" type="line"/>
      <point x="-40" y="740" type="line"/>
      <point x="-40" y="680" type="line"/>
      <point x="490" y="680" type="line"/>
    </contour>
    <contour>
      <point x="129" y="319" type="line"/>
      <point x="129" y="439"/>
      <point x="201" y="513"/>
      <point x="316" y="513" type="curve" smooth="yes"/>
      <point x="424" y="513"/>
      <point x="490" y="432"/>
      <point x="490" y="319" type="curve"/>
      <point x="521" y="325" type="line"/>
      <point x="531" y="449"/>
      <point x="461" y="573"/>
      <point x="306" y="573" type="curve" smooth="yes"/>
      <point x="160" y="573"/>
      <point x="64" y="471"/>
      <point x="64" y="319" type="curve"/>
    </contour>
    <contour>
      <point x="119" y="5" type="line"/>
      <point x="119" y="0" type="line"/>
      <point x="119" y="0"/>
      <point x="202" y="0"/>
      <point x="202" y="0" type="curve"/>
      <point x="511" y="317" type="line"/>
      <point x="511" y="317"/>
      <point x="496" y="376"/>
      <point x="496" y="376" type="curve"/>
    </contour>
    <contour>
      <point x="806" y="570" type="line"/>
      <point x="806" y="216" type="line"/>
      <point x="871" y="226" type="line"/>
      <point x="871" y="570" type="line"/>
    </contour>
    <contour>
      <point x="871" y="272" type="line"/>
      <point x="839" y="272" type="line" smooth="yes"/>
      <point x="729" y="272"/>
      <point x="665" y="205"/>
      <point x="665" y="104" type="curve" smooth="yes"/>
      <point x="665" y="-14"/>
      <point x="751" y="-64"/>
      <point x="850" y="-64" type="curve" smooth="yes"/>
      <point x="872" y="-64"/>
      <point x="898" y="-61"/>
      <point x="915" y="-54" type="curve"/>
      <point x="915" y="0" type="line"/>
      <point x="894" y="-6"/>
      <point x="872" y="-9"/>
      <point x="851" y="-9" type="curve" smooth="yes"/>
      <point x="784" y="-9"/>
      <point x="726" y="23"/>
      <point x="726" y="104" type="curve" smooth="yes"/>
      <point x="726" y="174"/>
      <point x="767" y="216"/>
      <point x="839" y="216" type="curve" smooth="yes"/>
      <point x="871" y="216" type="line"/>
    </contour>
    <contour>
      <point x="744" y="414" type="line"/>
      <point x="832" y="414"/>
      <point x="871" y="458"/>
      <point x="871" y="544" type="curve" smooth="yes"/>
      <point x="871" y="581" type="line"/>
      <point x="806" y="581" type="line"/>
      <point x="806" y="546" type="line" smooth="yes"/>
      <point x="806" y="492"/>
      <point x="800" y="471"/>
      <point x="743" y="471" type="curve" smooth="yes"/>
      <point x="528" y="471" type="line"/>
      <point x="528" y="414" type="line"/>
    </contour>
  </outline>
</glyph>
<glyph name="dvvL" format="1">
  <advance width="906"/>
  <unicode hex="090C"/>
  <outline>
    <contour>
      <point x="806" y="-64" type="curve" smooth="yes"/>
      <point x="828" y="-64"/>
      <point x="855" y="-61"/>
      <point x="872" y="-55" type="curve"/>
      <point x="872" y="0" type="line"/>
      <point x="851" y="-6"/>
      <point x="829" y="-9"/>
      <point x="808" y="-9" type="curve" smooth="yes"/>
      <point x="741" y="-9"/>
      <point x="683" y="23"/>
      <point x="683" y="104" type="curve"/>
      <point x="683" y="174"/>
      <point x="724" y="216"/>
      <point x="796" y="216" type="curve" smooth="yes"/>
      <point x="821" y="216" type="line"/>
      <point x="824" y="241"/>
      <point x="826" y="264"/>
      <point x="826" y="286" type="curve" smooth="yes"/>
      <point x="826" y="414"/>
      <point x="768" y="491"/>
      <point x="674" y="507" type="curve"/>
      <point x="674" y="680" type="line"/>
      <point x="946" y="680" type="line"/>
      <point x="946" y="740" type="line"/>
      <point x="-40" y="740" type="line"/>
      <point x="-40" y="680" type="line"/>
      <point x="609" y="680" type="line"/>
      <point x="609" y="510" type="line"/>
      <point x="533" y="503"/>
      <point x="478" y="459"/>
      <point x="458" y="385" type="curve"/>
      <point x="436" y="466"/>
      <point x="371" y="511"/>
      <point x="285" y="511" type="curve" smooth="yes"/>
      <point x="143" y="511"/>
      <point x="87" y="414"/>
      <point x="87" y="271" type="curve" smooth="yes"/>
      <point x="87" y="108"/>
      <point x="190" y="5"/>
      <point x="351" y="21" type="curve"/>
      <point x="351" y="81" type="line"/>
      <point x="214" y="72"/>
      <point x="152" y="153"/>
      <point x="152" y="272" type="curve" smooth="yes"/>
      <point x="152" y="374"/>
      <point x="184" y="451"/>
      <point x="285" y="451" type="curve" smooth="yes"/>
      <point x="396" y="451"/>
      <point x="430" y="357"/>
      <point x="426" y="231" type="curve"/>
      <point x="490" y="231" type="line"/>
      <point x="486" y="357"/>
      <point x="519" y="451"/>
      <point x="630" y="451" type="curve"/>
      <point x="747" y="451"/>
      <point x="768" y="349"/>
      <point x="763" y="270" type="curve"/>
      <point x="673" y="258"/>
      <point x="622" y="195"/>
      <point x="622" y="104" type="curve" smooth="yes"/>
      <point x="622" y="-14"/>
      <point x="707" y="-64"/>
    </contour>
  </outline>
</glyph>
<glyph name="dvE" format="1">
  <advance width="655"/>
  <unicode hex="090F"/>
  <outline>
    <contour>
      <point x="695" y="680" type="line"/>
      <point x="695" y="740" type="line"/>
      <point x="-40" y="740" type="line"/>
      <point x="-40" y="680" type="line"/>
    </contour>
    <contour>
      <point x="571" y="680" type="line"/>
      <point x="506" y="680" type="line"/>
      <point x="506" y="555" type="line" smooth="yes"/>
      <point x="506" y="425"/>
      <point x="476" y="405"/>
      <point x="370" y="401" type="curve"/>
      <point x="370" y="340" type="line"/>
      <point x="512" y="341"/>
      <point x="571" y="392"/>
      <point x="571" y="554" type="curve" smooth="yes"/>
    </contour>
    <contour>
      <point x="113" y="273" type="line"/>
      <point x="113" y="125"/>
      <point x="179" y="19"/>
      <point x="352" y="19" type="curve" smooth="yes"/>
      <point x="494" y="19"/>
      <point x="579" y="103"/>
      <point x="579" y="245" type="curve"/>
      <point x="514" y="245" type="line"/>
      <point x="514" y="135"/>
      <point x="459" y="79"/>
      <point x="349" y="79" type="curve" smooth="yes"/>
      <point x="229" y="79"/>
      <point x="178" y="145"/>
      <point x="178" y="265" type="curve" smooth="yes"/>
      <point x="178" y="723" type="line"/>
      <point x="113" y="723" type="line"/>
    </contour>
  </outline>
</glyph>
<glyph name="dvOcandra" format="1">
  <advance width="1087"/>
  <unicode hex="0911"/>
  <outline>
    <contour>
      <point x="1008" y="987" type="curve"/>
      <point x="948" y="987" type="line"/>
      <point x="948" y="931"/>
      <point x="924" y="874"/>
      <point x="838" y="874" type="curve"/>
      <point x="752" y="874"/>
      <point x="728" y="931"/>
      <point x="728" y="987" type="curve"/>
      <point x="668" y="987" type="line"/>
      <point x="668" y="899"/>
      <point x="707" y="819"/>
      <point x="838" y="819" type="curve"/>
      <point x="969" y="819"/>
      <point x="1008" y="899"/>
    </contour>
    <component base="dvA"/>
    <component base="dvmAA" xOffset="822"/>
  </outline>
</glyph>
<glyph name="dvKHA" format="1">
  <advance width="905"/>
  <unicode hex="0916"/>
  <outline>
    <contour>
      <point x="150" y="353" type="line"/>
      <point x="295" y="353"/>
      <point x="337" y="399"/>
      <point x="337" y="581" type="curve" smooth="yes"/>
      <point x="337" y="687" type="line"/>
      <point x="273" y="690" type="line"/>
      <point x="273" y="582" type="line" smooth="yes"/>
      <point x="273" y="416"/>
      <point x="253" y="407"/>
      <point x="122" y="407" type="curve" smooth="yes"/>
      <point x="85" y="407" type="line"/>
      <point x="85" y="228" type="line" smooth="yes"/>
      <point x="85" y="84"/>
      <point x="178" y="-1"/>
      <point x="320" y="-1" type="curve" smooth="yes"/>
      <point x="447" y="-1"/>
      <point x="546" y="64"/>
      <point x="556" y="190" type="curve"/>
      <point x="490" y="190" type="line"/>
      <point x="484" y="106"/>
      <point x="419" y="59"/>
      <point x="320" y="59" type="curve" smooth="yes"/>
      <point x="206" y="59"/>
      <point x="150" y="113"/>
      <point x="150" y="230" type="curve" smooth="yes"/>
    </contour>
    <contour>
      <point x="596" y="493" type="curve" smooth="yes"/>
      <point x="684" y="493"/>
      <point x="740" y="437"/>
      <point x="740" y="349" type="curve"/>
      <point x="771" y="355" type="line"/>
      <point x="781" y="462"/>
      <point x="733" y="553"/>
      <point x="586" y="553" type="curve" smooth="yes"/>
      <point x="467" y="553"/>
      <point x="384" y="469"/>
      <point x="384" y="349" type="curve" smooth="yes"/>
      <point x="384" y="229"/>
      <point x="467" y="145"/>
      <point x="586" y="145" type="curve" smooth="yes"/>
      <point x="723" y="145"/>
      <point x="781" y="236"/>
      <point x="771" y="343" type="curve"/>
      <point x="740" y="349" type="line"/>
      <point x="740" y="261"/>
      <point x="684" y="205"/>
      <point x="596" y="205" type="curve" smooth="yes"/>
      <point x="508" y="205"/>
      <point x="449" y="261"/>
      <point x="449" y="349" type="curve" smooth="yes"/>
      <point x="449" y="437"/>
      <point x="508" y="493"/>
    </contour>
    <contour>
      <point x="740" y="0" type="line"/>
      <point x="805" y="0" type="line"/>
      <point x="805" y="340"/>
      <point x="805" y="680"/>
      <point x="805" y="680" type="curve"/>
      <point x="945" y="680" type="line"/>
      <point x="945" y="740" type="line"/>
      <point x="-40" y="740" type="line"/>
      <point x="-40" y="680" type="line"/>
      <point x="740" y="680" type="line"/>
    </contour>
  </outline>
</glyph>
<glyph name="dvCA" format="1">
  <advance width="720"/>
  <unicode hex="091A"/>
  <outline>
    <contour>
      <point x="411" y="531" type="line"/>
      <point x="49" y="531" type="line"/>
      <point x="49" y="474" type="line"/>
      <point x="411" y="474" type="line"/>
    </contour>
    <contour>
      <point x="555" y="345" type="line"/>
      <point x="555" y="246"/>
      <point x="481" y="164"/>
      <point x="380" y="164" type="curve" smooth="yes"/>
      <point x="280" y="164"/>
      <point x="208" y="218"/>
      <point x="208" y="315" type="curve" smooth="yes"/>
      <point x="208" y="416"/>
      <point x="277" y="474"/>
      <point x="385" y="474" type="curve"/>
      <point x="374" y="503" type="line"/>
      <point x="242" y="513"/>
      <point x="143" y="443"/>
      <point x="143" y="312" type="curve" smooth="yes"/>
      <point x="143" y="188"/>
      <point x="245" y="104"/>
      <point x="370" y="104" type="curve" smooth="yes"/>
      <point x="518" y="104"/>
      <point x="568" y="205"/>
      <point x="576" y="257" type="curve"/>
    </contour>
    <contour>
      <point x="555" y="0" type="line"/>
      <point x="620" y="0" type="line"/>
      <point x="620" y="680" type="line"/>
      <point x="620" y="680"/>
      <point x="760" y="680"/>
      <point x="760" y="680" type="curve"/>
      <point x="760" y="740" type="line"/>
      <point x="-40" y="740" type="line"/>
      <point x="-40" y="680" type="line"/>
      <point x="-40" y="680"/>
      <point x="555" y="680"/>
      <point x="555" y="680" type="curve"/>
    </contour>
  </outline>
</glyph>
<glyph name="dvTTHA" format="1">
  <advance width="669"/>
  <unicode hex="0920"/>
  <outline>
    <contour>
      <point x="416" y="-63" type="move" name="blwm.u"/>
    </contour>
    <contour>
      <point x="388" y="8" type="move" name="blwm.virama"/>
    </contour>
    <contour>
      <point x="377" y="740" type="move" name="abvm.e"/>
    </contour>
    <contour>
      <point x="377" y="563" type="curve"/>
      <point x="377" y="680" type="line"/>
      <point x="709" y="680" type="line"/>
      <point x="709" y="740" type="line"/>
      <point x="-40" y="740" type="line"/>
      <point x="-40" y="680" type="line"/>
      <point x="312" y="680" type="line"/>
      <point x="312" y="563" type="line"/>
      <point x="176" y="549"/>
      <point x="81" y="450"/>
      <point x="81" y="309" type="curve" smooth="yes"/>
      <point x="81" y="156"/>
      <point x="192" y="53"/>
      <point x="345" y="53" type="curve" smooth="yes"/>
      <point x="498" y="53"/>
      <point x="609" y="156"/>
      <point x="609" y="309" type="curve" smooth="yes"/>
      <point x="609" y="451"/>
      <point x="513" y="550"/>
    </contour>
    <contour>
      <point x="345" y="506" type="curve" smooth="yes"/>
      <point x="463" y="506"/>
      <point x="544" y="427"/>
      <point x="544" y="309" type="curve" smooth="yes"/>
      <point x="544" y="191"/>
      <point x="463" y="112"/>
      <point x="345" y="112" type="curve" smooth="yes"/>
      <point x="227" y="112"/>
      <point x="146" y="191"/>
      <point x="146" y="309" type="curve" smooth="yes"/>
      <point x="146" y="427"/>
      <point x="227" y="506"/>
    </contour>
  </outline>
</glyph>
<glyph name="dvDDHA" format="1">
  <advance width="633"/>
  <unicode hex="0922"/>
  <outline>
    <contour>
      <point x="426" y="-117" type="move" name="blwm.u"/>
    </contour>
    <contour>
      <point x="434" y="-10" type="move" name="blwm.virama"/>
    </contour>
    <contour>
      <point x="470" y="740" type="move" name="abvm.e"/>
    </contour>
    <contour>
      <point x="405" y="517" type="line"/>
      <point x="470" y="517" type="line"/>
      <point x="470" y="680" type="line"/>
      <point x="470" y="680"/>
      <point x="673" y="680"/>
      <point x="673" y="680" type="curve"/>
      <point x="673" y="740" type="line"/>
      <point x="-40" y="740" type="line"/>
      <point x="-40" y="680" type="line"/>
      <point x="405" y="680" type="line"/>
    </contour>
    <contour>
      <point x="257" y="193" type="curve"/>
      <point x="321" y="193" type="line"/>
      <point x="321" y="260"/>
      <point x="348" y="311"/>
      <point x="421" y="311" type="curve" smooth="yes"/>
      <point x="498" y="311"/>
      <point x="524" y="260"/>
      <point x="524" y="202" type="curve" smooth="yes"/>
      <point x="524" y="126"/>
      <point x="474" y="72"/>
      <point x="372" y="72" type="curve" smooth="yes"/>
      <point x="245" y="72"/>
      <point x="143" y="145"/>
      <point x="143" y="288" type="curve" smooth="yes"/>
      <point x="143" y="445"/>
      <point x="249" y="518"/>
      <point x="406" y="517" type="curve"/>
      <point x="406" y="517"/>
      <point x="406" y="577"/>
      <point x="406" y="577" type="curve"/>
      <point x="229" y="579"/>
      <point x="78" y="491"/>
      <point x="78" y="288" type="curve" smooth="yes"/>
      <point x="78" y="116"/>
      <point x="205" y="12"/>
      <point x="371" y="12" type="curve" smooth="yes"/>
      <point x="502" y="12"/>
      <point x="589" y="86"/>
      <point x="589" y="203" type="curve" smooth="yes"/>
      <point x="589" y="307"/>
      <point x="520" y="370"/>
      <point x="419" y="370" type="curve" smooth="yes"/>
      <point x="308" y="370"/>
      <point x="257" y="290"/>
    </contour>
  </outline>
</glyph>
<glyph name="dvTHA" format="1">
  <advance width="751"/>
  <unicode hex="0925"/>
  <outline>
    <contour>
      <point x="791" y="680" type="line"/>
      <point x="791" y="740" type="line"/>
      <point x="586" y="740" type="line"/>
      <point x="586" y="341" type="line"/>
      <point x="581" y="235"/>
      <point x="490" y="159"/>
      <point x="382" y="159" type="curve" smooth="yes"/>
      <point x="233" y="159"/>
      <point x="163" y="254"/>
      <point x="170" y="389" type="curve"/>
      <point x="329" y="385"/>
      <point x="478" y="406"/>
      <point x="478" y="570" type="curve" smooth="yes"/>
      <point x="478" y="678"/>
      <point x="405" y="750"/>
      <point x="300" y="750" type="curve" smooth="yes"/>
      <point x="183" y="750"/>
      <point x="115" y="667"/>
      <point x="118" y="552" type="curve"/>
      <point x="183" y="552" type="line"/>
      <point x="181" y="633"/>
      <point x="217" y="690"/>
      <point x="299" y="690" type="curve" smooth="yes"/>
      <point x="371" y="690"/>
      <point x="413" y="646"/>
      <point x="413" y="574" type="curve" smooth="yes"/>
      <point x="413" y="461"/>
      <point x="330" y="443"/>
      <point x="195" y="443" type="curve" smooth="yes"/>
      <point x="167" y="443"/>
      <point x="137" y="444"/>
      <point x="105" y="445" type="curve"/>
      <point x="81" y="251"/>
      <point x="179" y="99"/>
      <point x="375" y="99" type="curve" smooth="yes"/>
      <point x="493" y="99"/>
      <point x="560" y="157"/>
      <point x="586" y="204" type="curve"/>
      <point x="586" y="0" type="line"/>
      <point x="651" y="0" type="line"/>
      <point x="651" y="680" type="line"/>
    </contour>
  </outline>
</glyph>
<glyph name="dvDA" format="1">
  <advance width="592"/>
  <unicode hex="0926"/>
  <outline>
    <contour>
      <point x="514" y="8" type="move" name="blwm.u"/>
    </contour>
    <contour>
      <point x="516" y="-35" type="move" name="blwm.virama"/>
    </contour>
    <contour>
      <point x="474" y="740" type="move" name="abvm.e"/>
    </contour>
    <contour>
      <point x="514" y="8" type="line"/>
      <point x="514" y="8"/>
      <point x="514" y="302"/>
      <point x="514" y="302" type="curve"/>
      <point x="514" y="302"/>
      <point x="455" y="302"/>
      <point x="455" y="302" type="curve"/>
      <point x="455" y="197"/>
      <point x="387" y="164"/>
      <point x="311" y="164" type="curve"/>
      <point x="201" y="164"/>
      <point x="129" y="217"/>
      <point x="129" y="331" type="curve" smooth="yes"/>
      <point x="129" y="479"/>
      <point x="234" y="509"/>
      <point x="377" y="509" type="curve" smooth="yes"/>
      <point x="474" y="509" type="line"/>
      <point x="474" y="680" type="line"/>
      <point x="632" y="680" type="line"/>
      <point x="632" y="740" type="line"/>
      <point x="-40" y="740" type="line"/>
      <point x="-40" y="680" type="line"/>
      <point x="409" y="680" type="line"/>
      <point x="409" y="569" type="line"/>
      <point x="365" y="569" type="line" smooth="yes"/>
      <point x="189" y="569"/>
      <point x="63" y="505"/>
      <point x="63" y="331" type="curve" smooth="yes"/>
      <point x="63" y="194"/>
      <point x="161" y="104"/>
      <point x="305" y="104" type="curve" smooth="yes"/>
      <point x="367" y="104"/>
      <point x="424" y="126"/>
      <point x="449" y="162" type="curve"/>
      <point x="449" y="8" type="line"/>
    </contour>
  </outline>
</glyph>
<glyph name="dvBA" format="1">
  <advance width="673"/>
  <unicode hex="092C"/>
  <outline>
    <contour>
      <point x="314" y="94" type="curve" smooth="yes"/>
      <point x="406" y="94"/>
      <point x="472" y="135"/>
      <point x="508" y="194" type="curve"/>
      <point x="508" y="0" type="line"/>
      <point x="573" y="0" type="line"/>
      <point x="573" y="680" type="line"/>
      <point x="713" y="680" type="line"/>
      <point x="713" y="740" type="line"/>
      <point x="-40" y="740" type="line"/>
      <point x="-40" y="680" type="line"/>
      <point x="508" y="680" type="line"/>
      <point x="508" y="483" type="line"/>
      <point x="472" y="542"/>
      <point x="406" y="584"/>
      <point x="314" y="584" type="curve" smooth="yes"/>
      <point x="171" y="584"/>
      <point x="62" y="484"/>
      <point x="62" y="339" type="curve" smooth="yes"/>
      <point x="62" y="194"/>
      <point x="171" y="94"/>
    </contour>
    <contour>
      <point x="127" y="339" type="curve" smooth="yes"/>
      <point x="127" y="455"/>
      <point x="208" y="524"/>
      <point x="324" y="524" type="curve" smooth="yes"/>
      <point x="432" y="524"/>
      <point x="508" y="447"/>
      <point x="508" y="339" type="curve"/>
      <point x="508" y="229"/>
      <point x="429" y="154"/>
      <point x="324" y="154" type="curve" smooth="yes"/>
      <point x="208" y="154"/>
      <point x="127" y="223"/>
    </contour>
    <contour>
      <point x="484" y="182" type="line"/>
      <point x="522" y="220" type="line"/>
      <point x="158" y="513" type="line"/>
      <point x="137" y="462" type="line"/>
    </contour>
  </outline>
</glyph>
<glyph name="dvBHA" format="1">
  <advance width="785"/>
  <unicode hex="092D"/>
  <outline>
    <contour>
      <point x="620" y="0" type="line"/>
      <point x="685" y="0" type="line"/>
      <point x="685" y="730" type="line"/>
      <point x="685" y="730"/>
      <point x="620" y="730"/>
      <point x="620" y="730" type="curve"/>
    </contour>
    <contour>
      <point x="825" y="680" type="line"/>
      <point x="825" y="740" type="line"/>
      <point x="620" y="740" type="line"/>
      <point x="620" y="680" type="line"/>
    </contour>
    <contour>
      <point x="383" y="326" type="line"/>
      <point x="383" y="228"/>
      <point x="362" y="169"/>
      <point x="274" y="169" type="curve" smooth="yes"/>
      <point x="209" y="169"/>
      <point x="162" y="214"/>
      <point x="162" y="278" type="curve" smooth="yes"/>
      <point x="162" y="369"/>
      <point x="227" y="390"/>
      <point x="321" y="390" type="curve" smooth="yes"/>
      <point x="663" y="390" type="line"/>
      <point x="663" y="448" type="line"/>
      <point x="328" y="448" type="line" smooth="yes"/>
      <point x="172" y="448"/>
      <point x="97" y="395"/>
      <point x="97" y="280" type="curve" smooth="yes"/>
      <point x="97" y="180"/>
      <point x="176" y="110"/>
      <point x="275" y="110" type="curve" smooth="yes"/>
      <point x="394" y="110"/>
      <point x="447" y="185"/>
      <point x="447" y="326" type="curve" smooth="yes"/>
      <point x="447" y="541" type="line"/>
      <point x="447" y="666"/>
      <point x="399" y="745"/>
      <point x="284" y="745" type="curve" smooth="yes"/>
      <point x="168" y="745"/>
      <point x="122" y="665"/>
      <point x="122" y="536" type="curve"/>
      <point x="185" y="536" type="line"/>
      <point x="185" y="627"/>
      <point x="205" y="685"/>
      <point x="283" y="685" type="curve" smooth="yes"/>
      <point x="362" y="685"/>
      <point x="383" y="625"/>
      <point x="383" y="541" type="curve"/>
    </contour>
  </outline>
</glyph>
<glyph name="dvRA" format="1">
  <advance width="524"/>
  <unicode hex="0930"/>
  <outline>
    <contour>
      <point x="154" y="349" type="line"/>
      <point x="388" y="349"/>
      <point x="441" y="387"/>
      <point x="441" y="624" type="curve" smooth="yes"/>
      <point x="441" y="687" type="line"/>
      <point x="375" y="690" type="line"/>
      <point x="375" y="628" type="line"/>
      <point x="375" y="400"/>
      <point x="352" y="407"/>
      <point x="88" y="407" type="curve"/>
      <point x="88" y="213" type="line" smooth="yes"/>
      <point x="88" y="89"/>
      <point x="153" y="-1"/>
      <point x="279" y="-1" type="curve" smooth="yes"/>
      <point x="401" y="-1"/>
      <point x="470" y="86"/>
      <point x="470" y="210" type="curve"/>
      <point x="404" y="210" type="line"/>
      <point x="404" y="120"/>
      <point x="367" y="59"/>
      <point x="279" y="59" type="curve" smooth="yes"/>
      <point x="189" y="59"/>
      <point x="154" y="123"/>
      <point x="154" y="213" type="curve" smooth="yes"/>
    </contour>
    <contour>
      <point x="564" y="680" type="line"/>
      <point x="564" y="740" type="line"/>
      <point x="-40" y="740" type="line"/>
      <point x="-40" y="680" type="line"/>
    </contour>
  </outline>
</glyph>
<glyph name="dvLLA" format="1">
  <advance width="942"/>
  <unicode hex="0933"/>
  <outline>
    <contour>
      <point x="747" y="-44" type="move" name="blwm.u"/>
    </contour>
    <contour>
      <point x="715" y="31" type="move" name="blwm.virama"/>
    </contour>
    <contour>
      <point x="689" y="740" type="move" name="abvm.e"/>
    </contour>
    <contour>
      <point x="624" y="490" type="line"/>
      <point x="624" y="490"/>
      <point x="689" y="490"/>
      <point x="689" y="490" type="curve"/>
      <point x="689" y="680" type="line"/>
      <point x="982" y="680" type="line"/>
      <point x="982" y="740" type="line"/>
      <point x="-40" y="740" type="line"/>
      <point x="-40" y="680" type="line"/>
      <point x="624" y="680" type="line"/>
    </contour>
    <contour>
      <point x="480" y="398" type="curve"/>
      <point x="444" y="478"/>
      <point x="372" y="522"/>
      <point x="284" y="522" type="curve" smooth="yes"/>
      <point x="151" y="522"/>
      <point x="51" y="429"/>
      <point x="51" y="294" type="curve" smooth="yes"/>
      <point x="51" y="160"/>
      <point x="149" y="67"/>
      <point x="284" y="67" type="curve" smooth="yes"/>
      <point x="372" y="67"/>
      <point x="443" y="110"/>
      <point x="480" y="190" type="curve"/>
      <point x="514" y="112"/>
      <point x="591" y="67"/>
      <point x="677" y="67" type="curve" smooth="yes"/>
      <point x="812" y="67"/>
      <point x="910" y="160"/>
      <point x="910" y="294" type="curve" smooth="yes"/>
      <point x="910" y="429"/>
      <point x="810" y="522"/>
      <point x="677" y="522" type="curve" smooth="yes"/>
      <point x="591" y="522"/>
      <point x="513" y="477"/>
    </contour>
    <contour>
      <point x="677" y="461" type="curve" smooth="yes"/>
      <point x="777" y="461"/>
      <point x="845" y="395"/>
      <point x="845" y="294" type="curve" smooth="yes"/>
      <point x="845" y="194"/>
      <point x="779" y="128"/>
      <point x="677" y="128" type="curve" smooth="yes"/>
      <point x="579" y="128"/>
      <point x="514" y="197"/>
      <point x="514" y="294" type="curve" smooth="yes"/>
      <point x="514" y="392"/>
      <point x="579" y="461"/>
    </contour>
    <contour>
      <point x="284" y="128" type="curve" smooth="yes"/>
      <point x="184" y="128"/>
      <point x="116" y="195"/>
      <point x="116" y="294" type="curve" smooth="yes"/>
      <point x="116" y="395"/>
      <point x="184" y="461"/>
      <point x="284" y="461" type="curve" smooth="yes"/>
      <point x="384" y="461"/>
      <point x="447" y="392"/>
      <point x="447" y="294" type="curve" smooth="yes"/>
      <point x="447" y="197"/>
      <point x="384" y="128"/>
    </contour>
  </outline>
</glyph>
<glyph name="dvSA" format="1">
  <advance width="792"/>
  <unicode hex="0938"/>
  <outline>
    <contour>
      <point x="394" y="230" type="line"/>
      <point x="395" y="121"/>
      <point x="364" y="59"/>
      <point x="274" y="59" type="curve" smooth="yes"/>
      <point x="184" y="59"/>
      <point x="154" y="123"/>
      <point x="154" y="213" type="curve" smooth="yes"/>
      <point x="154" y="387" type="line"/>
      <point x="365" y="387"/>
      <point x="419" y="432"/>
      <point x="419" y="665" type="curve"/>
      <point x="419" y="731" type="line"/>
      <point x="355" y="731" type="line"/>
      <point x="355" y="663" type="line"/>
      <point x="355" y="472"/>
      <point x="329" y="424"/>
      <point x="128" y="424" type="curve" smooth="yes"/>
      <point x="115" y="424"/>
      <point x="102" y="425"/>
      <point x="88" y="425" type="curve"/>
      <point x="88" y="213" type="line" smooth="yes"/>
      <point x="88" y="89"/>
      <point x="148" y="-1"/>
      <point x="274" y="-1" type="curve" smooth="yes"/>
      <point x="400" y="-1"/>
      <point x="465" y="90"/>
      <point x="460" y="230" type="curve"/>
    </contour>
    <contour>
      <point x="832" y="680" type="line"/>
      <point x="832" y="740" type="line"/>
      <point x="-40" y="740" type="line"/>
      <point x="-40" y="680" type="line"/>
    </contour>
    <contour>
      <point x="627" y="705" type="curve"/>
      <point x="627" y="0" type="line"/>
      <point x="692" y="0" type="line"/>
      <point x="692" y="705" type="line"/>
      <point x="692" y="705"/>
      <point x="627" y="705"/>
    </contour>
    <contour>
      <point x="676" y="369" type="curve"/>
      <point x="676" y="424" type="line"/>
      <point x="170" y="424" type="line"/>
      <point x="146" y="369" type="line"/>
      <point x="146" y="369"/>
      <point x="676" y="369"/>
    </contour>
  </outline>
</glyph>
<glyph name="dvNukta" format="1">
  <advance width="0"/>
  <unicode hex="093C"/>
  <outline>
    <contour>
      <point x="-377" y="-122" type="curve" smooth="yes"/>
      <point x="-350" y="-122"/>
      <point x="-328" y="-100"/>
      <point x="-328" y="-73" type="curve" smooth="yes"/>
      <point x="-328" y="-46"/>
      <point x="-350" y="-24"/>
      <point x="-377" y="-24" type="curve" smooth="yes"/>
      <point x="-404" y="-24"/>
      <point x="-426" y="-46"/>
      <point x="-426" y="-73" type="curve" smooth="yes"/>
      <point x="-426" y="-100"/>
      <point x="-404" y="-122"/>
    </contour>
  </outline>
</glyph>
<glyph name="dvmII" format="1">
  <advance width="265"/>
  <unicode hex="0940"/>
  <outline>
    <contour>
      <point x="-173" y="780" type="curve" smooth="yes"/>
      <point x="-173" y="703" type="line"/>
      <point x="-111" y="703" type="line"/>
      <point x="-111" y="770" type="line" smooth="yes"/>
      <point x="-111" y="873"/>
      <point x="-88" y="928"/>
      <point x="-2" y="928" type="curve"/>
      <point x="84" y="928"/>
      <point x="107" y="873"/>
      <point x="107" y="770" type="curve"/>
      <point x="107" y="703" type="line"/>
      <point x="169" y="703" type="line"/>
      <point x="169" y="780" type="line"/>
      <point x="169" y="899"/>
      <point x="131" y="988"/>
      <point x="-2" y="988" type="curve"/>
      <point x="-135" y="988"/>
      <point x="-173" y="899"/>
    </contour>
    <contour>
      <point x="305" y="680" type="curve"/>
      <point x="305" y="740" type="line"/>
      <point x="-40" y="740" type="line"/>
      <point x="-40" y="680" type="line"/>
      <point x="100" y="680" type="line"/>
      <point x="100" y="0" type="line"/>
      <point x="165" y="0" type="line"/>
      <point x="165" y="680" type="line"/>
      <point x="165" y="680"/>
      <point x="305" y="680"/>
    </contour>
  </outline>
</glyph>
<glyph name="dvmUU" format="1">
  <advance width="0"/>
  <unicode hex="0942"/>
  <outline>
    <contour>
      <point x="-39" y="0" type="move" name="_blwm.u"/>
    </contour>
    <contour>
      <point x="-95" y="-264" type="line"/>
      <point x="-205" y="-277"/>
      <point x="-286" y="-224"/>
      <point x="-286" y="-109" type="curve" smooth="yes"/>
      <point x="-286" y="5"/>
      <point x="-193" y="53"/>
      <point x="-101" y="53" type="curve" smooth="yes"/>
      <point x="58" y="53"/>
      <point x="139" y="-66"/>
      <point x="139" y="-251" type="curve"/>
      <point x="76" y="-251" type="line"/>
      <point x="76" y="-100"/>
      <point x="22" y="-5"/>
      <point x="-100" y="-5" type="curve" smooth="yes"/>
      <point x="-171" y="-5"/>
      <point x="-220" y="-44"/>
      <point x="-220" y="-109" type="curve" smooth="yes"/>
      <point x="-220" y="-184"/>
      <point x="-170" y="-218"/>
      <point x="-95" y="-205" type="curve"/>
    </contour>
  </outline>
</glyph>
<glyph name="dvmvR" format="1">
  <advance width="0"/>
  <unicode hex="0943"/>
  <outline>
    <contour>
      <point x="-100" y="0" type="move" name="_blwm.u"/>
    </contour>
    <contour>
      <point x="-100" y="56" type="line"/>
      <point x="-117" y="56" type="line" smooth="yes"/>
      <point x="-231" y="56"/>
      <point x="-293" y="-7"/>
      <point x="-293" y="-108" type="curve" smooth="yes"/>
      <point x="-293" y="-194"/>
      <point x="-240" y="-271"/>
      <point x="-124" y="-271" type="curve" smooth="yes"/>
      <point x="-98" y="-271"/>
      <point x="-68" y="-265"/>
      <point x="-51" y="-257" type="curve"/>
      <point x="-51" y="-201" type="line"/>
      <point x="-69" y="-209"/>
      <point x="-92" y="-215"/>
      <point x="-122" y="-215" type="curve" smooth="yes"/>
      <point x="-204" y="-215"/>
      <point x="-232" y="-165"/>
      <point x="-232" y="-108" type="curve" smooth="yes"/>
      <point x="-232" y="-38"/>
      <point x="-193" y="0"/>
      <point x="-117" y="0" type="curve" smooth="yes"/>
      <point x="-100" y="0" type="line"/>
    </contour>
  </outline>
</glyph>
<glyph name="dvmEcandra" format="1">
  <advance width="0"/>
  <unicode hex="0945"/>
  <outline>
    <contour>
      <point x="-100" y="740" type="move" name="_abvm.e"/>
    </contour>
    <contour>
      <point x="48" y="987" type="curve"/>
      <point x="-12" y="987" type="line"/>
      <point x="-12" y="931"/>
      <point x="-46" y="874"/>
      <point x="-132" y="874" type="curve" smooth="yes"/>
      <point x="-218" y="874"/>
      <point x="-252" y="931"/>
      <point x="-252" y="987" type="curve"/>
      <point x="-312" y="987" type="line"/>
      <point x="-312" y="899"/>
      <point x="-263" y="819"/>
      <point x="-132" y="819" type="curve" smooth="yes"/>
      <point x="-1" y="819"/>
      <point x="48" y="899"/>
    </contour>
  </outline>
</glyph>
<glyph name="dvmE" format="1">
  <advance width="0"/>
  <unicode hex="0947"/>
  <outline>
    <contour>
      <point x="-100" y="740" type="move" name="_abvm.e"/>
    </contour>
    <contour>
      <point x="-101" y="732" type="line"/>
      <point x="-247" y="967"/>
      <point x="-300" y="974"/>
      <point x="-452" y="974" type="curve" smooth="yes"/>
      <point x="-479" y="974" type="line"/>
      <point x="-479" y="914" type="line"/>
      <point x="-447" y="914" type="line" smooth="yes"/>
      <point x="-301" y="914"/>
      <point x="-289" y="902"/>
      <point x="-173" y="732" type="curve"/>
    </contour>
  </outline>
</glyph>
<glyph name="dvKxA" format="1">
  <advance width="1018"/>
  <unicode hex="0958"/>
  <outline>
    <contour>
      <point x="578" y="-101" type="move" name="blwm.u"/>
    </contour>
    <contour>
      <point x="552" y="0" type="move" name="blwm.virama"/>
    </contour>
    <contour>
      <point x="552" y="740" type="move" name="abvm.e"/>
    </contour>
    <component base="dvKA"/>
    <component base="dvNukta" xOffset="731" yOffset="62"/>
  </outline>
</glyph>
<glyph name="dvDDxA" format="1">
  <advance width="586"/>
  <unicode hex="095C"/>
  <outline>
    <contour>
      <point x="373" y="-264" type="move" name="blwm.u"/>
    </contour>
    <contour>
      <point x="364" y="-174" type="move" name="blwm.virama"/>
    </contour>
    <contour>
      <point x="469" y="740" type="move" name="abvm.e"/>
    </contour>
    <component base="dvDDA"/>
    <component base="dvNukta" xOffset="707" yOffset="-40"/>
  </outline>
</glyph>
<glyph name="dvDDHxA" format="1">
  <advance width="633"/>
  <unicode hex="095D"/>
  <outline>
    <contour>
      <point x="435" y="-246" type="move" name="blwm.u"/>
    </contour>
    <contour>
      <point x="427" y="-156" type="move" name="blwm.virama"/>
    </contour>
    <contour>
      <point x="470" y="740" type="move" name="abvm.e"/>
    </contour>
    <component base="dvDDHA"/>
    <component base="dvNukta" xOffset="761" yOffset="-25"/>
  </outline>
</glyph>
<glyph name="dvPHxA" format="1">
  <advance width="995"/>
  <unicode hex="095E"/>
  <outline>
    <contour>
      <point x="531" y="0" type="move" name="blwm.u"/>
    </contour>
    <contour>
      <point x="531" y="0" type="move" name="blwm.virama"/>
    </contour>
    <contour>
      <point x="531" y="740" type="move" name="abvm.e"/>
    </contour>
    <component base="dvPHA"/>
    <component base="dvNukta" xOffset="649" yOffset="152"/>
  </outline>
</glyph>
<glyph name="dvvRR" format="1">
  <advance width="966"/>
  <unicode hex="0960"/>
  <outline>
    <contour>
      <point x="490" y="0" type="line"/>
      <point x="555" y="0" type="line"/>
      <point x="555" y="340"/>
      <point x="555" y="680"/>
      <point x="555" y="680" type="curve"/>
      <point x="1004" y="680" type="line"/>
      <point x="1004" y="740" type="line"/>
      <point x="-40" y="740" type="line"/>
      <point x="-40" y="680" type="line"/>
      <point x="490" y="680" type="line"/>
    </contour>
    <contour>
      <point x="129" y="319" type="line"/>
      <point x="129" y="439"/>
      <point x="201" y="513"/>
      <point x="316" y="513" type="curve" smooth="yes"/>
      <point x="424" y="513"/>
      <point x="490" y="432"/>
      <point x="490" y="319" type="curve"/>
      <point x="521" y="325" type="line"/>
      <point x="531" y="449"/>
      <point x="461" y="573"/>
      <point x="306" y="573" type="curve" smooth="yes"/>
      <point x="160" y="573"/>
      <point x="64" y="471"/>
      <point x="64" y="319" type="curve"/>
    </contour>
    <contour>
      <point x="119" y="4" type="line"/>
      <point x="119" y="0" type="line"/>
      <point x="119" y="0"/>
      <point x="202" y="0"/>
      <point x="202" y="0" type="curve"/>
      <point x="511" y="317" type="line"/>
      <point x="511" y="317"/>
      <point x="496" y="376"/>
      <point x="496" y="376" type="curve"/>
    </contour>
    <contour>
      <point x="806" y="570" type="line"/>
      <point x="806" y="216" type="line"/>
      <point x="871" y="216" type="line"/>
      <point x="871" y="570" type="line"/>
    </contour>
    <contour>
      <point x="744" y="414" type="line"/>
      <point x="832" y="414"/>
      <point x="871" y="458"/>
      <point x="871" y="544" type="curve" smooth="yes"/>
      <point x="871" y="581" type="line"/>
      <point x="806" y="581" type="line"/>
      <point x="806" y="546" type="line" smooth="yes"/>
      <point x="806" y="492"/>
      <point x="800" y="471"/>
      <point x="743" y="471" type="curve" smooth="yes"/>
      <point x="528" y="471" type="line"/>
      <point x="528" y="414" type="line"/>
    </contour>
    <contour>
      <point x="892" y="-159" type="line"/>
      <point x="872" y="-163"/>
      <point x="852" y="-165"/>
      <point x="835" y="-165" type="curve" smooth="yes"/>
      <point x="768" y="-165"/>
      <point x="727" y="-136"/>
      <point x="727" y="-81" type="curve" smooth="yes"/>
      <point x="727" y="-14"/>
      <point x="782" y="10"/>
      <point x="846" y="10" type="curve" smooth="yes"/>
      <point x="872" y="10" type="line"/>
      <point x="872" y="66" type="line"/>
      <point x="850" y="66" type="line" smooth="yes"/>
      <point x="792" y="66"/>
      <point x="725" y="72"/>
      <point x="725" y="139" type="curve" smooth="yes"/>
      <point x="725" y="208"/>
      <point x="791" y="216"/>
      <point x="849" y="216" type="curve" smooth="yes"/>
      <point x="860" y="216" type="line"/>
      <point x="860" y="216"/>
      <point x="860" y="268"/>
      <point x="860" y="268" type="curve"/>
      <point x="807" y="268" type="line" smooth="yes"/>
      <point x="737" y="267"/>
      <point x="664" y="232"/>
      <point x="664" y="142" type="curve" smooth="yes"/>
      <point x="664" y="91"/>
      <point x="694" y="51"/>
      <point x="734" y="34" type="curve"/>
      <point x="694" y="13"/>
      <point x="666" y="-29"/>
      <point x="666" y="-83" type="curve" smooth="yes"/>
      <point x="666" y="-161"/>
      <point x="723" y="-220"/>
      <point x="831" y="-220" type="curve" smooth="yes"/>
      <point x="850" y="-220"/>
      <point x="870" y="-218"/>
      <point x="892" y="-213" type="curve"/>
    </contour>
  </outline>
</glyph>
<glyph name="danda" format="1">
  <advance width="235"/>
  <unicode hex="0964"/>
  <outline>
    <contour>
      <point x="150" y="741" type="line"/>
      <point x="150" y="0" type="line"/>
      <point x="215" y="0" type="line"/>
      <point x="215" y="741" type="line"/>
    </contour>
  </outline>
</glyph>
<glyph name="endash" format="1">
  <advance width="719"/>
  <unicode hex="2013"/>
  <outline>
    <contour>
      <point x="100" y="340" type="line"/>
      <point x="619" y="340" type="line"/>
      <point x="619" y="400" type="line"/>
      <point x="100" y="400" type="line"/>
    </contour>
  </outline>
</glyph>
<glyph name="daggerdbl" format="1">
  <advance width="531"/>
  <unicode hex="2021"/>
  <outline>
    <contour>
      <point x="481" y="546" type="line"/>
      <point x="292" y="538" type="line"/>
      <point x="300" y="779" type="line"/>
      <point x="231" y="779" type="line"/>
      <point x="239" y="538" type="line"/>
      <point x="50" y="546" type="line"/>
      <point x="50" y="489" type="line"/>
      <point x="239" y="497" type="line"/>
      <point x="239" y="24" type="line"/>
      <point x="50" y="32" type="line"/>
      <point x="50" y="-25" type="line"/>
      <point x="239" y="-17" type="line"/>
      <point x="231" y="-258" type="line"/>
      <point x="300" y="-258" type="line"/>
      <point x="292" y="-17" type="line"/>
      <point x="481" y="-25" type="line"/>
      <point x="481" y="32" type="line"/>
      <point x="292" y="24" type="line"/>
      <point x="292" y="497" type="line"/>
      <point x="481" y="489" type="line"/>
    </contour>
  </outline>
</glyph>
<glyph name="fraction" format="1">
  <advance width="600"/>
  <unicode hex="2044"/>
  <outline>
    <contour>
      <point x="84" y="0" type="line"/>
      <point x="84" y="0"/>
      <point x="155" y="0"/>
      <point x="155" y="0" type="curve"/>
      <point x="565" y="690" type="line"/>
      <point x="565" y="690"/>
      <point x="494" y="690"/>
      <point x="494" y="690" type="curve"/>
    </contour>
  </outline>
</glyph>
<glyph name="Euro" format="1">
  <advance width="795"/>
  <unicode hex="20AC"/>
  <outline>
    <contour>
      <point x="462" y="402" type="line"/>
      <point x="462" y="459" type="line"/>
      <point x="30" y="459" type="line"/>
      <point x="30" y="402" type="line"/>
    </contour>
    <contour>
      <point x="462" y="232" type="line"/>
      <point x="462" y="289" type="line"/>
      <point x="30" y="289" type="line"/>
      <point x="30" y="232" type="line"/>
    </contour>
    <contour>
      <point x="111" y="345" type="curve" smooth="yes"/>
      <point x="111" y="139"/>
      <point x="267" y="-6"/>
      <point x="462" y="-6" type="curve" smooth="yes"/>
      <point x="600" y="-6"/>
      <point x="718" y="57"/>
      <point x="775" y="182" type="curve"/>
      <point x="690" y="182" type="line"/>
      <point x="647" y="101"/>
      <point x="563" y="54"/>
      <point x="462" y="54" type="curve" smooth="yes"/>
      <point x="304" y="54"/>
      <point x="183" y="168"/>
      <point x="183" y="345" type="curve" smooth="yes"/>
      <point x="183" y="523"/>
      <point x="304" y="636"/>
      <point x="462" y="636" type="curve" smooth="yes"/>
      <point x="563" y="636"/>
      <point x="647" y="590"/>
      <point x="690" y="509" type="curve"/>
      <point x="775" y="509" type="line"/>
      <point x="718" y="634"/>
      <point x="600" y="697"/>
      <point x="462" y="697" type="curve" smooth="yes"/>
      <point x="267" y="697"/>
      <point x="111" y="552"/>
    </contour>
  </outline>
</glyph>
<glyph name="ruble" format="1">
  <advance width="602"/>
  <unicode hex="20BD"/>
  <outline>
    <contour>
      <point x="31" y="289" type="line"/>
      <point x="326" y="289" type="line" smooth="yes"/>
      <point x="488" y="289"/>
      <point x="562" y="375"/>
      <point x="562" y="489" type="curve" smooth="yes"/>
      <point x="562" y="604"/>
      <point x="486" y="690"/>
      <point x="326" y="690" type="curve" smooth="yes"/>
      <point x="115" y="690" type="line"/>
      <point x="115" y="0" type="line"/>
      <point x="185" y="0" type="line"/>
      <point x="185" y="633" type="line"/>
      <point x="326" y="633" type="line" smooth="yes"/>
      <point x="444" y="633"/>
      <point x="491" y="578"/>
      <point x="491" y="489" type="curve" smooth="yes"/>
      <point x="491" y="403"/>
      <point x="444" y="346"/>
      <point x="326" y="346" type="curve" smooth="yes"/>
      <point x="31" y="346" type="line"/>
    </contour>
    <contour>
      <point x="30" y="130" type="line"/>
      <point x="419" y="130" type="line"/>
      <point x="419" y="190" type="line"/>
      <point x="30" y="190" type="line"/>
    </contour>
  </outline>
</glyph>
<glyph name="trademark" format="1">
  <advance width="757"/>
  <unicode hex="2122"/>
  <outline>
    <contour>
      <point x="20" y="661" type="line"/>
      <point x="100" y="661" type="line"/>
      <point x="100" y="352" type="line"/>
      <point x="158" y="352" type="line"/>
      <point x="158" y="661" type="line"/>
      <point x="239" y="661" type="line"/>
      <point x="239" y="704" type="line"/>
      <point x="20" y="704" type="line"/>
    </contour>
    <contour>
      <point x="303" y="352" type="line"/>
      <point x="361" y="352" type="line"/>
      <point x="361" y="623" type="line"/>
      <point x="348" y="623" type="line"/>
      <point x="473" y="352" type="line"/>
      <point x="516" y="352" type="line"/>
      <point x="642" y="623" type="line"/>
      <point x="629" y="623" type="line"/>
      <point x="629" y="352" type="line"/>
      <point x="687" y="352" type="line"/>
      <point x="687" y="704" type="line"/>
      <point x="623" y="704" type="line"/>
      <point x="490" y="414" type="line"/>
      <point x="499" y="414" type="line"/>
      <point x="367" y="704" type="line"/>
      <point x="303" y="704" type="line"/>
    </contour>
  </outline>
</glyph>
<glyph name="estimated" format="1">
  <advance width="764"/>
  <unicode hex="212E"/>
  <outline>
    <contour>
      <point x="686" y="137" type="curve"/>
      <point x="650" y="175" type="line"/>
      <point x="567" y="93"/>
      <point x="494" y="43"/>
      <point x="391" y="43" type="curve" smooth="yes"/>
      <point x="288" y="43"/>
      <point x="223" y="79"/>
      <point x="170" y="149" type="curve"/>
      <point x="170" y="313" type="line"/>
      <point x="714" y="313" type="line"/>
      <point x="714" y="374" type="line" smooth="yes"/>
      <point x="714" y="540"/>
      <point x="596" y="697"/>
      <point x="382" y="697" type="curve" smooth="yes"/>
      <point x="168" y="697"/>
      <point x="50" y="534"/>
      <point x="50" y="329" type="curve" smooth="yes"/>
      <point x="50" y="113"/>
      <point x="196" y="-7"/>
      <point x="391" y="-7" type="curve" smooth="yes"/>
      <point x="506" y="-7"/>
      <point x="604" y="49"/>
    </contour>
    <contour>
      <point x="170" y="371" type="line"/>
      <point x="170" y="538" type="line"/>
      <point x="219" y="613"/>
      <point x="295" y="646"/>
      <point x="382" y="646" type="curve" smooth="yes"/>
      <point x="469" y="646"/>
      <point x="540" y="611"/>
      <point x="583" y="550" type="curve"/>
      <point x="583" y="371" type="line"/>
    </contour>
  </outline>
</glyph>
<glyph name="partialdiff" format="1">
  <advance width="559"/>
  <unicode hex="2202"/>
  <outline>
    <contour>
      <point x="436" y="323" type="curve" smooth="yes"/>
      <point x="436" y="176"/>
      <point x="338" y="46"/>
      <point x="231" y="46" type="curve" smooth="yes"/>
      <point x="157" y="46"/>
      <point x="111" y="101"/>
      <point x="111" y="216" type="curve" smooth="yes"/>
      <point x="111" y="374"/>
      <point x="200" y="500"/>
      <point x="307" y="500" type="curve" smooth="yes"/>
      <point x="387" y="500"/>
      <point x="436" y="438"/>
    </contour>
    <contour>
      <point x="40" y="216" type="curve" smooth="yes"/>
      <point x="40" y="61"/>
      <point x="119" y="-10"/>
      <point x="220" y="-10" type="curve" smooth="yes"/>
      <point x="385" y="-10"/>
      <point x="519" y="153"/>
      <point x="519" y="414" type="curve" smooth="yes"/>
      <point x="519" y="628"/>
      <point x="444" y="740"/>
      <point x="301" y="740" type="curve" smooth="yes"/>
      <point x="271" y="740"/>
      <point x="243" y="736"/>
      <point x="211" y="727" type="curve"/>
      <point x="211" y="681" type="line"/>
      <point x="240" y="689"/>
      <point x="266" y="692"/>
      <point x="291" y="692" type="curve" smooth="yes"/>
      <point x="392" y="692"/>
      <point x="444" y="602"/>
      <point x="449" y="475" type="curve"/>
      <point x="420" y="528"/>
      <point x="378" y="556"/>
      <point x="315" y="556" type="curve" smooth="yes"/>
      <point x="154" y="556"/>
      <point x="40" y="387"/>
    </contour>
  </outline>
</glyph>
<glyph name="Delta.math" format="1">
  <advance width="666"/>
  <unicode hex="2206"/>
  <outline>
    <contour>
      <point x="20" y="55" type="line"/>
      <point x="20" y="0" type="line"/>
      <point x="646" y="0" type="line"/>
      <point x="646" y="55" type="line"/>
      <point x="362" y="690" type="line"/>
      <point x="303" y="690" type="line"/>
    </contour>
    <contour>
      <point x="575" y="55" type="line"/>
      <point x="91" y="55" type="line"/>
      <point x="332" y="610" type="line"/>
    </contour>
  </outline>
</glyph>
<glyph name="product" format="1">
  <advance width="736"/>
  <unicode hex="220F"/>
  <outline>
    <contour>
      <point x="40" y="633" type="line"/>
      <point x="121" y="633" type="line"/>
      <point x="121" y="0" type="line"/>
      <point x="190" y="0" type="line"/>
      <point x="190" y="633" type="line"/>
      <point x="546" y="633" type="line"/>
      <point x="546" y="0" type="line"/>
      <point x="615" y="0" type="line"/>
      <point x="615" y="633" type="line"/>
      <point x="696" y="633" type="line"/>
      <point x="696" y="690" type="line"/>
      <point x="40" y="690" type="line"/>
    </contour>
  </outline>
</glyph>
<glyph name="minus" format="1">
  <advance width="589"/>
  <unicode hex="2212"/>
  <outline>
    <contour>
      <point x="100" y="340" type="line"/>
      <point x="489" y="340" type="line"/>
      <point x="489" y="400" type="line"/>
      <point x="100" y="400" type="line"/>
    </contour>
  </outline>
</glyph>
<glyph name="radical" format="1">
  <advance width="750"/>
  <unicode hex="221A"/>
  <outline>
    <contour>
      <point x="235" y="29" type="line"/>
      <point x="261" y="19" type="line"/>
      <point x="138" y="236" type="line"/>
      <point x="22" y="166" type="line"/>
      <point x="44" y="127" type="line"/>
      <point x="104" y="163" type="line"/>
      <point x="222" y="-44" type="line"/>
      <point x="261" y="-44" type="line"/>
      <point x="745" y="859" type="line"/>
      <point x="681" y="859" type="line"/>
    </contour>
  </outline>
</glyph>
<glyph name="integral" format="1">
  <advance width="253"/>
  <unicode hex="222B"/>
  <outline>
    <contour>
      <point x="50" y="-50" type="line" smooth="yes"/>
      <point x="44" y="-104"/>
      <point x="25" y="-124"/>
      <point x="-14" y="-124" type="curve" smooth="yes"/>
      <point x="-30" y="-124" type="line"/>
      <point x="-36" y="-179" type="line"/>
      <point x="-11" y="-179" type="line" smooth="yes"/>
      <point x="73" y="-179"/>
      <point x="110" y="-139"/>
      <point x="120" y="-50" type="curve" smooth="yes"/>
      <point x="213" y="782" type="line" smooth="yes"/>
      <point x="219" y="837"/>
      <point x="238" y="856"/>
      <point x="277" y="856" type="curve" smooth="yes"/>
      <point x="293" y="856" type="line"/>
      <point x="299" y="911" type="line"/>
      <point x="274" y="911" type="line" smooth="yes"/>
      <point x="190" y="911"/>
      <point x="153" y="872"/>
      <point x="143" y="782" type="curve" smooth="yes"/>
    </contour>
  </outline>
</glyph>
<glyph name="notequal" format="1">
  <advance width="770"/>
  <unicode hex="2260"/>
  <outline>
    <contour>
      <point x="130" y="137" type="line"/>
      <point x="130" y="137"/>
      <point x="204" y="137"/>
      <point x="204" y="137" type="curve"/>
      <point x="640" y="603" type="line"/>
      <point x="640" y="603"/>
      <point x="565" y="603"/>
      <point x="565" y="603" type="curve"/>
    </contour>
    <component base="equal"/>
  </outline>
</glyph>
<glyph name="greaterequal" format="1">
  <advance width="550"/>
  <unicode hex="2265"/>
  <outline>
    <contour>
      <point x="198" y="214" type="line"/>
      <point x="450" y="408" type="line"/>
      <point x="198" y="602" type="line"/>
      <point x="100" y="602" type="line"/>
      <point x="372" y="393" type="line"/>
      <point x="372" y="424" type="line"/>
      <point x="100" y="214" type="line"/>
    </contour>
    <contour>
      <point x="104" y="171" type="line"/>
      <point x="104" y="120" type="line"/>
      <point x="450" y="120" type="line"/>
      <point x="450" y="171" type="line"/>
    </contour>
  </outline>
</glyph>
<glyph name="lozenge" format="1">
  <advance width="551"/>
  <unicode hex="25CA"/>
  <outline>
    <contour>
      <point x="40" y="349" type="line"/>
      <point x="275" y="113" type="line"/>
      <point x="511" y="349" type="line"/>
      <point x="276" y="585" type="line"/>
    </contour>
    <contour>
      <point x="431" y="349" type="line"/>
      <point x="275" y="193" type="line"/>
      <point x="120" y="349" type="line"/>
      <point x="276" y="505" type="line"/>
    </contour>
  </outline>
</glyph>
<glyph name="fi" format="1">
  <advance width="548"/>
  <unicode hex="FB01"/>
  <outline>
    <contour>
      <point x="99" y="0" type="line"/>
      <point x="169" y="0" type="line"/>
      <point x="169" y="599" type="line" smooth="yes"/>
      <point x="169" y="675"/>
      <point x="198" y="707"/>
      <point x="288" y="707" type="curve"/>
      <point x="288" y="763" type="line"/>
      <point x="157" y="763"/>
      <point x="99" y="714"/>
      <point x="99" y="599" type="curve" smooth="yes"/>
    </contour>
    <contour>
      <point x="439" y="649" type="curve" smooth="yes"/>
      <point x="468" y="649"/>
      <point x="490" y="672"/>
      <point x="490" y="701" type="curve" smooth="yes"/>
      <point x="490" y="729"/>
      <point x="468" y="752"/>
      <point x="439" y="752" type="curve" smooth="yes"/>
      <point x="411" y="752"/>
      <point x="388" y="729"/>
      <point x="388" y="701" type="curve" smooth="yes"/>
      <point x="388" y="672"/>
      <point x="411" y="649"/>
    </contour>
    <contour>
      <point x="23" y="546" type="line"/>
      <point x="23" y="491" type="line"/>
      <point x="403" y="491" type="line"/>
      <point x="403" y="0" type="line"/>
      <point x="473" y="0" type="line"/>
      <point x="473" y="546" type="line"/>
    </contour>
  </outline>
</glyph>
<glyph name="commaaccent.alt" format="1">
  <advance width="111"/>
  <outline>
    <contour>
      <point x="55" y="10" type="move" name="_commaaccent"/>
    </contour>
    <contour>
      <point x="11" y="-50" type="line"/>
      <point x="11" y="-126" type="line"/>
      <point x="56" y="-126" type="line"/>
      <point x="56" y="-151" type="line" smooth="yes"/>
      <point x="56" y="-183"/>
      <point x="43" y="-200"/>
      <point x="10" y="-200" type="curve"/>
      <point x="10" y="-238" type="line"/>
      <point x="68" y="-238"/>
      <point x="101" y="-212"/>
      <point x="101" y="-135" type="curve" smooth="yes"/>
      <point x="101" y="-111"/>
      <point x="98" y="-83"/>
      <point x="92" y="-50" type="curve"/>
    </contour>
  </outline>
</glyph>
<glyph name="dvAvagraha" format="1">
  <advance width="600"/>
  <outline>
    <contour>
      <point x="271" y="540" type="curve" smooth="yes"/>
      <point x="271" y="599"/>
      <point x="325" y="612"/>
      <point x="402" y="612" type="curve" smooth="yes"/>
      <point x="547" y="612" type="line"/>
      <point x="547" y="672" type="line"/>
      <point x="368" y="672" type="line" smooth="yes"/>
      <point x="281" y="672"/>
      <point x="207" y="646"/>
      <point x="207" y="556" type="curve" smooth="yes"/>
      <point x="207" y="439"/>
      <point x="402" y="248"/>
      <point x="402" y="169" type="curve" smooth="yes"/>
      <point x="402" y="129"/>
      <point x="368" y="125"/>
      <point x="305" y="125" type="curve" smooth="yes"/>
      <point x="53" y="125" type="line"/>
      <point x="53" y="65" type="line"/>
      <point x="306" y="65" type="line" smooth="yes"/>
      <point x="434" y="65"/>
      <point x="469" y="90"/>
      <point x="469" y="153" type="curve" smooth="yes"/>
      <point x="469" y="269"/>
      <point x="271" y="458"/>
    </contour>
  </outline>
</glyph>
<glyph name="dvBH_NA" format="1">
  <advance width="1274"/>
  <outline>
    <contour>
      <point x="383" y="326" type="line"/>
      <point x="383" y="228"/>
      <point x="362" y="169"/>
      <point x="274" y="169" type="curve" smooth="yes"/>
      <point x="209" y="169"/>
      <point x="162" y="214"/>
      <point x="162" y="278" type="curve" smooth="yes"/>
      <point x="162" y="369"/>
      <point x="227" y="390"/>
      <point x="321" y="390" type="curve" smooth="yes"/>
      <point x="663" y="390" type="line"/>
      <point x="663" y="448" type="line"/>
      <point x="328" y="448" type="line" smooth="yes"/>
      <point x="172" y="448"/>
      <point x="97" y="395"/>
      <point x="97" y="280" type="curve" smooth="yes"/>
      <point x="97" y="180"/>
      <point x="176" y="110"/>
      <point x="275" y="110" type="curve" smooth="yes"/>
      <point x="394" y="110"/>
      <point x="447" y="185"/>
      <point x="447" y="326" type="curve" smooth="yes"/>
      <point x="447" y="541" type="line" smooth="yes"/>
      <point x="447" y="666"/>
      <point x="399" y="745"/>
      <point x="284" y="745" type="curve" smooth="yes"/>
      <point x="168" y="745"/>
      <point x="122" y="665"/>
      <point x="122" y="536" type="curve"/>
      <point x="185" y="536" type="line"/>
      <point x="185" y="627"/>
      <point x="205" y="685"/>
      <point x="283" y="685" type="curve" smooth="yes"/>
      <point x="362" y="685"/>
      <point x="383" y="625"/>
      <point x="383" y="541" type="curve"/>
    </contour>
    <contour>
      <point x="1109" y="0" type="line"/>
      <point x="1174" y="0" type="line"/>
      <point x="1174" y="680" type="line"/>
      <point x="1314" y="680" type="line"/>
      <point x="1314" y="740" type="line"/>
      <point x="559" y="740" type="line"/>
      <point x="559" y="680" type="line"/>
      <point x="1109" y="680" type="line"/>
      <point x="1109" y="487" type="line"/>
      <point x="789" y="487" type="line" smooth="yes"/>
      <point x="638" y="487"/>
      <point x="566" y="413"/>
      <point x="566" y="298" type="curve" smooth="yes"/>
      <point x="566" y="182"/>
      <point x="655" y="110"/>
      <point x="767" y="110" type="curve" smooth="yes"/>
      <point x="883" y="110"/>
      <point x="955" y="190"/>
      <point x="955" y="293" type="curve" smooth="yes"/>
      <point x="955" y="352"/>
      <point x="931" y="404"/>
      <point x="884" y="429" type="curve"/>
      <point x="1109" y="429" type="line"/>
    </contour>
    <contour>
      <point x="762" y="428" type="curve" smooth="yes"/>
      <point x="842" y="428"/>
      <point x="891" y="375"/>
      <point x="891" y="298" type="curve" smooth="yes"/>
      <point x="891" y="212"/>
      <point x="830" y="169"/>
      <point x="767" y="169" type="curve" smooth="yes"/>
      <point x="697" y="169"/>
      <point x="631" y="207"/>
      <point x="631" y="298" type="curve" smooth="yes"/>
      <point x="631" y="382"/>
      <point x="692" y="428"/>
    </contour>
  </outline>
</glyph>
<glyph name="dvBH_R" format="1">
  <advance width="522"/>
  <outline>
    <contour>
      <point x="383" y="331" type="line"/>
      <point x="383" y="233"/>
      <point x="362" y="174"/>
      <point x="274" y="174" type="curve" smooth="yes"/>
      <point x="209" y="174"/>
      <point x="162" y="219"/>
      <point x="162" y="283" type="curve" smooth="yes"/>
      <point x="162" y="374"/>
      <point x="227" y="395"/>
      <point x="321" y="395" type="curve" smooth="yes"/>
      <point x="663" y="395" type="line"/>
      <point x="663" y="453" type="line"/>
      <point x="328" y="453" type="line" smooth="yes"/>
      <point x="172" y="453"/>
      <point x="97" y="400"/>
      <point x="97" y="285" type="curve" smooth="yes"/>
      <point x="97" y="185"/>
      <point x="176" y="115"/>
      <point x="275" y="115" type="curve" smooth="yes"/>
      <point x="394" y="115"/>
      <point x="447" y="190"/>
      <point x="447" y="331" type="curve" smooth="yes"/>
      <point x="447" y="541" type="line" smooth="yes"/>
      <point x="447" y="666"/>
      <point x="399" y="745"/>
      <point x="284" y="745" type="curve" smooth="yes"/>
      <point x="168" y="745"/>
      <point x="122" y="665"/>
      <point x="122" y="536" type="curve"/>
      <point x="185" y="536" type="line"/>
      <point x="185" y="627"/>
      <point x="205" y="685"/>
      <point x="283" y="685" type="curve" smooth="yes"/>
      <point x="362" y="685"/>
      <point x="383" y="625"/>
      <point x="383" y="541" type="curve"/>
    </contour>
    <contour>
      <point x="358" y="-10" type="line"/>
      <point x="358" y="-10"/>
      <point x="441" y="-10"/>
      <point x="441" y="-10" type="curve"/>
      <point x="663" y="268" type="line"/>
      <point x="663" y="268"/>
      <point x="663" y="339"/>
      <point x="663" y="339" type="curve"/>
    </contour>
  </outline>
</glyph>
<glyph name="dvBH_RA" format="1">
  <advance width="785"/>
  <outline>
    <contour>
      <point x="685" y="-46" type="move" name="blwm.u"/>
    </contour>
    <contour>
      <point x="620" y="0" type="line"/>
      <point x="685" y="0" type="line"/>
      <point x="685" y="730" type="line"/>
      <point x="685" y="730"/>
      <point x="620" y="730"/>
      <point x="620" y="730" type="curve"/>
    </contour>
    <contour>
      <point x="825" y="680" type="line"/>
      <point x="825" y="740" type="line"/>
      <point x="620" y="740" type="line"/>
      <point x="620" y="680" type="line"/>
    </contour>
    <contour>
      <point x="383" y="331" type="line"/>
      <point x="383" y="233"/>
      <point x="362" y="174"/>
      <point x="274" y="174" type="curve" smooth="yes"/>
      <point x="209" y="174"/>
      <point x="162" y="219"/>
      <point x="162" y="283" type="curve" smooth="yes"/>
      <point x="162" y="374"/>
      <point x="227" y="395"/>
      <point x="321" y="395" type="curve" smooth="yes"/>
      <point x="663" y="395" type="line"/>
      <point x="663" y="453" type="line"/>
      <point x="328" y="453" type="line" smooth="yes"/>
      <point x="172" y="453"/>
      <point x="97" y="400"/>
      <point x="97" y="285" type="curve" smooth="yes"/>
      <point x="97" y="185"/>
      <point x="176" y="115"/>
      <point x="275" y="115" type="curve" smooth="yes"/>
      <point x="394" y="115"/>
      <point x="447" y="190"/>
      <point x="447" y="331" type="curve" smooth="yes"/>
      <point x="447" y="541" type="line"/>
      <point x="447" y="666"/>
      <point x="399" y="745"/>
      <point x="284" y="745" type="curve" smooth="yes"/>
      <point x="168" y="745"/>
      <point x="122" y="665"/>
      <point x="122" y="536" type="curve"/>
      <point x="185" y="536" type="line"/>
      <point x="185" y="627"/>
      <point x="205" y="685"/>
      <point x="283" y="685" type="curve" smooth="yes"/>
      <point x="362" y="685"/>
      <point x="383" y="625"/>
      <point x="383" y="541" type="curve"/>
    </contour>
    <contour>
      <point x="291" y="-53" type="line"/>
      <point x="291" y="-53"/>
      <point x="374" y="-53"/>
      <point x="374" y="-53" type="curve"/>
      <point x="668" y="274" type="line"/>
      <point x="668" y="274"/>
      <point x="639" y="312"/>
      <point x="639" y="312" type="curve"/>
    </contour>
  </outline>
</glyph>
<glyph name="dvBH_VA" format="1">
  <advance width="1183"/>
  <outline>
    <contour>
      <point x="383" y="326" type="line"/>
      <point x="383" y="228"/>
      <point x="362" y="169"/>
      <point x="274" y="169" type="curve" smooth="yes"/>
      <point x="209" y="169"/>
      <point x="162" y="214"/>
      <point x="162" y="278" type="curve" smooth="yes"/>
      <point x="162" y="369"/>
      <point x="227" y="390"/>
      <point x="321" y="390" type="curve" smooth="yes"/>
      <point x="653" y="390" type="line"/>
      <point x="653" y="448" type="line"/>
      <point x="328" y="448" type="line" smooth="yes"/>
      <point x="172" y="448"/>
      <point x="97" y="395"/>
      <point x="97" y="280" type="curve" smooth="yes"/>
      <point x="97" y="180"/>
      <point x="176" y="110"/>
      <point x="275" y="110" type="curve" smooth="yes"/>
      <point x="394" y="110"/>
      <point x="447" y="185"/>
      <point x="447" y="326" type="curve" smooth="yes"/>
      <point x="447" y="541" type="line" smooth="yes"/>
      <point x="447" y="666"/>
      <point x="399" y="745"/>
      <point x="284" y="745" type="curve" smooth="yes"/>
      <point x="168" y="745"/>
      <point x="122" y="665"/>
      <point x="122" y="536" type="curve"/>
      <point x="185" y="536" type="line"/>
      <point x="185" y="627"/>
      <point x="205" y="685"/>
      <point x="283" y="685" type="curve" smooth="yes"/>
      <point x="362" y="685"/>
      <point x="383" y="625"/>
      <point x="383" y="541" type="curve"/>
    </contour>
    <contour>
      <point x="827" y="103" type="curve" smooth="yes"/>
      <point x="984" y="103"/>
      <point x="1059" y="216"/>
      <point x="1049" y="333" type="curve"/>
      <point x="1018" y="339" type="line"/>
      <point x="1018" y="231"/>
      <point x="945" y="163"/>
      <point x="837" y="163" type="curve" smooth="yes"/>
      <point x="728" y="163"/>
      <point x="658" y="230"/>
      <point x="658" y="339" type="curve"/>
      <point x="658" y="448"/>
      <point x="728" y="515"/>
      <point x="837" y="515" type="curve" smooth="yes"/>
      <point x="945" y="515"/>
      <point x="1018" y="447"/>
      <point x="1018" y="339" type="curve"/>
      <point x="1049" y="345" type="line"/>
      <point x="1059" y="462"/>
      <point x="984" y="575"/>
      <point x="827" y="575" type="curve" smooth="yes"/>
      <point x="690" y="575"/>
      <point x="593" y="477"/>
      <point x="593" y="339" type="curve"/>
      <point x="593" y="201"/>
      <point x="690" y="103"/>
    </contour>
    <contour>
      <point x="1223" y="740" type="line"/>
      <point x="534" y="740" type="line"/>
      <point x="534" y="680" type="line"/>
      <point x="1018" y="680" type="line"/>
      <point x="1018" y="0" type="line"/>
      <point x="1083" y="0" type="line"/>
      <point x="1083" y="340"/>
      <point x="1083" y="680"/>
      <point x="1083" y="680" type="curve"/>
      <point x="1223" y="680" type="line"/>
    </contour>
  </outline>
</glyph>
<glyph name="dvBH_YA" format="1">
  <advance width="1207"/>
  <outline>
    <contour>
      <point x="761" y="690" type="line"/>
      <point x="761" y="645" type="line"/>
      <point x="761" y="501"/>
      <point x="760" y="450"/>
      <point x="560" y="450" type="curve"/>
      <point x="551" y="245"/>
      <point x="647" y="114"/>
      <point x="832" y="114" type="curve" smooth="yes"/>
      <point x="994" y="114"/>
      <point x="1078" y="236"/>
      <point x="1058" y="358" type="curve"/>
      <point x="1042" y="409" type="line"/>
      <point x="1042" y="272"/>
      <point x="964" y="174"/>
      <point x="839" y="174" type="curve" smooth="yes"/>
      <point x="701" y="174"/>
      <point x="627" y="266"/>
      <point x="629" y="395" type="curve"/>
      <point x="805" y="404"/>
      <point x="826" y="490"/>
      <point x="826" y="644" type="curve"/>
      <point x="826" y="698" type="line"/>
    </contour>
    <contour>
      <point x="1042" y="680" type="line"/>
      <point x="1042" y="0" type="line"/>
      <point x="1107" y="0" type="line"/>
      <point x="1107" y="680" type="line"/>
      <point x="1107" y="680"/>
      <point x="1247" y="680"/>
      <point x="1247" y="680" type="curve"/>
      <point x="1247" y="740" type="line"/>
      <point x="544" y="740" type="line"/>
      <point x="544" y="680" type="line"/>
    </contour>
    <contour>
      <point x="383" y="328" type="line"/>
      <point x="383" y="230"/>
      <point x="362" y="171"/>
      <point x="274" y="171" type="curve" smooth="yes"/>
      <point x="209" y="171"/>
      <point x="162" y="216"/>
      <point x="162" y="280" type="curve" smooth="yes"/>
      <point x="162" y="371"/>
      <point x="227" y="392"/>
      <point x="321" y="392" type="curve" smooth="yes"/>
      <point x="569" y="392" type="line"/>
      <point x="569" y="450" type="line"/>
      <point x="328" y="450" type="line" smooth="yes"/>
      <point x="172" y="450"/>
      <point x="97" y="397"/>
      <point x="97" y="282" type="curve" smooth="yes"/>
      <point x="97" y="182"/>
      <point x="176" y="112"/>
      <point x="275" y="112" type="curve" smooth="yes"/>
      <point x="394" y="112"/>
      <point x="447" y="187"/>
      <point x="447" y="328" type="curve" smooth="yes"/>
      <point x="447" y="541" type="line" smooth="yes"/>
      <point x="447" y="666"/>
      <point x="399" y="745"/>
      <point x="284" y="745" type="curve" smooth="yes"/>
      <point x="168" y="745"/>
      <point x="122" y="665"/>
      <point x="122" y="536" type="curve"/>
      <point x="185" y="536" type="line"/>
      <point x="185" y="627"/>
      <point x="205" y="685"/>
      <point x="283" y="685" type="curve" smooth="yes"/>
      <point x="362" y="685"/>
      <point x="383" y="625"/>
      <point x="383" y="541" type="curve"/>
    </contour>
  </outline>
</glyph>
<glyph name="dvB_BH_RA" format="1">
  <advance width="1206"/>
  <outline>
    <contour>
      <point x="665" y="680" type="line"/>
      <point x="665" y="740" type="line"/>
      <point x="-40" y="740" type="line"/>
      <point x="-40" y="680" type="line"/>
    </contour>
    <contour>
      <point x="62" y="339" type="curve" smooth="yes"/>
      <point x="62" y="188"/>
      <point x="175" y="94"/>
      <point x="324" y="94" type="curve" smooth="yes"/>
      <point x="473" y="94"/>
      <point x="582" y="188"/>
      <point x="582" y="339" type="curve" smooth="yes"/>
      <point x="582" y="490"/>
      <point x="473" y="584"/>
      <point x="324" y="584" type="curve" smooth="yes"/>
      <point x="175" y="584"/>
      <point x="62" y="490"/>
    </contour>
    <contour>
      <point x="127" y="339" type="curve" smooth="yes"/>
      <point x="127" y="455"/>
      <point x="208" y="524"/>
      <point x="324" y="524" type="curve" smooth="yes"/>
      <point x="440" y="524"/>
      <point x="521" y="455"/>
      <point x="521" y="339" type="curve" smooth="yes"/>
      <point x="521" y="223"/>
      <point x="440" y="154"/>
      <point x="324" y="154" type="curve" smooth="yes"/>
      <point x="208" y="154"/>
      <point x="127" y="223"/>
    </contour>
    <contour>
      <point x="484" y="182" type="line"/>
      <point x="522" y="220" type="line"/>
      <point x="158" y="513" type="line"/>
      <point x="137" y="462" type="line"/>
    </contour>
    <contour>
      <point x="1041" y="0" type="line"/>
      <point x="1106" y="0" type="line"/>
      <point x="1106" y="730" type="line"/>
      <point x="1106" y="730"/>
      <point x="1041" y="730"/>
      <point x="1041" y="730" type="curve"/>
    </contour>
    <contour>
      <point x="1246" y="680" type="line"/>
      <point x="1246" y="740" type="line"/>
      <point x="1041" y="740" type="line"/>
      <point x="1041" y="680" type="line"/>
    </contour>
    <contour>
      <point x="606" y="536" type="line"/>
      <point x="606" y="627"/>
      <point x="626" y="685"/>
      <point x="704" y="685" type="curve" smooth="yes"/>
      <point x="783" y="685"/>
      <point x="804" y="625"/>
      <point x="804" y="541" type="curve"/>
      <point x="804" y="331" type="line" smooth="yes"/>
      <point x="804" y="233"/>
      <point x="783" y="174"/>
      <point x="695" y="174" type="curve" smooth="yes"/>
      <point x="630" y="174"/>
      <point x="583" y="219"/>
      <point x="583" y="283" type="curve" smooth="yes"/>
      <point x="583" y="374"/>
      <point x="648" y="395"/>
      <point x="742" y="395" type="curve" smooth="yes"/>
      <point x="1084" y="395" type="line"/>
      <point x="1084" y="453" type="line"/>
      <point x="749" y="453" type="line" smooth="yes"/>
      <point x="593" y="453"/>
      <point x="518" y="400"/>
      <point x="518" y="285" type="curve" smooth="yes"/>
      <point x="518" y="185"/>
      <point x="597" y="115"/>
      <point x="696" y="115" type="curve" smooth="yes"/>
      <point x="815" y="115"/>
      <point x="868" y="190"/>
      <point x="868" y="331" type="curve" smooth="yes"/>
      <point x="868" y="541" type="line"/>
      <point x="868" y="666"/>
      <point x="820" y="745"/>
      <point x="705" y="745" type="curve" smooth="yes"/>
      <point x="589" y="745"/>
      <point x="543" y="665"/>
      <point x="543" y="536" type="curve"/>
    </contour>
    <contour>
      <point x="779" y="-10" type="line"/>
      <point x="779" y="-10"/>
      <point x="862" y="-10"/>
      <point x="862" y="-10" type="curve"/>
      <point x="1089" y="274" type="line"/>
      <point x="1089" y="274"/>
      <point x="1060" y="312"/>
      <point x="1060" y="312" type="curve"/>
    </contour>
  </outline>
</glyph>
<glyph name="dvB_DH_VA" format="1">
  <advance width="1518"/>
  <outline>
    <contour>
      <point x="625" y="680" type="line"/>
      <point x="625" y="740" type="line"/>
      <point x="-40" y="740" type="line"/>
      <point x="-40" y="680" type="line"/>
    </contour>
    <contour>
      <point x="484" y="182" type="line"/>
      <point x="522" y="220" type="line"/>
      <point x="158" y="513" type="line"/>
      <point x="137" y="462" type="line"/>
    </contour>
    <contour>
      <point x="520" y="313" type="line"/>
      <point x="509" y="213"/>
      <point x="431" y="154"/>
      <point x="324" y="154" type="curve" smooth="yes"/>
      <point x="208" y="154"/>
      <point x="127" y="223"/>
      <point x="127" y="339" type="curve" smooth="yes"/>
      <point x="127" y="455"/>
      <point x="208" y="524"/>
      <point x="324" y="524" type="curve" smooth="yes"/>
      <point x="364" y="524"/>
      <point x="400" y="516"/>
      <point x="430" y="500" type="curve"/>
      <point x="430" y="562" type="line"/>
      <point x="402" y="576"/>
      <point x="363" y="584"/>
      <point x="324" y="584" type="curve" smooth="yes"/>
      <point x="175" y="584"/>
      <point x="62" y="490"/>
      <point x="62" y="339" type="curve" smooth="yes"/>
      <point x="62" y="188"/>
      <point x="175" y="94"/>
      <point x="324" y="94" type="curve" smooth="yes"/>
      <point x="458" y="94"/>
      <point x="560" y="170"/>
      <point x="579" y="296" type="curve"/>
    </contour>
    <component base="dvDH_VA" xOffset="420"/>
  </outline>
</glyph>
<glyph name="dvB_JA" format="1">
  <advance width="1266"/>
  <outline>
    <contour>
      <point x="522" y="341" type="line"/>
      <point x="526" y="213"/>
      <point x="558" y="100"/>
      <point x="710" y="100" type="curve" smooth="yes"/>
      <point x="877" y="100"/>
      <point x="899" y="231"/>
      <point x="899" y="376" type="curve" smooth="yes"/>
      <point x="899" y="518" type="line"/>
      <point x="834" y="518" type="line"/>
      <point x="834" y="398" type="line" smooth="yes"/>
      <point x="834" y="265"/>
      <point x="834" y="160"/>
      <point x="710" y="160" type="curve" smooth="yes"/>
      <point x="605" y="160"/>
      <point x="589" y="239"/>
      <point x="586" y="341" type="curve"/>
    </contour>
    <contour>
      <point x="1101" y="460" type="line"/>
      <point x="1101" y="0" type="line"/>
      <point x="1166" y="0" type="line"/>
      <point x="1166" y="680" type="line"/>
      <point x="1306" y="680" type="line"/>
      <point x="1306" y="740" type="line"/>
      <point x="407" y="740" type="line"/>
      <point x="407" y="680" type="line"/>
      <point x="1101" y="680" type="line"/>
      <point x="1101" y="518" type="line"/>
      <point x="839" y="518" type="line"/>
      <point x="839" y="460" type="line"/>
    </contour>
    <contour>
      <point x="585" y="680" type="line"/>
      <point x="585" y="740" type="line"/>
      <point x="-40" y="740" type="line"/>
      <point x="-40" y="680" type="line"/>
    </contour>
    <contour>
      <point x="62" y="339" type="curve" smooth="yes"/>
      <point x="62" y="188"/>
      <point x="175" y="94"/>
      <point x="324" y="94" type="curve" smooth="yes"/>
      <point x="473" y="94"/>
      <point x="586" y="188"/>
      <point x="586" y="339" type="curve" smooth="yes"/>
      <point x="586" y="490"/>
      <point x="473" y="584"/>
      <point x="324" y="584" type="curve" smooth="yes"/>
      <point x="175" y="584"/>
      <point x="62" y="490"/>
    </contour>
    <contour>
      <point x="127" y="339" type="curve" smooth="yes"/>
      <point x="127" y="455"/>
      <point x="208" y="524"/>
      <point x="324" y="524" type="curve" smooth="yes"/>
      <point x="440" y="524"/>
      <point x="521" y="455"/>
      <point x="521" y="339" type="curve" smooth="yes"/>
      <point x="521" y="223"/>
      <point x="440" y="154"/>
      <point x="324" y="154" type="curve" smooth="yes"/>
      <point x="208" y="154"/>
      <point x="127" y="223"/>
    </contour>
    <contour>
      <point x="484" y="182" type="line"/>
      <point x="522" y="220" type="line"/>
      <point x="158" y="513" type="line"/>
      <point x="137" y="462" type="line"/>
    </contour>
  </outline>
</glyph>
<glyph name="dvB_J_YA" format="1">
  <advance width="1644"/>
  <outline>
    <contour>
      <point x="532" y="680" type="line"/>
      <point x="532" y="740" type="line"/>
      <point x="-40" y="740" type="line"/>
      <point x="-40" y="680" type="line"/>
    </contour>
    <contour>
      <point x="1130" y="680" type="curve"/>
      <point x="1130" y="740" type="line"/>
      <point x="404" y="740" type="line"/>
      <point x="404" y="680" type="line"/>
      <point x="1098" y="680"/>
      <point x="1130" y="680"/>
    </contour>
    <contour>
      <point x="1479" y="680" type="line"/>
      <point x="1479" y="0" type="line"/>
      <point x="1544" y="0" type="line"/>
      <point x="1544" y="680" type="line"/>
      <point x="1544" y="680"/>
      <point x="1684" y="680"/>
      <point x="1684" y="680" type="curve"/>
      <point x="1684" y="740" type="line"/>
      <point x="886" y="740" type="line"/>
      <point x="886" y="680" type="line"/>
    </contour>
    <contour>
      <point x="1198" y="700" type="line"/>
      <point x="1198" y="675" type="line" smooth="yes"/>
      <point x="1198" y="508"/>
      <point x="1197" y="498"/>
      <point x="997" y="498" type="curve"/>
      <point x="989" y="284"/>
      <point x="1064" y="124"/>
      <point x="1269" y="124" type="curve" smooth="yes"/>
      <point x="1440" y="124"/>
      <point x="1514" y="239"/>
      <point x="1498" y="368" type="curve"/>
      <point x="1479" y="419" type="line"/>
      <point x="1479" y="269"/>
      <point x="1407" y="184"/>
      <point x="1276" y="184" type="curve" smooth="yes"/>
      <point x="1115" y="184"/>
      <point x="1060" y="301"/>
      <point x="1066" y="435" type="curve"/>
      <point x="1244" y="439"/>
      <point x="1263" y="500"/>
      <point x="1263" y="674" type="curve" smooth="yes"/>
      <point x="1263" y="708" type="line"/>
    </contour>
    <contour>
      <point x="1114" y="498" type="line"/>
      <point x="786" y="498" type="line"/>
      <point x="786" y="440" type="line"/>
      <point x="1114" y="440" type="line"/>
    </contour>
    <contour>
      <point x="657" y="100" type="curve" smooth="yes"/>
      <point x="824" y="100"/>
      <point x="846" y="231"/>
      <point x="846" y="376" type="curve" smooth="yes"/>
      <point x="846" y="498" type="line"/>
      <point x="781" y="498" type="line"/>
      <point x="781" y="398" type="line" smooth="yes"/>
      <point x="781" y="265"/>
      <point x="781" y="160"/>
      <point x="657" y="160" type="curve" smooth="yes"/>
      <point x="552" y="160"/>
      <point x="536" y="239"/>
      <point x="533" y="341" type="curve"/>
      <point x="533" y="341"/>
      <point x="533" y="492"/>
      <point x="533" y="492" type="curve"/>
      <point x="533" y="492"/>
      <point x="469" y="492"/>
      <point x="469" y="492" type="curve"/>
      <point x="469" y="341" type="line"/>
      <point x="473" y="213"/>
      <point x="505" y="100"/>
    </contour>
    <contour>
      <point x="496" y="245" type="line"/>
      <point x="470" y="189"/>
      <point x="414" y="154"/>
      <point x="324" y="154" type="curve" smooth="yes"/>
      <point x="208" y="154"/>
      <point x="127" y="223"/>
      <point x="127" y="339" type="curve" smooth="yes"/>
      <point x="127" y="455"/>
      <point x="203" y="527"/>
      <point x="325" y="527" type="curve" smooth="yes"/>
      <point x="402" y="527"/>
      <point x="455" y="495"/>
      <point x="481" y="455" type="curve"/>
      <point x="533" y="492" type="line"/>
      <point x="499" y="539"/>
      <point x="430" y="586"/>
      <point x="326" y="586" type="curve" smooth="yes"/>
      <point x="177" y="586"/>
      <point x="62" y="497"/>
      <point x="62" y="339" type="curve" smooth="yes"/>
      <point x="62" y="188"/>
      <point x="175" y="94"/>
      <point x="324" y="94" type="curve" smooth="yes"/>
      <point x="429" y="94"/>
      <point x="501" y="136"/>
      <point x="546" y="207" type="curve"/>
    </contour>
    <contour>
      <point x="481" y="182" type="line"/>
      <point x="519" y="220" type="line"/>
      <point x="158" y="513" type="line"/>
      <point x="137" y="462" type="line"/>
    </contour>
  </outline>
</glyph>
<glyph name="dvB_L_YA" format="1">
  <advance width="1791"/>
  <outline>
    <contour>
      <point x="1272" y="680" type="line"/>
      <point x="1332" y="740" type="line"/>
      <point x="391" y="740" type="line"/>
      <point x="391" y="680" type="line"/>
    </contour>
    <contour>
      <point x="1205" y="397" type="line"/>
      <point x="1208" y="458"/>
      <point x="1150" y="514"/>
      <point x="1056" y="514" type="curve" smooth="yes"/>
      <point x="964" y="514"/>
      <point x="909" y="459"/>
      <point x="889" y="385" type="curve"/>
      <point x="867" y="466"/>
      <point x="802" y="511"/>
      <point x="716" y="511" type="curve" smooth="yes"/>
      <point x="574" y="511"/>
      <point x="518" y="414"/>
      <point x="518" y="271" type="curve" smooth="yes"/>
      <point x="518" y="108"/>
      <point x="621" y="5"/>
      <point x="782" y="21" type="curve"/>
      <point x="782" y="81" type="line"/>
      <point x="645" y="72"/>
      <point x="583" y="153"/>
      <point x="583" y="272" type="curve" smooth="yes"/>
      <point x="583" y="374"/>
      <point x="615" y="451"/>
      <point x="716" y="451" type="curve" smooth="yes"/>
      <point x="827" y="451"/>
      <point x="861" y="357"/>
      <point x="857" y="231" type="curve"/>
      <point x="921" y="231" type="line"/>
      <point x="917" y="357"/>
      <point x="946" y="454"/>
      <point x="1057" y="454" type="curve" smooth="yes"/>
      <point x="1109" y="454"/>
      <point x="1146" y="432"/>
      <point x="1145" y="397" type="curve"/>
    </contour>
    <contour>
      <point x="585" y="680" type="line"/>
      <point x="585" y="740" type="line"/>
      <point x="-40" y="740" type="line"/>
      <point x="-40" y="680" type="line"/>
    </contour>
    <contour>
      <point x="62" y="339" type="curve" smooth="yes"/>
      <point x="62" y="188"/>
      <point x="175" y="94"/>
      <point x="324" y="94" type="curve" smooth="yes"/>
      <point x="473" y="94"/>
      <point x="582" y="188"/>
      <point x="582" y="339" type="curve" smooth="yes"/>
      <point x="582" y="490"/>
      <point x="473" y="584"/>
      <point x="324" y="584" type="curve" smooth="yes"/>
      <point x="175" y="584"/>
      <point x="62" y="490"/>
    </contour>
    <contour>
      <point x="127" y="339" type="curve" smooth="yes"/>
      <point x="127" y="455"/>
      <point x="208" y="524"/>
      <point x="324" y="524" type="curve" smooth="yes"/>
      <point x="440" y="524"/>
      <point x="521" y="455"/>
      <point x="521" y="339" type="curve" smooth="yes"/>
      <point x="521" y="223"/>
      <point x="440" y="154"/>
      <point x="324" y="154" type="curve" smooth="yes"/>
      <point x="208" y="154"/>
      <point x="127" y="223"/>
    </contour>
    <contour>
      <point x="484" y="182" type="line"/>
      <point x="522" y="220" type="line"/>
      <point x="158" y="513" type="line"/>
      <point x="137" y="462" type="line"/>
    </contour>
    <component base="dvYA" xOffset="1073"/>
  </outline>
</glyph>
<glyph name="dvB_R" format="1">
  <advance width="428"/>
  <outline>
    <contour>
      <point x="585" y="680" type="line"/>
      <point x="585" y="740" type="line"/>
      <point x="-40" y="740" type="line"/>
      <point x="-40" y="680" type="line"/>
    </contour>
    <contour>
      <point x="62" y="339" type="curve" smooth="yes"/>
      <point x="62" y="188"/>
      <point x="175" y="97"/>
      <point x="324" y="97" type="curve"/>
      <point x="473" y="97"/>
      <point x="586" y="194"/>
      <point x="586" y="339" type="curve" smooth="yes"/>
      <point x="586" y="490"/>
      <point x="473" y="584"/>
      <point x="324" y="584" type="curve" smooth="yes"/>
      <point x="175" y="584"/>
      <point x="62" y="490"/>
    </contour>
    <contour>
      <point x="127" y="339" type="curve" smooth="yes"/>
      <point x="127" y="455"/>
      <point x="208" y="524"/>
      <point x="324" y="524" type="curve"/>
      <point x="440" y="524"/>
      <point x="521" y="455"/>
      <point x="521" y="339" type="curve" smooth="yes"/>
      <point x="521" y="223"/>
      <point x="440" y="154"/>
      <point x="324" y="154" type="curve" smooth="yes"/>
      <point x="208" y="154"/>
      <point x="127" y="223"/>
    </contour>
    <contour>
      <point x="484" y="182" type="line"/>
      <point x="522" y="220" type="line"/>
      <point x="158" y="513" type="line"/>
      <point x="137" y="462" type="line"/>
    </contour>
    <contour>
      <point x="215" y="-54" type="line"/>
      <point x="215" y="-58" type="line"/>
      <point x="215" y="-58"/>
      <point x="298" y="-58"/>
      <point x="298" y="-58" type="curve"/>
      <point x="523" y="176" type="line"/>
      <point x="523" y="176"/>
      <point x="449" y="170"/>
      <point x="449" y="170" type="curve"/>
    </contour>
  </outline>
</glyph>
<glyph name="dvB_RA" format="1">
  <advance width="673"/>
  <outline>
    <contour>
      <point x="314" y="98" type="curve" smooth="yes"/>
      <point x="401" y="98"/>
      <point x="470" y="142"/>
      <point x="508" y="204" type="curve"/>
      <point x="508" y="0" type="line"/>
      <point x="573" y="0" type="line"/>
      <point x="573" y="680" type="line"/>
      <point x="713" y="680" type="line"/>
      <point x="713" y="740" type="line"/>
      <point x="-40" y="740" type="line"/>
      <point x="-40" y="680" type="line"/>
      <point x="508" y="680" type="line"/>
      <point x="508" y="483" type="line"/>
      <point x="472" y="542"/>
      <point x="406" y="584"/>
      <point x="314" y="584" type="curve" smooth="yes"/>
      <point x="171" y="584"/>
      <point x="62" y="484"/>
      <point x="62" y="339" type="curve" smooth="yes"/>
      <point x="62" y="194"/>
      <point x="171" y="98"/>
    </contour>
    <contour>
      <point x="127" y="339" type="curve" smooth="yes"/>
      <point x="127" y="455"/>
      <point x="208" y="524"/>
      <point x="324" y="524" type="curve" smooth="yes"/>
      <point x="429" y="524"/>
      <point x="508" y="450"/>
      <point x="508" y="339" type="curve"/>
      <point x="508" y="228"/>
      <point x="429" y="154"/>
      <point x="324" y="154" type="curve" smooth="yes"/>
      <point x="208" y="154"/>
      <point x="127" y="223"/>
    </contour>
    <contour>
      <point x="484" y="182" type="line"/>
      <point x="522" y="220" type="line"/>
      <point x="158" y="513" type="line"/>
      <point x="137" y="462" type="line"/>
    </contour>
    <contour>
      <point x="215" y="-53" type="line"/>
      <point x="215" y="-58" type="line"/>
      <point x="215" y="-58"/>
      <point x="298" y="-58"/>
      <point x="298" y="-58" type="curve"/>
      <point x="560" y="242" type="line"/>
      <point x="560" y="242"/>
      <point x="431" y="174"/>
      <point x="431" y="174" type="curve"/>
    </contour>
  </outline>
</glyph>
<glyph name="dvC" format="1">
  <advance width="467"/>
  <outline>
    <contour>
      <point x="618" y="740" type="line"/>
      <point x="-40" y="740" type="line"/>
      <point x="-40" y="680" type="line"/>
      <point x="618" y="680" type="line"/>
    </contour>
    <contour>
      <point x="411" y="531" type="line"/>
      <point x="49" y="531" type="line"/>
      <point x="49" y="474" type="line"/>
      <point x="411" y="474" type="line"/>
    </contour>
    <contour>
      <point x="555" y="349" type="line"/>
      <point x="555" y="243"/>
      <point x="502" y="164"/>
      <point x="381" y="164" type="curve" smooth="yes"/>
      <point x="279" y="164"/>
      <point x="208" y="218"/>
      <point x="208" y="315" type="curve" smooth="yes"/>
      <point x="208" y="416"/>
      <point x="277" y="474"/>
      <point x="385" y="474" type="curve"/>
      <point x="364" y="497" type="line"/>
      <point x="236" y="507"/>
      <point x="144" y="443"/>
      <point x="144" y="315" type="curve" smooth="yes"/>
      <point x="144" y="184"/>
      <point x="251" y="104"/>
      <point x="382" y="104" type="curve" smooth="yes"/>
      <point x="536" y="104"/>
      <point x="617" y="208"/>
      <point x="617" y="349" type="curve"/>
    </contour>
  </outline>
</glyph>
<glyph name="dvCH" format="1">
  <advance width="817"/>
  <outline>
    <contour>
      <point x="857" y="680" type="line"/>
      <point x="857" y="740" type="line"/>
      <point x="-40" y="740" type="line"/>
      <point x="-40" y="680" type="line"/>
    </contour>
    <contour>
      <point x="588" y="514" type="curve" smooth="yes"/>
      <point x="654" y="514"/>
      <point x="706" y="472"/>
      <point x="706" y="354" type="curve" smooth="yes"/>
      <point x="706" y="171"/>
      <point x="580" y="92"/>
      <point x="409" y="92" type="curve" smooth="yes"/>
      <point x="280" y="92"/>
      <point x="145" y="126"/>
      <point x="145" y="249" type="curve" smooth="yes"/>
      <point x="145" y="342"/>
      <point x="216" y="386"/>
      <point x="320" y="386" type="curve"/>
      <point x="320" y="386"/>
      <point x="332" y="386"/>
      <point x="332" y="386" type="curve"/>
      <point x="332" y="386"/>
      <point x="332" y="446"/>
      <point x="332" y="446" type="curve"/>
      <point x="320" y="446" type="line" smooth="yes"/>
      <point x="190" y="446"/>
      <point x="168" y="497"/>
      <point x="168" y="628" type="curve" smooth="yes"/>
      <point x="168" y="680" type="line"/>
      <point x="103" y="690" type="line"/>
      <point x="103" y="634" type="line" smooth="yes"/>
      <point x="103" y="516"/>
      <point x="118" y="447"/>
      <point x="200" y="422" type="curve"/>
      <point x="200" y="416" type="line"/>
      <point x="129" y="390"/>
      <point x="81" y="334"/>
      <point x="81" y="250" type="curve" smooth="yes"/>
      <point x="81" y="90"/>
      <point x="240" y="32"/>
      <point x="409" y="32" type="curve" smooth="yes"/>
      <point x="626" y="32"/>
      <point x="766" y="152"/>
      <point x="766" y="347" type="curve" smooth="yes"/>
      <point x="766" y="484"/>
      <point x="699" y="574"/>
      <point x="588" y="574" type="curve"/>
      <point x="466" y="571"/>
      <point x="407" y="486"/>
      <point x="409" y="310" type="curve"/>
      <point x="469" y="310" type="line"/>
      <point x="467" y="489"/>
      <point x="523" y="514"/>
    </contour>
  </outline>
</glyph>
<glyph name="dvCH_RA" format="1">
  <advance width="817"/>
  <outline>
    <contour>
      <point x="505" y="-188" type="move" name="blwm.u"/>
    </contour>
    <contour>
      <point x="481" y="-86" type="move" name="blwm.virama"/>
    </contour>
    <contour>
      <point x="632" y="740" type="move" name="abvm.e"/>
    </contour>
    <component base="dvCHA"/>
    <component base="dvRashtrasign" xOffset="674" yOffset="-14"/>
  </outline>
</glyph>
<glyph name="dvC_CH_VA" format="1">
  <advance width="1252"/>
  <outline>
    <contour>
      <point x="1062" y="-382" type="move" name="blwm.u"/>
    </contour>
    <contour>
      <point x="1062" y="-352" type="move" name="blwm.virama"/>
    </contour>
    <contour>
      <point x="1062" y="740" type="move" name="abvm.e"/>
    </contour>
    <contour>
      <point x="618" y="740" type="line"/>
      <point x="-40" y="740" type="line"/>
      <point x="-40" y="680" type="line"/>
      <point x="618" y="680" type="line"/>
    </contour>
    <contour>
      <point x="411" y="531" type="line"/>
      <point x="49" y="531" type="line"/>
      <point x="49" y="474" type="line"/>
      <point x="411" y="474" type="line"/>
    </contour>
    <contour>
      <point x="520" y="309" type="line"/>
      <point x="511" y="227"/>
      <point x="475" y="162"/>
      <point x="372" y="162" type="curve" smooth="yes"/>
      <point x="268" y="162"/>
      <point x="209" y="217"/>
      <point x="209" y="314" type="curve" smooth="yes"/>
      <point x="209" y="415"/>
      <point x="277" y="474"/>
      <point x="385" y="474" type="curve"/>
      <point x="365" y="497" type="line"/>
      <point x="249" y="518"/>
      <point x="145" y="439"/>
      <point x="145" y="314" type="curve" smooth="yes"/>
      <point x="145" y="176"/>
      <point x="239" y="102"/>
      <point x="369" y="102" type="curve" smooth="yes"/>
      <point x="499" y="102"/>
      <point x="557" y="190"/>
      <point x="573" y="298" type="curve"/>
    </contour>
    <contour>
      <point x="1062" y="109" type="line"/>
      <point x="997" y="109" type="line"/>
      <point x="997" y="-352" type="line"/>
      <point x="1062" y="-352" type="line"/>
    </contour>
    <contour>
      <point x="858" y="96" type="line"/>
      <point x="729" y="98"/>
      <point x="620" y="41"/>
      <point x="620" y="-97" type="curve" smooth="yes"/>
      <point x="620" y="-225"/>
      <point x="726" y="-300"/>
      <point x="836" y="-300" type="curve" smooth="yes"/>
      <point x="985" y="-300"/>
      <point x="1042" y="-179"/>
      <point x="1033" y="-77" type="curve"/>
      <point x="997" y="-49" type="line"/>
      <point x="998" y="-157"/>
      <point x="944" y="-240"/>
      <point x="840" y="-240" type="curve" smooth="yes"/>
      <point x="766" y="-240"/>
      <point x="685" y="-197"/>
      <point x="685" y="-94" type="curve" smooth="yes"/>
      <point x="685" y="0"/>
      <point x="758" y="55"/>
      <point x="855" y="53" type="curve"/>
    </contour>
    <contour>
      <point x="1292" y="680" type="line"/>
      <point x="1292" y="740" type="line"/>
      <point x="395" y="740" type="line"/>
      <point x="395" y="680" type="line"/>
    </contour>
    <contour>
      <point x="1023" y="534" type="curve" smooth="yes"/>
      <point x="1089" y="534"/>
      <point x="1141" y="492"/>
      <point x="1141" y="374" type="curve" smooth="yes"/>
      <point x="1141" y="191"/>
      <point x="1015" y="112"/>
      <point x="844" y="112" type="curve" smooth="yes"/>
      <point x="715" y="112"/>
      <point x="580" y="146"/>
      <point x="580" y="269" type="curve" smooth="yes"/>
      <point x="580" y="362"/>
      <point x="651" y="406"/>
      <point x="755" y="406" type="curve"/>
      <point x="755" y="406"/>
      <point x="767" y="406"/>
      <point x="767" y="406" type="curve"/>
      <point x="767" y="406"/>
      <point x="767" y="466"/>
      <point x="767" y="466" type="curve"/>
      <point x="755" y="466" type="line" smooth="yes"/>
      <point x="625" y="466"/>
      <point x="603" y="517"/>
      <point x="603" y="648" type="curve" smooth="yes"/>
      <point x="603" y="700" type="line"/>
      <point x="538" y="710" type="line"/>
      <point x="538" y="654" type="line" smooth="yes"/>
      <point x="538" y="536"/>
      <point x="553" y="467"/>
      <point x="635" y="442" type="curve"/>
      <point x="635" y="436" type="line"/>
      <point x="564" y="410"/>
      <point x="516" y="354"/>
      <point x="516" y="270" type="curve" smooth="yes"/>
      <point x="516" y="110"/>
      <point x="675" y="52"/>
      <point x="844" y="52" type="curve" smooth="yes"/>
      <point x="1061" y="52"/>
      <point x="1201" y="172"/>
      <point x="1201" y="367" type="curve" smooth="yes"/>
      <point x="1201" y="504"/>
      <point x="1134" y="594"/>
      <point x="1023" y="594" type="curve"/>
      <point x="901" y="591"/>
      <point x="842" y="506"/>
      <point x="844" y="330" type="curve"/>
      <point x="904" y="330" type="line"/>
      <point x="902" y="509"/>
      <point x="958" y="534"/>
    </contour>
    <contour>
      <point x="1062" y="714" type="line"/>
      <point x="997" y="714" type="line"/>
      <point x="997" y="560" type="line"/>
      <point x="1062" y="560" type="line"/>
    </contour>
  </outline>
</glyph>
<glyph name="dvC_MA" format="1">
  <advance width="1224"/>
  <outline>
    <contour>
      <point x="1059" y="0" type="line"/>
      <point x="1124" y="0" type="line"/>
      <point x="1124" y="730" type="line"/>
      <point x="1124" y="730"/>
      <point x="1059" y="730"/>
      <point x="1059" y="730" type="curve"/>
    </contour>
    <contour>
      <point x="1264" y="680" type="line"/>
      <point x="1264" y="740" type="line"/>
      <point x="421" y="740" type="line"/>
      <point x="421" y="680" type="line"/>
    </contour>
    <contour>
      <point x="797" y="329" type="line"/>
      <point x="797" y="231"/>
      <point x="776" y="172"/>
      <point x="688" y="172" type="curve" smooth="yes"/>
      <point x="623" y="172"/>
      <point x="576" y="217"/>
      <point x="576" y="281" type="curve" smooth="yes"/>
      <point x="576" y="372"/>
      <point x="641" y="393"/>
      <point x="735" y="393" type="curve" smooth="yes"/>
      <point x="1077" y="393" type="line"/>
      <point x="1077" y="451" type="line"/>
      <point x="742" y="451" type="line" smooth="yes"/>
      <point x="586" y="451"/>
      <point x="511" y="398"/>
      <point x="511" y="283" type="curve" smooth="yes"/>
      <point x="511" y="183"/>
      <point x="590" y="113"/>
      <point x="689" y="113" type="curve" smooth="yes"/>
      <point x="808" y="113"/>
      <point x="861" y="188"/>
      <point x="861" y="329" type="curve" smooth="yes"/>
      <point x="861" y="707" type="line"/>
      <point x="861" y="707"/>
      <point x="797" y="707"/>
      <point x="797" y="707" type="curve"/>
    </contour>
    <contour>
      <point x="618" y="740" type="line"/>
      <point x="-40" y="740" type="line"/>
      <point x="-40" y="680" type="line"/>
      <point x="618" y="680" type="line"/>
    </contour>
    <contour>
      <point x="431" y="531" type="line"/>
      <point x="49" y="531" type="line"/>
      <point x="49" y="474" type="line"/>
      <point x="431" y="474" type="line"/>
    </contour>
    <contour>
      <point x="515" y="321" type="line"/>
      <point x="507" y="223"/>
      <point x="465" y="163"/>
      <point x="367" y="163" type="curve" smooth="yes"/>
      <point x="270" y="163"/>
      <point x="208" y="214"/>
      <point x="208" y="311" type="curve" smooth="yes"/>
      <point x="208" y="412"/>
      <point x="277" y="474"/>
      <point x="385" y="474" type="curve"/>
      <point x="365" y="495" type="line"/>
      <point x="241" y="513"/>
      <point x="144" y="436"/>
      <point x="144" y="311" type="curve" smooth="yes"/>
      <point x="144" y="183"/>
      <point x="239" y="103"/>
      <point x="364" y="103" type="curve" smooth="yes"/>
      <point x="485" y="103"/>
      <point x="553" y="180"/>
      <point x="559" y="294" type="curve"/>
    </contour>
  </outline>
</glyph>
<glyph name="dvC_RA" format="1">
  <advance width="720"/>
  <outline>
    <contour>
      <point x="411" y="474" type="line"/>
      <point x="49" y="474" type="line"/>
      <point x="49" y="531" type="line"/>
      <point x="411" y="531" type="line"/>
    </contour>
    <contour>
      <point x="576" y="260" type="line"/>
      <point x="572" y="236"/>
      <point x="509" y="107"/>
      <point x="370" y="107" type="curve" smooth="yes"/>
      <point x="243" y="107"/>
      <point x="143" y="188"/>
      <point x="143" y="312" type="curve" smooth="yes"/>
      <point x="143" y="443"/>
      <point x="242" y="513"/>
      <point x="374" y="503" type="curve"/>
      <point x="385" y="474" type="line"/>
      <point x="277" y="474"/>
      <point x="208" y="416"/>
      <point x="208" y="315" type="curve" smooth="yes"/>
      <point x="208" y="218"/>
      <point x="280" y="164"/>
      <point x="380" y="164" type="curve" smooth="yes"/>
      <point x="481" y="164"/>
      <point x="555" y="246"/>
      <point x="555" y="345" type="curve"/>
    </contour>
    <contour>
      <point x="613" y="268" type="curve"/>
      <point x="346" y="-43" type="line"/>
      <point x="346" y="-43"/>
      <point x="263" y="-43"/>
      <point x="263" y="-43" type="curve"/>
      <point x="472" y="174" type="line"/>
      <point x="472" y="174"/>
      <point x="613" y="268"/>
    </contour>
    <contour>
      <point x="-40" y="740" type="line"/>
      <point x="760" y="740" type="line"/>
      <point x="760" y="680" type="line"/>
      <point x="760" y="680"/>
      <point x="620" y="680"/>
      <point x="620" y="680" type="curve"/>
      <point x="620" y="0" type="line"/>
      <point x="555" y="0" type="line"/>
      <point x="555" y="680" type="line"/>
      <point x="555" y="680"/>
      <point x="-40" y="680"/>
      <point x="-40" y="680" type="curve"/>
    </contour>
  </outline>
</glyph>
<glyph name="dvC_YA" format="1">
  <advance width="1201"/>
  <outline>
    <contour>
      <point x="753" y="690" type="line"/>
      <point x="753" y="645" type="line" smooth="yes"/>
      <point x="753" y="501"/>
      <point x="752" y="450"/>
      <point x="552" y="450" type="curve"/>
      <point x="543" y="245"/>
      <point x="639" y="114"/>
      <point x="824" y="114" type="curve" smooth="yes"/>
      <point x="986" y="114"/>
      <point x="1070" y="236"/>
      <point x="1050" y="358" type="curve"/>
      <point x="1034" y="409" type="line"/>
      <point x="1034" y="272"/>
      <point x="956" y="174"/>
      <point x="831" y="174" type="curve" smooth="yes"/>
      <point x="693" y="174"/>
      <point x="619" y="266"/>
      <point x="621" y="395" type="curve"/>
      <point x="797" y="404"/>
      <point x="818" y="490"/>
      <point x="818" y="644" type="curve" smooth="yes"/>
      <point x="818" y="698" type="line"/>
    </contour>
    <contour>
      <point x="1034" y="680" type="line"/>
      <point x="1034" y="0" type="line"/>
      <point x="1099" y="0" type="line"/>
      <point x="1099" y="680" type="line"/>
      <point x="1099" y="680"/>
      <point x="1239" y="680"/>
      <point x="1239" y="680" type="curve"/>
      <point x="1239" y="740" type="line"/>
      <point x="461" y="740" type="line"/>
      <point x="461" y="680" type="line"/>
    </contour>
    <contour>
      <point x="621" y="740" type="line"/>
      <point x="-40" y="740" type="line"/>
      <point x="-40" y="680" type="line"/>
      <point x="621" y="680" type="line"/>
    </contour>
    <contour>
      <point x="444" y="531" type="line"/>
      <point x="72" y="531" type="line"/>
      <point x="72" y="474" type="line"/>
      <point x="444" y="474" type="line"/>
    </contour>
    <contour>
      <point x="558" y="349" type="line"/>
      <point x="558" y="243"/>
      <point x="517" y="164"/>
      <point x="396" y="164" type="curve" smooth="yes"/>
      <point x="294" y="164"/>
      <point x="231" y="218"/>
      <point x="231" y="315" type="curve" smooth="yes"/>
      <point x="231" y="416"/>
      <point x="300" y="474"/>
      <point x="408" y="474" type="curve"/>
      <point x="387" y="497" type="line"/>
      <point x="259" y="507"/>
      <point x="167" y="443"/>
      <point x="167" y="315" type="curve" smooth="yes"/>
      <point x="167" y="184"/>
      <point x="265" y="104"/>
      <point x="396" y="104" type="curve" smooth="yes"/>
      <point x="550" y="104"/>
      <point x="616" y="208"/>
      <point x="614" y="352" type="curve"/>
    </contour>
  </outline>
</glyph>
<glyph name="dvDA_mvR" format="1">
  <advance width="577"/>
  <outline>
    <contour>
      <point x="364" y="-102" type="move" name="blwm.u"/>
    </contour>
    <contour>
      <point x="346" y="-14" type="move" name="blwm.virama"/>
    </contour>
    <contour>
      <point x="424" y="740" type="move" name="abvm.e"/>
    </contour>
    <contour>
      <point x="523" y="217" type="curve"/>
      <point x="461" y="217" type="line"/>
      <point x="461" y="119"/>
      <point x="408" y="69"/>
      <point x="297" y="69" type="curve" smooth="yes"/>
      <point x="203" y="69"/>
      <point x="135" y="97"/>
      <point x="135" y="172" type="curve" smooth="yes"/>
      <point x="135" y="253"/>
      <point x="219" y="267"/>
      <point x="298" y="267" type="curve" smooth="yes"/>
      <point x="361" y="267" type="line"/>
      <point x="361" y="326" type="line"/>
      <point x="298" y="326" type="line" smooth="yes"/>
      <point x="216" y="326"/>
      <point x="136" y="345"/>
      <point x="136" y="422" type="curve" smooth="yes"/>
      <point x="136" y="503"/>
      <point x="212" y="510"/>
      <point x="297" y="510" type="curve" smooth="yes"/>
      <point x="424" y="510" type="line"/>
      <point x="424" y="680" type="line"/>
      <point x="617" y="680" type="line"/>
      <point x="617" y="740" type="line"/>
      <point x="-40" y="740" type="line"/>
      <point x="-40" y="680" type="line"/>
      <point x="359" y="680" type="line"/>
      <point x="359" y="570" type="line"/>
      <point x="276" y="570" type="line" smooth="yes"/>
      <point x="166" y="570"/>
      <point x="70" y="533"/>
      <point x="70" y="424" type="curve" smooth="yes"/>
      <point x="70" y="363"/>
      <point x="111" y="315"/>
      <point x="168" y="302" type="curve"/>
      <point x="168" y="296" type="line"/>
      <point x="113" y="285"/>
      <point x="70" y="235"/>
      <point x="70" y="172" type="curve" smooth="yes"/>
      <point x="70" y="69"/>
      <point x="158" y="11"/>
      <point x="297" y="11" type="curve" smooth="yes"/>
      <point x="418" y="11"/>
      <point x="525" y="62"/>
    </contour>
  </outline>
</glyph>
